G04 #@! TF.GenerationSoftware,KiCad,Pcbnew,5.0.2-bee76a0~70~ubuntu16.04.1*
G04 #@! TF.CreationDate,2019-04-19T18:04:48-07:00*
G04 #@! TF.ProjectId,volume_control_board,766f6c75-6d65-45f6-936f-6e74726f6c5f,rev?*
G04 #@! TF.SameCoordinates,Original*
G04 #@! TF.FileFunction,Paste,Top*
G04 #@! TF.FilePolarity,Positive*
%FSLAX46Y46*%
G04 Gerber Fmt 4.6, Leading zero omitted, Abs format (unit mm)*
G04 Created by KiCad (PCBNEW 5.0.2-bee76a0~70~ubuntu16.04.1) date Fri 19 Apr 2019 06:04:48 PM PDT*
%MOMM*%
%LPD*%
G01*
G04 APERTURE LIST*
%ADD10R,2.200000X2.800000*%
%ADD11R,2.800000X2.800000*%
%ADD12R,1.250000X1.000000*%
%ADD13R,1.000000X1.250000*%
%ADD14R,0.700000X1.300000*%
%ADD15R,1.300000X0.700000*%
%ADD16R,1.450000X0.450000*%
G04 APERTURE END LIST*
D10*
G04 #@! TO.C,J2*
X156159000Y-75455000D03*
X158159000Y-68055000D03*
D11*
X148759000Y-68055000D03*
G04 #@! TD*
D12*
G04 #@! TO.C,C1*
X110998000Y-62595000D03*
X110998000Y-60595000D03*
G04 #@! TD*
G04 #@! TO.C,C2*
X111506000Y-98266000D03*
X111506000Y-96266000D03*
G04 #@! TD*
G04 #@! TO.C,C3*
X127635000Y-94742000D03*
X127635000Y-96742000D03*
G04 #@! TD*
G04 #@! TO.C,C4*
X120142000Y-87535000D03*
X120142000Y-89535000D03*
G04 #@! TD*
D13*
G04 #@! TO.C,C5*
X129048000Y-60833000D03*
X131048000Y-60833000D03*
G04 #@! TD*
D14*
G04 #@! TO.C,R1*
X107061000Y-76454000D03*
X108961000Y-76454000D03*
G04 #@! TD*
G04 #@! TO.C,R2*
X107061000Y-74422000D03*
X108961000Y-74422000D03*
G04 #@! TD*
D15*
G04 #@! TO.C,R3*
X114300000Y-78806000D03*
X114300000Y-80706000D03*
G04 #@! TD*
G04 #@! TO.C,R4*
X113538000Y-98166000D03*
X113538000Y-96266000D03*
G04 #@! TD*
G04 #@! TO.C,R5*
X129667000Y-96647000D03*
X129667000Y-94747000D03*
G04 #@! TD*
G04 #@! TO.C,R6*
X115570000Y-96266000D03*
X115570000Y-98166000D03*
G04 #@! TD*
G04 #@! TO.C,R7*
X131699000Y-96647000D03*
X131699000Y-94747000D03*
G04 #@! TD*
G04 #@! TO.C,R8*
X124460000Y-87503000D03*
X124460000Y-89403000D03*
G04 #@! TD*
G04 #@! TO.C,R9*
X122301000Y-89403000D03*
X122301000Y-87503000D03*
G04 #@! TD*
G04 #@! TO.C,R10*
X118237000Y-80706000D03*
X118237000Y-78806000D03*
G04 #@! TD*
G04 #@! TO.C,R11*
X116332000Y-78806000D03*
X116332000Y-80706000D03*
G04 #@! TD*
G04 #@! TO.C,R12*
X108966000Y-60645000D03*
X108966000Y-62545000D03*
G04 #@! TD*
G04 #@! TO.C,R13*
X106934000Y-62545000D03*
X106934000Y-60645000D03*
G04 #@! TD*
D16*
G04 #@! TO.C,U2*
X113636000Y-69981000D03*
X113636000Y-69331000D03*
X113636000Y-68681000D03*
X113636000Y-68031000D03*
X113636000Y-67381000D03*
X113636000Y-66731000D03*
X113636000Y-66081000D03*
X113636000Y-65431000D03*
X113636000Y-64781000D03*
X113636000Y-64131000D03*
X119536000Y-64131000D03*
X119536000Y-64781000D03*
X119536000Y-65431000D03*
X119536000Y-66081000D03*
X119536000Y-66731000D03*
X119536000Y-67381000D03*
X119536000Y-68031000D03*
X119536000Y-68681000D03*
X119536000Y-69331000D03*
X119536000Y-69981000D03*
G04 #@! TD*
M02*
