G04 #@! TF.GenerationSoftware,KiCad,Pcbnew,5.0.2-bee76a0~70~ubuntu16.04.1*
G04 #@! TF.CreationDate,2019-04-19T18:04:48-07:00*
G04 #@! TF.ProjectId,volume_control_board,766f6c75-6d65-45f6-936f-6e74726f6c5f,rev?*
G04 #@! TF.SameCoordinates,Original*
G04 #@! TF.FileFunction,Legend,Bot*
G04 #@! TF.FilePolarity,Positive*
%FSLAX46Y46*%
G04 Gerber Fmt 4.6, Leading zero omitted, Abs format (unit mm)*
G04 Created by KiCad (PCBNEW 5.0.2-bee76a0~70~ubuntu16.04.1) date Fri 19 Apr 2019 06:04:48 PM PDT*
%MOMM*%
%LPD*%
G01*
G04 APERTURE LIST*
%ADD10C,0.250000*%
%ADD11C,0.300000*%
G04 APERTURE END LIST*
D10*
X133797214Y-87130000D02*
X133911500Y-87072857D01*
X134082928Y-87072857D01*
X134254357Y-87130000D01*
X134368642Y-87244285D01*
X134425785Y-87358571D01*
X134482928Y-87587142D01*
X134482928Y-87758571D01*
X134425785Y-87987142D01*
X134368642Y-88101428D01*
X134254357Y-88215714D01*
X134082928Y-88272857D01*
X133968642Y-88272857D01*
X133797214Y-88215714D01*
X133740071Y-88158571D01*
X133740071Y-87758571D01*
X133968642Y-87758571D01*
X133225785Y-88272857D02*
X133225785Y-87072857D01*
X132540071Y-88272857D01*
X132540071Y-87072857D01*
X131968642Y-88272857D02*
X131968642Y-87072857D01*
X131682928Y-87072857D01*
X131511500Y-87130000D01*
X131397214Y-87244285D01*
X131340071Y-87358571D01*
X131282928Y-87587142D01*
X131282928Y-87758571D01*
X131340071Y-87987142D01*
X131397214Y-88101428D01*
X131511500Y-88215714D01*
X131682928Y-88272857D01*
X131968642Y-88272857D01*
X134425785Y-90322857D02*
X134425785Y-89122857D01*
X133968642Y-89122857D01*
X133854357Y-89180000D01*
X133797214Y-89237142D01*
X133740071Y-89351428D01*
X133740071Y-89522857D01*
X133797214Y-89637142D01*
X133854357Y-89694285D01*
X133968642Y-89751428D01*
X134425785Y-89751428D01*
X132711500Y-89522857D02*
X132711500Y-90322857D01*
X133225785Y-89522857D02*
X133225785Y-90151428D01*
X133168642Y-90265714D01*
X133054357Y-90322857D01*
X132882928Y-90322857D01*
X132768642Y-90265714D01*
X132711500Y-90208571D01*
X132197214Y-90265714D02*
X132082928Y-90322857D01*
X131854357Y-90322857D01*
X131740071Y-90265714D01*
X131682928Y-90151428D01*
X131682928Y-90094285D01*
X131740071Y-89980000D01*
X131854357Y-89922857D01*
X132025785Y-89922857D01*
X132140071Y-89865714D01*
X132197214Y-89751428D01*
X132197214Y-89694285D01*
X132140071Y-89580000D01*
X132025785Y-89522857D01*
X131854357Y-89522857D01*
X131740071Y-89580000D01*
X131168642Y-90322857D02*
X131168642Y-89122857D01*
X130654357Y-90322857D02*
X130654357Y-89694285D01*
X130711500Y-89580000D01*
X130825785Y-89522857D01*
X130997214Y-89522857D01*
X131111500Y-89580000D01*
X131168642Y-89637142D01*
X129225785Y-90265714D02*
X129054357Y-90322857D01*
X128768642Y-90322857D01*
X128654357Y-90265714D01*
X128597214Y-90208571D01*
X128540071Y-90094285D01*
X128540071Y-89980000D01*
X128597214Y-89865714D01*
X128654357Y-89808571D01*
X128768642Y-89751428D01*
X128997214Y-89694285D01*
X129111500Y-89637142D01*
X129168642Y-89580000D01*
X129225785Y-89465714D01*
X129225785Y-89351428D01*
X129168642Y-89237142D01*
X129111500Y-89180000D01*
X128997214Y-89122857D01*
X128711500Y-89122857D01*
X128540071Y-89180000D01*
X128140071Y-89522857D02*
X127911500Y-90322857D01*
X127682928Y-89751428D01*
X127454357Y-90322857D01*
X127225785Y-89522857D01*
X126768642Y-90322857D02*
X126768642Y-89522857D01*
X126768642Y-89122857D02*
X126825785Y-89180000D01*
X126768642Y-89237142D01*
X126711500Y-89180000D01*
X126768642Y-89122857D01*
X126768642Y-89237142D01*
X126368642Y-89522857D02*
X125911500Y-89522857D01*
X126197214Y-89122857D02*
X126197214Y-90151428D01*
X126140071Y-90265714D01*
X126025785Y-90322857D01*
X125911500Y-90322857D01*
X124997214Y-90265714D02*
X125111500Y-90322857D01*
X125340071Y-90322857D01*
X125454357Y-90265714D01*
X125511500Y-90208571D01*
X125568642Y-90094285D01*
X125568642Y-89751428D01*
X125511500Y-89637142D01*
X125454357Y-89580000D01*
X125340071Y-89522857D01*
X125111500Y-89522857D01*
X124997214Y-89580000D01*
X124482928Y-90322857D02*
X124482928Y-89122857D01*
X123968642Y-90322857D02*
X123968642Y-89694285D01*
X124025785Y-89580000D01*
X124140071Y-89522857D01*
X124311500Y-89522857D01*
X124425785Y-89580000D01*
X124482928Y-89637142D01*
X134425785Y-91744285D02*
X134025785Y-91744285D01*
X133854357Y-92372857D02*
X134425785Y-92372857D01*
X134425785Y-91172857D01*
X133854357Y-91172857D01*
X133340071Y-91572857D02*
X133340071Y-92372857D01*
X133340071Y-91687142D02*
X133282928Y-91630000D01*
X133168642Y-91572857D01*
X132997214Y-91572857D01*
X132882928Y-91630000D01*
X132825785Y-91744285D01*
X132825785Y-92372857D01*
X131740071Y-92315714D02*
X131854357Y-92372857D01*
X132082928Y-92372857D01*
X132197214Y-92315714D01*
X132254357Y-92258571D01*
X132311500Y-92144285D01*
X132311500Y-91801428D01*
X132254357Y-91687142D01*
X132197214Y-91630000D01*
X132082928Y-91572857D01*
X131854357Y-91572857D01*
X131740071Y-91630000D01*
X131054357Y-92372857D02*
X131168642Y-92315714D01*
X131225785Y-92258571D01*
X131282928Y-92144285D01*
X131282928Y-91801428D01*
X131225785Y-91687142D01*
X131168642Y-91630000D01*
X131054357Y-91572857D01*
X130882928Y-91572857D01*
X130768642Y-91630000D01*
X130711500Y-91687142D01*
X130654357Y-91801428D01*
X130654357Y-92144285D01*
X130711500Y-92258571D01*
X130768642Y-92315714D01*
X130882928Y-92372857D01*
X131054357Y-92372857D01*
X129625785Y-92372857D02*
X129625785Y-91172857D01*
X129625785Y-92315714D02*
X129740071Y-92372857D01*
X129968642Y-92372857D01*
X130082928Y-92315714D01*
X130140071Y-92258571D01*
X130197214Y-92144285D01*
X130197214Y-91801428D01*
X130140071Y-91687142D01*
X130082928Y-91630000D01*
X129968642Y-91572857D01*
X129740071Y-91572857D01*
X129625785Y-91630000D01*
X128597214Y-92315714D02*
X128711500Y-92372857D01*
X128940071Y-92372857D01*
X129054357Y-92315714D01*
X129111500Y-92201428D01*
X129111500Y-91744285D01*
X129054357Y-91630000D01*
X128940071Y-91572857D01*
X128711500Y-91572857D01*
X128597214Y-91630000D01*
X128540071Y-91744285D01*
X128540071Y-91858571D01*
X129111500Y-91972857D01*
X128025785Y-92372857D02*
X128025785Y-91572857D01*
X128025785Y-91801428D02*
X127968642Y-91687142D01*
X127911500Y-91630000D01*
X127797214Y-91572857D01*
X127682928Y-91572857D01*
X125968642Y-91744285D02*
X125797214Y-91801428D01*
X125740071Y-91858571D01*
X125682928Y-91972857D01*
X125682928Y-92144285D01*
X125740071Y-92258571D01*
X125797214Y-92315714D01*
X125911500Y-92372857D01*
X126368642Y-92372857D01*
X126368642Y-91172857D01*
X125968642Y-91172857D01*
X125854357Y-91230000D01*
X125797214Y-91287142D01*
X125740071Y-91401428D01*
X125740071Y-91515714D01*
X125797214Y-91630000D01*
X125854357Y-91687142D01*
X125968642Y-91744285D01*
X126368642Y-91744285D01*
X134425785Y-93794285D02*
X134025785Y-93794285D01*
X133854357Y-94422857D02*
X134425785Y-94422857D01*
X134425785Y-93222857D01*
X133854357Y-93222857D01*
X133340071Y-93622857D02*
X133340071Y-94422857D01*
X133340071Y-93737142D02*
X133282928Y-93680000D01*
X133168642Y-93622857D01*
X132997214Y-93622857D01*
X132882928Y-93680000D01*
X132825785Y-93794285D01*
X132825785Y-94422857D01*
X131740071Y-94365714D02*
X131854357Y-94422857D01*
X132082928Y-94422857D01*
X132197214Y-94365714D01*
X132254357Y-94308571D01*
X132311500Y-94194285D01*
X132311500Y-93851428D01*
X132254357Y-93737142D01*
X132197214Y-93680000D01*
X132082928Y-93622857D01*
X131854357Y-93622857D01*
X131740071Y-93680000D01*
X131054357Y-94422857D02*
X131168642Y-94365714D01*
X131225785Y-94308571D01*
X131282928Y-94194285D01*
X131282928Y-93851428D01*
X131225785Y-93737142D01*
X131168642Y-93680000D01*
X131054357Y-93622857D01*
X130882928Y-93622857D01*
X130768642Y-93680000D01*
X130711500Y-93737142D01*
X130654357Y-93851428D01*
X130654357Y-94194285D01*
X130711500Y-94308571D01*
X130768642Y-94365714D01*
X130882928Y-94422857D01*
X131054357Y-94422857D01*
X129625785Y-94422857D02*
X129625785Y-93222857D01*
X129625785Y-94365714D02*
X129740071Y-94422857D01*
X129968642Y-94422857D01*
X130082928Y-94365714D01*
X130140071Y-94308571D01*
X130197214Y-94194285D01*
X130197214Y-93851428D01*
X130140071Y-93737142D01*
X130082928Y-93680000D01*
X129968642Y-93622857D01*
X129740071Y-93622857D01*
X129625785Y-93680000D01*
X128597214Y-94365714D02*
X128711500Y-94422857D01*
X128940071Y-94422857D01*
X129054357Y-94365714D01*
X129111500Y-94251428D01*
X129111500Y-93794285D01*
X129054357Y-93680000D01*
X128940071Y-93622857D01*
X128711500Y-93622857D01*
X128597214Y-93680000D01*
X128540071Y-93794285D01*
X128540071Y-93908571D01*
X129111500Y-94022857D01*
X128025785Y-94422857D02*
X128025785Y-93622857D01*
X128025785Y-93851428D02*
X127968642Y-93737142D01*
X127911500Y-93680000D01*
X127797214Y-93622857D01*
X127682928Y-93622857D01*
X126425785Y-94080000D02*
X125854357Y-94080000D01*
X126540071Y-94422857D02*
X126140071Y-93222857D01*
X125740071Y-94422857D01*
X107473571Y-74907714D02*
X107302142Y-74964857D01*
X107016428Y-74964857D01*
X106902142Y-74907714D01*
X106845000Y-74850571D01*
X106787857Y-74736285D01*
X106787857Y-74622000D01*
X106845000Y-74507714D01*
X106902142Y-74450571D01*
X107016428Y-74393428D01*
X107245000Y-74336285D01*
X107359285Y-74279142D01*
X107416428Y-74222000D01*
X107473571Y-74107714D01*
X107473571Y-73993428D01*
X107416428Y-73879142D01*
X107359285Y-73822000D01*
X107245000Y-73764857D01*
X106959285Y-73764857D01*
X106787857Y-73822000D01*
X105587857Y-74850571D02*
X105645000Y-74907714D01*
X105816428Y-74964857D01*
X105930714Y-74964857D01*
X106102142Y-74907714D01*
X106216428Y-74793428D01*
X106273571Y-74679142D01*
X106330714Y-74450571D01*
X106330714Y-74279142D01*
X106273571Y-74050571D01*
X106216428Y-73936285D01*
X106102142Y-73822000D01*
X105930714Y-73764857D01*
X105816428Y-73764857D01*
X105645000Y-73822000D01*
X105587857Y-73879142D01*
X104502142Y-74964857D02*
X105073571Y-74964857D01*
X105073571Y-73764857D01*
X107375142Y-77447714D02*
X107203714Y-77504857D01*
X106918000Y-77504857D01*
X106803714Y-77447714D01*
X106746571Y-77390571D01*
X106689428Y-77276285D01*
X106689428Y-77162000D01*
X106746571Y-77047714D01*
X106803714Y-76990571D01*
X106918000Y-76933428D01*
X107146571Y-76876285D01*
X107260857Y-76819142D01*
X107318000Y-76762000D01*
X107375142Y-76647714D01*
X107375142Y-76533428D01*
X107318000Y-76419142D01*
X107260857Y-76362000D01*
X107146571Y-76304857D01*
X106860857Y-76304857D01*
X106689428Y-76362000D01*
X106175142Y-77504857D02*
X106175142Y-76304857D01*
X105889428Y-76304857D01*
X105718000Y-76362000D01*
X105603714Y-76476285D01*
X105546571Y-76590571D01*
X105489428Y-76819142D01*
X105489428Y-76990571D01*
X105546571Y-77219142D01*
X105603714Y-77333428D01*
X105718000Y-77447714D01*
X105889428Y-77504857D01*
X106175142Y-77504857D01*
X105032285Y-77162000D02*
X104460857Y-77162000D01*
X105146571Y-77504857D02*
X104746571Y-76304857D01*
X104346571Y-77504857D01*
X110584857Y-82584857D02*
X110584857Y-81384857D01*
X110299142Y-81384857D01*
X110127714Y-81442000D01*
X110013428Y-81556285D01*
X109956285Y-81670571D01*
X109899142Y-81899142D01*
X109899142Y-82070571D01*
X109956285Y-82299142D01*
X110013428Y-82413428D01*
X110127714Y-82527714D01*
X110299142Y-82584857D01*
X110584857Y-82584857D01*
X109670571Y-82699142D02*
X108756285Y-82699142D01*
X108470571Y-81956285D02*
X108070571Y-81956285D01*
X107899142Y-82584857D02*
X108470571Y-82584857D01*
X108470571Y-81384857D01*
X107899142Y-81384857D01*
X107384857Y-82584857D02*
X107384857Y-81384857D01*
X106699142Y-82584857D01*
X106699142Y-81384857D01*
X105442000Y-82470571D02*
X105499142Y-82527714D01*
X105670571Y-82584857D01*
X105784857Y-82584857D01*
X105956285Y-82527714D01*
X106070571Y-82413428D01*
X106127714Y-82299142D01*
X106184857Y-82070571D01*
X106184857Y-81899142D01*
X106127714Y-81670571D01*
X106070571Y-81556285D01*
X105956285Y-81442000D01*
X105784857Y-81384857D01*
X105670571Y-81384857D01*
X105499142Y-81442000D01*
X105442000Y-81499142D01*
X104527714Y-81956285D02*
X104356285Y-82013428D01*
X104299142Y-82070571D01*
X104242000Y-82184857D01*
X104242000Y-82356285D01*
X104299142Y-82470571D01*
X104356285Y-82527714D01*
X104470571Y-82584857D01*
X104927714Y-82584857D01*
X104927714Y-81384857D01*
X104527714Y-81384857D01*
X104413428Y-81442000D01*
X104356285Y-81499142D01*
X104299142Y-81613428D01*
X104299142Y-81727714D01*
X104356285Y-81842000D01*
X104413428Y-81899142D01*
X104527714Y-81956285D01*
X104927714Y-81956285D01*
X110626142Y-84870857D02*
X110626142Y-83670857D01*
X110340428Y-83670857D01*
X110169000Y-83728000D01*
X110054714Y-83842285D01*
X109997571Y-83956571D01*
X109940428Y-84185142D01*
X109940428Y-84356571D01*
X109997571Y-84585142D01*
X110054714Y-84699428D01*
X110169000Y-84813714D01*
X110340428Y-84870857D01*
X110626142Y-84870857D01*
X109711857Y-84985142D02*
X108797571Y-84985142D01*
X108511857Y-84242285D02*
X108111857Y-84242285D01*
X107940428Y-84870857D02*
X108511857Y-84870857D01*
X108511857Y-83670857D01*
X107940428Y-83670857D01*
X107426142Y-84870857D02*
X107426142Y-83670857D01*
X106740428Y-84870857D01*
X106740428Y-83670857D01*
X105483285Y-84756571D02*
X105540428Y-84813714D01*
X105711857Y-84870857D01*
X105826142Y-84870857D01*
X105997571Y-84813714D01*
X106111857Y-84699428D01*
X106168999Y-84585142D01*
X106226142Y-84356571D01*
X106226142Y-84185142D01*
X106168999Y-83956571D01*
X106111857Y-83842285D01*
X105997571Y-83728000D01*
X105826142Y-83670857D01*
X105711857Y-83670857D01*
X105540428Y-83728000D01*
X105483285Y-83785142D01*
X105026142Y-84528000D02*
X104454714Y-84528000D01*
X105140428Y-84870857D02*
X104740428Y-83670857D01*
X104340428Y-84870857D01*
X110057857Y-69129285D02*
X109886428Y-69186428D01*
X109829285Y-69243571D01*
X109772142Y-69357857D01*
X109772142Y-69529285D01*
X109829285Y-69643571D01*
X109886428Y-69700714D01*
X110000714Y-69757857D01*
X110457857Y-69757857D01*
X110457857Y-68557857D01*
X110057857Y-68557857D01*
X109943571Y-68615000D01*
X109886428Y-68672142D01*
X109829285Y-68786428D01*
X109829285Y-68900714D01*
X109886428Y-69015000D01*
X109943571Y-69072142D01*
X110057857Y-69129285D01*
X110457857Y-69129285D01*
X109543571Y-69872142D02*
X108629285Y-69872142D01*
X108343571Y-69129285D02*
X107943571Y-69129285D01*
X107772142Y-69757857D02*
X108343571Y-69757857D01*
X108343571Y-68557857D01*
X107772142Y-68557857D01*
X107257857Y-69757857D02*
X107257857Y-68557857D01*
X106572142Y-69757857D01*
X106572142Y-68557857D01*
X105315000Y-69643571D02*
X105372142Y-69700714D01*
X105543571Y-69757857D01*
X105657857Y-69757857D01*
X105829285Y-69700714D01*
X105943571Y-69586428D01*
X106000714Y-69472142D01*
X106057857Y-69243571D01*
X106057857Y-69072142D01*
X106000714Y-68843571D01*
X105943571Y-68729285D01*
X105829285Y-68615000D01*
X105657857Y-68557857D01*
X105543571Y-68557857D01*
X105372142Y-68615000D01*
X105315000Y-68672142D01*
X104400714Y-69129285D02*
X104229285Y-69186428D01*
X104172142Y-69243571D01*
X104115000Y-69357857D01*
X104115000Y-69529285D01*
X104172142Y-69643571D01*
X104229285Y-69700714D01*
X104343571Y-69757857D01*
X104800714Y-69757857D01*
X104800714Y-68557857D01*
X104400714Y-68557857D01*
X104286428Y-68615000D01*
X104229285Y-68672142D01*
X104172142Y-68786428D01*
X104172142Y-68900714D01*
X104229285Y-69015000D01*
X104286428Y-69072142D01*
X104400714Y-69129285D01*
X104800714Y-69129285D01*
X110099142Y-66589285D02*
X109927714Y-66646428D01*
X109870571Y-66703571D01*
X109813428Y-66817857D01*
X109813428Y-66989285D01*
X109870571Y-67103571D01*
X109927714Y-67160714D01*
X110042000Y-67217857D01*
X110499142Y-67217857D01*
X110499142Y-66017857D01*
X110099142Y-66017857D01*
X109984857Y-66075000D01*
X109927714Y-66132142D01*
X109870571Y-66246428D01*
X109870571Y-66360714D01*
X109927714Y-66475000D01*
X109984857Y-66532142D01*
X110099142Y-66589285D01*
X110499142Y-66589285D01*
X109584857Y-67332142D02*
X108670571Y-67332142D01*
X108384857Y-66589285D02*
X107984857Y-66589285D01*
X107813428Y-67217857D02*
X108384857Y-67217857D01*
X108384857Y-66017857D01*
X107813428Y-66017857D01*
X107299142Y-67217857D02*
X107299142Y-66017857D01*
X106613428Y-67217857D01*
X106613428Y-66017857D01*
X105356285Y-67103571D02*
X105413428Y-67160714D01*
X105584857Y-67217857D01*
X105699142Y-67217857D01*
X105870571Y-67160714D01*
X105984857Y-67046428D01*
X106041999Y-66932142D01*
X106099142Y-66703571D01*
X106099142Y-66532142D01*
X106041999Y-66303571D01*
X105984857Y-66189285D01*
X105870571Y-66075000D01*
X105699142Y-66017857D01*
X105584857Y-66017857D01*
X105413428Y-66075000D01*
X105356285Y-66132142D01*
X104899142Y-66875000D02*
X104327714Y-66875000D01*
X105013428Y-67217857D02*
X104613428Y-66017857D01*
X104213428Y-67217857D01*
X86340571Y-61795000D02*
X85769142Y-61795000D01*
X86454857Y-62137857D02*
X86054857Y-60937857D01*
X85654857Y-62137857D01*
X85540571Y-62252142D02*
X84626285Y-62252142D01*
X84340571Y-61509285D02*
X83940571Y-61509285D01*
X83769142Y-62137857D02*
X84340571Y-62137857D01*
X84340571Y-60937857D01*
X83769142Y-60937857D01*
X83254857Y-62137857D02*
X83254857Y-60937857D01*
X82569142Y-62137857D01*
X82569142Y-60937857D01*
X81312000Y-62023571D02*
X81369142Y-62080714D01*
X81540571Y-62137857D01*
X81654857Y-62137857D01*
X81826285Y-62080714D01*
X81940571Y-61966428D01*
X81997714Y-61852142D01*
X82054857Y-61623571D01*
X82054857Y-61452142D01*
X81997714Y-61223571D01*
X81940571Y-61109285D01*
X81826285Y-60995000D01*
X81654857Y-60937857D01*
X81540571Y-60937857D01*
X81369142Y-60995000D01*
X81312000Y-61052142D01*
X80854857Y-61795000D02*
X80283428Y-61795000D01*
X80969142Y-62137857D02*
X80569142Y-60937857D01*
X80169142Y-62137857D01*
X86299285Y-64335000D02*
X85727857Y-64335000D01*
X86413571Y-64677857D02*
X86013571Y-63477857D01*
X85613571Y-64677857D01*
X85499285Y-64792142D02*
X84585000Y-64792142D01*
X84299285Y-64049285D02*
X83899285Y-64049285D01*
X83727857Y-64677857D02*
X84299285Y-64677857D01*
X84299285Y-63477857D01*
X83727857Y-63477857D01*
X83213571Y-64677857D02*
X83213571Y-63477857D01*
X82527857Y-64677857D01*
X82527857Y-63477857D01*
X81270714Y-64563571D02*
X81327857Y-64620714D01*
X81499285Y-64677857D01*
X81613571Y-64677857D01*
X81785000Y-64620714D01*
X81899285Y-64506428D01*
X81956428Y-64392142D01*
X82013571Y-64163571D01*
X82013571Y-63992142D01*
X81956428Y-63763571D01*
X81899285Y-63649285D01*
X81785000Y-63535000D01*
X81613571Y-63477857D01*
X81499285Y-63477857D01*
X81327857Y-63535000D01*
X81270714Y-63592142D01*
X80356428Y-64049285D02*
X80185000Y-64106428D01*
X80127857Y-64163571D01*
X80070714Y-64277857D01*
X80070714Y-64449285D01*
X80127857Y-64563571D01*
X80185000Y-64620714D01*
X80299285Y-64677857D01*
X80756428Y-64677857D01*
X80756428Y-63477857D01*
X80356428Y-63477857D01*
X80242142Y-63535000D01*
X80185000Y-63592142D01*
X80127857Y-63706428D01*
X80127857Y-63820714D01*
X80185000Y-63935000D01*
X80242142Y-63992142D01*
X80356428Y-64049285D01*
X80756428Y-64049285D01*
X85642142Y-82470571D02*
X85699285Y-82527714D01*
X85870714Y-82584857D01*
X85985000Y-82584857D01*
X86156428Y-82527714D01*
X86270714Y-82413428D01*
X86327857Y-82299142D01*
X86385000Y-82070571D01*
X86385000Y-81899142D01*
X86327857Y-81670571D01*
X86270714Y-81556285D01*
X86156428Y-81442000D01*
X85985000Y-81384857D01*
X85870714Y-81384857D01*
X85699285Y-81442000D01*
X85642142Y-81499142D01*
X85413571Y-82699142D02*
X84499285Y-82699142D01*
X84213571Y-81956285D02*
X83813571Y-81956285D01*
X83642142Y-82584857D02*
X84213571Y-82584857D01*
X84213571Y-81384857D01*
X83642142Y-81384857D01*
X83127857Y-82584857D02*
X83127857Y-81384857D01*
X82442142Y-82584857D01*
X82442142Y-81384857D01*
X81185000Y-82470571D02*
X81242142Y-82527714D01*
X81413571Y-82584857D01*
X81527857Y-82584857D01*
X81699285Y-82527714D01*
X81813571Y-82413428D01*
X81870714Y-82299142D01*
X81927857Y-82070571D01*
X81927857Y-81899142D01*
X81870714Y-81670571D01*
X81813571Y-81556285D01*
X81699285Y-81442000D01*
X81527857Y-81384857D01*
X81413571Y-81384857D01*
X81242142Y-81442000D01*
X81185000Y-81499142D01*
X80270714Y-81956285D02*
X80099285Y-82013428D01*
X80042142Y-82070571D01*
X79985000Y-82184857D01*
X79985000Y-82356285D01*
X80042142Y-82470571D01*
X80099285Y-82527714D01*
X80213571Y-82584857D01*
X80670714Y-82584857D01*
X80670714Y-81384857D01*
X80270714Y-81384857D01*
X80156428Y-81442000D01*
X80099285Y-81499142D01*
X80042142Y-81613428D01*
X80042142Y-81727714D01*
X80099285Y-81842000D01*
X80156428Y-81899142D01*
X80270714Y-81956285D01*
X80670714Y-81956285D01*
X85556428Y-79930571D02*
X85613571Y-79987714D01*
X85785000Y-80044857D01*
X85899285Y-80044857D01*
X86070714Y-79987714D01*
X86185000Y-79873428D01*
X86242142Y-79759142D01*
X86299285Y-79530571D01*
X86299285Y-79359142D01*
X86242142Y-79130571D01*
X86185000Y-79016285D01*
X86070714Y-78902000D01*
X85899285Y-78844857D01*
X85785000Y-78844857D01*
X85613571Y-78902000D01*
X85556428Y-78959142D01*
X85327857Y-80159142D02*
X84413571Y-80159142D01*
X84127857Y-79416285D02*
X83727857Y-79416285D01*
X83556428Y-80044857D02*
X84127857Y-80044857D01*
X84127857Y-78844857D01*
X83556428Y-78844857D01*
X83042142Y-80044857D02*
X83042142Y-78844857D01*
X82356428Y-80044857D01*
X82356428Y-78844857D01*
X81099285Y-79930571D02*
X81156428Y-79987714D01*
X81327857Y-80044857D01*
X81442142Y-80044857D01*
X81613571Y-79987714D01*
X81727857Y-79873428D01*
X81784999Y-79759142D01*
X81842142Y-79530571D01*
X81842142Y-79359142D01*
X81784999Y-79130571D01*
X81727857Y-79016285D01*
X81613571Y-78902000D01*
X81442142Y-78844857D01*
X81327857Y-78844857D01*
X81156428Y-78902000D01*
X81099285Y-78959142D01*
X80642142Y-79702000D02*
X80070714Y-79702000D01*
X80756428Y-80044857D02*
X80356428Y-78844857D01*
X79956428Y-80044857D01*
X110369000Y-64176285D02*
X110197571Y-64233428D01*
X110140428Y-64290571D01*
X110083285Y-64404857D01*
X110083285Y-64576285D01*
X110140428Y-64690571D01*
X110197571Y-64747714D01*
X110311857Y-64804857D01*
X110769000Y-64804857D01*
X110769000Y-63604857D01*
X110369000Y-63604857D01*
X110254714Y-63662000D01*
X110197571Y-63719142D01*
X110140428Y-63833428D01*
X110140428Y-63947714D01*
X110197571Y-64062000D01*
X110254714Y-64119142D01*
X110369000Y-64176285D01*
X110769000Y-64176285D01*
X109854714Y-64919142D02*
X108940428Y-64919142D01*
X108654714Y-64804857D02*
X108654714Y-63604857D01*
X108197571Y-63604857D01*
X108083285Y-63662000D01*
X108026142Y-63719142D01*
X107969000Y-63833428D01*
X107969000Y-64004857D01*
X108026142Y-64119142D01*
X108083285Y-64176285D01*
X108197571Y-64233428D01*
X108654714Y-64233428D01*
X107454714Y-63604857D02*
X107454714Y-64576285D01*
X107397571Y-64690571D01*
X107340428Y-64747714D01*
X107226142Y-64804857D01*
X106997571Y-64804857D01*
X106883285Y-64747714D01*
X106826142Y-64690571D01*
X106769000Y-64576285D01*
X106769000Y-63604857D01*
X106254714Y-64747714D02*
X106083285Y-64804857D01*
X105797571Y-64804857D01*
X105683285Y-64747714D01*
X105626142Y-64690571D01*
X105569000Y-64576285D01*
X105569000Y-64462000D01*
X105626142Y-64347714D01*
X105683285Y-64290571D01*
X105797571Y-64233428D01*
X106026142Y-64176285D01*
X106140428Y-64119142D01*
X106197571Y-64062000D01*
X106254714Y-63947714D01*
X106254714Y-63833428D01*
X106197571Y-63719142D01*
X106140428Y-63662000D01*
X106026142Y-63604857D01*
X105740428Y-63604857D01*
X105569000Y-63662000D01*
X105054714Y-64804857D02*
X105054714Y-63604857D01*
X105054714Y-64176285D02*
X104369000Y-64176285D01*
X104369000Y-64804857D02*
X104369000Y-63604857D01*
X86356428Y-59255000D02*
X85785000Y-59255000D01*
X86470714Y-59597857D02*
X86070714Y-58397857D01*
X85670714Y-59597857D01*
X85556428Y-59712142D02*
X84642142Y-59712142D01*
X84356428Y-59597857D02*
X84356428Y-58397857D01*
X83899285Y-58397857D01*
X83785000Y-58455000D01*
X83727857Y-58512142D01*
X83670714Y-58626428D01*
X83670714Y-58797857D01*
X83727857Y-58912142D01*
X83785000Y-58969285D01*
X83899285Y-59026428D01*
X84356428Y-59026428D01*
X83156428Y-58397857D02*
X83156428Y-59369285D01*
X83099285Y-59483571D01*
X83042142Y-59540714D01*
X82927857Y-59597857D01*
X82699285Y-59597857D01*
X82585000Y-59540714D01*
X82527857Y-59483571D01*
X82470714Y-59369285D01*
X82470714Y-58397857D01*
X81956428Y-59540714D02*
X81785000Y-59597857D01*
X81499285Y-59597857D01*
X81385000Y-59540714D01*
X81327857Y-59483571D01*
X81270714Y-59369285D01*
X81270714Y-59255000D01*
X81327857Y-59140714D01*
X81385000Y-59083571D01*
X81499285Y-59026428D01*
X81727857Y-58969285D01*
X81842142Y-58912142D01*
X81899285Y-58855000D01*
X81956428Y-58740714D01*
X81956428Y-58626428D01*
X81899285Y-58512142D01*
X81842142Y-58455000D01*
X81727857Y-58397857D01*
X81442142Y-58397857D01*
X81270714Y-58455000D01*
X80756428Y-59597857D02*
X80756428Y-58397857D01*
X80756428Y-58969285D02*
X80070714Y-58969285D01*
X80070714Y-59597857D02*
X80070714Y-58397857D01*
X85445285Y-77263571D02*
X85502428Y-77320714D01*
X85673857Y-77377857D01*
X85788142Y-77377857D01*
X85959571Y-77320714D01*
X86073857Y-77206428D01*
X86131000Y-77092142D01*
X86188142Y-76863571D01*
X86188142Y-76692142D01*
X86131000Y-76463571D01*
X86073857Y-76349285D01*
X85959571Y-76235000D01*
X85788142Y-76177857D01*
X85673857Y-76177857D01*
X85502428Y-76235000D01*
X85445285Y-76292142D01*
X85216714Y-77492142D02*
X84302428Y-77492142D01*
X84016714Y-77377857D02*
X84016714Y-76177857D01*
X83559571Y-76177857D01*
X83445285Y-76235000D01*
X83388142Y-76292142D01*
X83331000Y-76406428D01*
X83331000Y-76577857D01*
X83388142Y-76692142D01*
X83445285Y-76749285D01*
X83559571Y-76806428D01*
X84016714Y-76806428D01*
X82816714Y-76177857D02*
X82816714Y-77149285D01*
X82759571Y-77263571D01*
X82702428Y-77320714D01*
X82588142Y-77377857D01*
X82359571Y-77377857D01*
X82245285Y-77320714D01*
X82188142Y-77263571D01*
X82131000Y-77149285D01*
X82131000Y-76177857D01*
X81616714Y-77320714D02*
X81445285Y-77377857D01*
X81159571Y-77377857D01*
X81045285Y-77320714D01*
X80988142Y-77263571D01*
X80931000Y-77149285D01*
X80931000Y-77035000D01*
X80988142Y-76920714D01*
X81045285Y-76863571D01*
X81159571Y-76806428D01*
X81388142Y-76749285D01*
X81502428Y-76692142D01*
X81559571Y-76635000D01*
X81616714Y-76520714D01*
X81616714Y-76406428D01*
X81559571Y-76292142D01*
X81502428Y-76235000D01*
X81388142Y-76177857D01*
X81102428Y-76177857D01*
X80931000Y-76235000D01*
X80416714Y-77377857D02*
X80416714Y-76177857D01*
X80416714Y-76749285D02*
X79731000Y-76749285D01*
X79731000Y-77377857D02*
X79731000Y-76177857D01*
X110769000Y-87664857D02*
X110769000Y-86464857D01*
X110483285Y-86464857D01*
X110311857Y-86522000D01*
X110197571Y-86636285D01*
X110140428Y-86750571D01*
X110083285Y-86979142D01*
X110083285Y-87150571D01*
X110140428Y-87379142D01*
X110197571Y-87493428D01*
X110311857Y-87607714D01*
X110483285Y-87664857D01*
X110769000Y-87664857D01*
X109854714Y-87779142D02*
X108940428Y-87779142D01*
X108654714Y-87664857D02*
X108654714Y-86464857D01*
X108197571Y-86464857D01*
X108083285Y-86522000D01*
X108026142Y-86579142D01*
X107969000Y-86693428D01*
X107969000Y-86864857D01*
X108026142Y-86979142D01*
X108083285Y-87036285D01*
X108197571Y-87093428D01*
X108654714Y-87093428D01*
X107454714Y-86464857D02*
X107454714Y-87436285D01*
X107397571Y-87550571D01*
X107340428Y-87607714D01*
X107226142Y-87664857D01*
X106997571Y-87664857D01*
X106883285Y-87607714D01*
X106826142Y-87550571D01*
X106769000Y-87436285D01*
X106769000Y-86464857D01*
X106254714Y-87607714D02*
X106083285Y-87664857D01*
X105797571Y-87664857D01*
X105683285Y-87607714D01*
X105626142Y-87550571D01*
X105569000Y-87436285D01*
X105569000Y-87322000D01*
X105626142Y-87207714D01*
X105683285Y-87150571D01*
X105797571Y-87093428D01*
X106026142Y-87036285D01*
X106140428Y-86979142D01*
X106197571Y-86922000D01*
X106254714Y-86807714D01*
X106254714Y-86693428D01*
X106197571Y-86579142D01*
X106140428Y-86522000D01*
X106026142Y-86464857D01*
X105740428Y-86464857D01*
X105569000Y-86522000D01*
X105054714Y-87664857D02*
X105054714Y-86464857D01*
X105054714Y-87036285D02*
X104369000Y-87036285D01*
X104369000Y-87664857D02*
X104369000Y-86464857D01*
D11*
X121963285Y-102448285D02*
X122034714Y-102376857D01*
X122177571Y-102305428D01*
X122320428Y-102305428D01*
X122463285Y-102376857D01*
X122534714Y-102448285D01*
X122606142Y-102591142D01*
X122606142Y-102734000D01*
X122534714Y-102876857D01*
X122463285Y-102948285D01*
X122320428Y-103019714D01*
X122177571Y-103019714D01*
X122034714Y-102948285D01*
X121963285Y-102876857D01*
X121963285Y-102305428D02*
X121963285Y-102876857D01*
X121891857Y-102948285D01*
X121820428Y-102948285D01*
X121677571Y-102876857D01*
X121606142Y-102734000D01*
X121606142Y-102376857D01*
X121749000Y-102162571D01*
X121963285Y-102019714D01*
X122249000Y-101948285D01*
X122534714Y-102019714D01*
X122749000Y-102162571D01*
X122891857Y-102376857D01*
X122963285Y-102662571D01*
X122891857Y-102948285D01*
X122749000Y-103162571D01*
X122534714Y-103305428D01*
X122249000Y-103376857D01*
X121963285Y-103305428D01*
X121749000Y-103162571D01*
X120963285Y-102162571D02*
X120963285Y-103448285D01*
X121034714Y-103591142D01*
X121177571Y-103662571D01*
X121249000Y-103662571D01*
X120963285Y-101662571D02*
X121034714Y-101734000D01*
X120963285Y-101805428D01*
X120891857Y-101734000D01*
X120963285Y-101662571D01*
X120963285Y-101805428D01*
X119606142Y-102162571D02*
X119606142Y-103162571D01*
X120249000Y-102162571D02*
X120249000Y-102948285D01*
X120177571Y-103091142D01*
X120034714Y-103162571D01*
X119820428Y-103162571D01*
X119677571Y-103091142D01*
X119606142Y-103019714D01*
X118963285Y-103091142D02*
X118820428Y-103162571D01*
X118534714Y-103162571D01*
X118391857Y-103091142D01*
X118320428Y-102948285D01*
X118320428Y-102876857D01*
X118391857Y-102734000D01*
X118534714Y-102662571D01*
X118749000Y-102662571D01*
X118891857Y-102591142D01*
X118963285Y-102448285D01*
X118963285Y-102376857D01*
X118891857Y-102234000D01*
X118749000Y-102162571D01*
X118534714Y-102162571D01*
X118391857Y-102234000D01*
X117820428Y-101662571D02*
X116891857Y-101662571D01*
X117391857Y-102234000D01*
X117177571Y-102234000D01*
X117034714Y-102305428D01*
X116963285Y-102376857D01*
X116891857Y-102519714D01*
X116891857Y-102876857D01*
X116963285Y-103019714D01*
X117034714Y-103091142D01*
X117177571Y-103162571D01*
X117606142Y-103162571D01*
X117749000Y-103091142D01*
X117820428Y-103019714D01*
X115606142Y-102162571D02*
X115606142Y-103162571D01*
X115963285Y-101591142D02*
X116320428Y-102662571D01*
X115391857Y-102662571D01*
X114034714Y-103162571D02*
X114891857Y-103162571D01*
X114463285Y-103162571D02*
X114463285Y-101662571D01*
X114606142Y-101876857D01*
X114749000Y-102019714D01*
X114891857Y-102091142D01*
X122249000Y-104712571D02*
X122249000Y-105712571D01*
X122606142Y-104141142D02*
X122963285Y-105212571D01*
X122034714Y-105212571D01*
X119677571Y-105641142D02*
X119820428Y-105712571D01*
X120106142Y-105712571D01*
X120249000Y-105641142D01*
X120320428Y-105569714D01*
X120391857Y-105426857D01*
X120391857Y-104998285D01*
X120320428Y-104855428D01*
X120249000Y-104784000D01*
X120106142Y-104712571D01*
X119820428Y-104712571D01*
X119677571Y-104784000D01*
X119034714Y-105712571D02*
X119034714Y-104212571D01*
X118391857Y-105712571D02*
X118391857Y-104926857D01*
X118463285Y-104784000D01*
X118606142Y-104712571D01*
X118820428Y-104712571D01*
X118963285Y-104784000D01*
X119034714Y-104855428D01*
X117034714Y-105712571D02*
X117034714Y-104926857D01*
X117106142Y-104784000D01*
X117249000Y-104712571D01*
X117534714Y-104712571D01*
X117677571Y-104784000D01*
X117034714Y-105641142D02*
X117177571Y-105712571D01*
X117534714Y-105712571D01*
X117677571Y-105641142D01*
X117749000Y-105498285D01*
X117749000Y-105355428D01*
X117677571Y-105212571D01*
X117534714Y-105141142D01*
X117177571Y-105141142D01*
X117034714Y-105069714D01*
X116320428Y-104712571D02*
X116320428Y-105712571D01*
X116320428Y-104855428D02*
X116249000Y-104784000D01*
X116106142Y-104712571D01*
X115891857Y-104712571D01*
X115749000Y-104784000D01*
X115677571Y-104926857D01*
X115677571Y-105712571D01*
X114963285Y-104712571D02*
X114963285Y-105712571D01*
X114963285Y-104855428D02*
X114891857Y-104784000D01*
X114749000Y-104712571D01*
X114534714Y-104712571D01*
X114391857Y-104784000D01*
X114320428Y-104926857D01*
X114320428Y-105712571D01*
X113034714Y-105641142D02*
X113177571Y-105712571D01*
X113463285Y-105712571D01*
X113606142Y-105641142D01*
X113677571Y-105498285D01*
X113677571Y-104926857D01*
X113606142Y-104784000D01*
X113463285Y-104712571D01*
X113177571Y-104712571D01*
X113034714Y-104784000D01*
X112963285Y-104926857D01*
X112963285Y-105069714D01*
X113677571Y-105212571D01*
X112106142Y-105712571D02*
X112249000Y-105641142D01*
X112320428Y-105498285D01*
X112320428Y-104212571D01*
X110391857Y-105712571D02*
X110391857Y-104212571D01*
X110034714Y-104212571D01*
X109820428Y-104284000D01*
X109677571Y-104426857D01*
X109606142Y-104569714D01*
X109534714Y-104855428D01*
X109534714Y-105069714D01*
X109606142Y-105355428D01*
X109677571Y-105498285D01*
X109820428Y-105641142D01*
X110034714Y-105712571D01*
X110391857Y-105712571D01*
X108891857Y-105712571D02*
X108891857Y-104712571D01*
X108891857Y-104212571D02*
X108963285Y-104284000D01*
X108891857Y-104355428D01*
X108820428Y-104284000D01*
X108891857Y-104212571D01*
X108891857Y-104355428D01*
X107534714Y-104712571D02*
X107534714Y-105926857D01*
X107606142Y-106069714D01*
X107677571Y-106141142D01*
X107820428Y-106212571D01*
X108034714Y-106212571D01*
X108177571Y-106141142D01*
X107534714Y-105641142D02*
X107677571Y-105712571D01*
X107963285Y-105712571D01*
X108106142Y-105641142D01*
X108177571Y-105569714D01*
X108249000Y-105426857D01*
X108249000Y-104998285D01*
X108177571Y-104855428D01*
X108106142Y-104784000D01*
X107963285Y-104712571D01*
X107677571Y-104712571D01*
X107534714Y-104784000D01*
X106820428Y-105712571D02*
X106820428Y-104712571D01*
X106820428Y-104212571D02*
X106891857Y-104284000D01*
X106820428Y-104355428D01*
X106749000Y-104284000D01*
X106820428Y-104212571D01*
X106820428Y-104355428D01*
X106320428Y-104712571D02*
X105749000Y-104712571D01*
X106106142Y-104212571D02*
X106106142Y-105498285D01*
X106034714Y-105641142D01*
X105891857Y-105712571D01*
X105749000Y-105712571D01*
X104606142Y-105712571D02*
X104606142Y-104926857D01*
X104677571Y-104784000D01*
X104820428Y-104712571D01*
X105106142Y-104712571D01*
X105249000Y-104784000D01*
X104606142Y-105641142D02*
X104749000Y-105712571D01*
X105106142Y-105712571D01*
X105249000Y-105641142D01*
X105320428Y-105498285D01*
X105320428Y-105355428D01*
X105249000Y-105212571D01*
X105106142Y-105141142D01*
X104749000Y-105141142D01*
X104606142Y-105069714D01*
X103677571Y-105712571D02*
X103820428Y-105641142D01*
X103891857Y-105498285D01*
X103891857Y-104212571D01*
X101963285Y-105712571D02*
X101963285Y-104212571D01*
X101391857Y-104212571D01*
X101249000Y-104284000D01*
X101177571Y-104355428D01*
X101106142Y-104498285D01*
X101106142Y-104712571D01*
X101177571Y-104855428D01*
X101249000Y-104926857D01*
X101391857Y-104998285D01*
X101963285Y-104998285D01*
X100249000Y-105712571D02*
X100391857Y-105641142D01*
X100463285Y-105569714D01*
X100534714Y-105426857D01*
X100534714Y-104998285D01*
X100463285Y-104855428D01*
X100391857Y-104784000D01*
X100249000Y-104712571D01*
X100034714Y-104712571D01*
X99891857Y-104784000D01*
X99820428Y-104855428D01*
X99749000Y-104998285D01*
X99749000Y-105426857D01*
X99820428Y-105569714D01*
X99891857Y-105641142D01*
X100034714Y-105712571D01*
X100249000Y-105712571D01*
X99320428Y-104712571D02*
X98749000Y-104712571D01*
X99106142Y-104212571D02*
X99106142Y-105498285D01*
X99034714Y-105641142D01*
X98891857Y-105712571D01*
X98749000Y-105712571D01*
X97677571Y-105641142D02*
X97820428Y-105712571D01*
X98106142Y-105712571D01*
X98249000Y-105641142D01*
X98320428Y-105498285D01*
X98320428Y-104926857D01*
X98249000Y-104784000D01*
X98106142Y-104712571D01*
X97820428Y-104712571D01*
X97677571Y-104784000D01*
X97606142Y-104926857D01*
X97606142Y-105069714D01*
X98320428Y-105212571D01*
X96963285Y-104712571D02*
X96963285Y-105712571D01*
X96963285Y-104855428D02*
X96891857Y-104784000D01*
X96749000Y-104712571D01*
X96534714Y-104712571D01*
X96391857Y-104784000D01*
X96320428Y-104926857D01*
X96320428Y-105712571D01*
X95820428Y-104712571D02*
X95249000Y-104712571D01*
X95606142Y-104212571D02*
X95606142Y-105498285D01*
X95534714Y-105641142D01*
X95391857Y-105712571D01*
X95249000Y-105712571D01*
X94749000Y-105712571D02*
X94749000Y-104712571D01*
X94749000Y-104212571D02*
X94820428Y-104284000D01*
X94749000Y-104355428D01*
X94677571Y-104284000D01*
X94749000Y-104212571D01*
X94749000Y-104355428D01*
X93820428Y-105712571D02*
X93963285Y-105641142D01*
X94034714Y-105569714D01*
X94106142Y-105426857D01*
X94106142Y-104998285D01*
X94034714Y-104855428D01*
X93963285Y-104784000D01*
X93820428Y-104712571D01*
X93606142Y-104712571D01*
X93463285Y-104784000D01*
X93391857Y-104855428D01*
X93320428Y-104998285D01*
X93320428Y-105426857D01*
X93391857Y-105569714D01*
X93463285Y-105641142D01*
X93606142Y-105712571D01*
X93820428Y-105712571D01*
X92677571Y-105712571D02*
X92677571Y-104712571D01*
X92677571Y-104855428D02*
X92606142Y-104784000D01*
X92463285Y-104712571D01*
X92249000Y-104712571D01*
X92106142Y-104784000D01*
X92034714Y-104926857D01*
X92034714Y-105712571D01*
X92034714Y-104926857D02*
X91963285Y-104784000D01*
X91820428Y-104712571D01*
X91606142Y-104712571D01*
X91463285Y-104784000D01*
X91391857Y-104926857D01*
X91391857Y-105712571D01*
X90106142Y-105641142D02*
X90249000Y-105712571D01*
X90534714Y-105712571D01*
X90677571Y-105641142D01*
X90749000Y-105498285D01*
X90749000Y-104926857D01*
X90677571Y-104784000D01*
X90534714Y-104712571D01*
X90249000Y-104712571D01*
X90106142Y-104784000D01*
X90034714Y-104926857D01*
X90034714Y-105069714D01*
X90749000Y-105212571D01*
X89606142Y-104712571D02*
X89034714Y-104712571D01*
X89391857Y-104212571D02*
X89391857Y-105498285D01*
X89320428Y-105641142D01*
X89177571Y-105712571D01*
X89034714Y-105712571D01*
X87963285Y-105641142D02*
X88106142Y-105712571D01*
X88391857Y-105712571D01*
X88534714Y-105641142D01*
X88606142Y-105498285D01*
X88606142Y-104926857D01*
X88534714Y-104784000D01*
X88391857Y-104712571D01*
X88106142Y-104712571D01*
X87963285Y-104784000D01*
X87891857Y-104926857D01*
X87891857Y-105069714D01*
X88606142Y-105212571D01*
X87249000Y-105712571D02*
X87249000Y-104712571D01*
X87249000Y-104998285D02*
X87177571Y-104855428D01*
X87106142Y-104784000D01*
X86963285Y-104712571D01*
X86820428Y-104712571D01*
M02*
