G04 #@! TF.GenerationSoftware,KiCad,Pcbnew,5.0.2-bee76a0~70~ubuntu16.04.1*
G04 #@! TF.CreationDate,2019-04-05T13:04:55-07:00*
G04 #@! TF.ProjectId,volume_control_board,766f6c75-6d65-45f6-936f-6e74726f6c5f,rev?*
G04 #@! TF.SameCoordinates,Original*
G04 #@! TF.FileFunction,Copper,L2,Bot*
G04 #@! TF.FilePolarity,Positive*
%FSLAX46Y46*%
G04 Gerber Fmt 4.6, Leading zero omitted, Abs format (unit mm)*
G04 Created by KiCad (PCBNEW 5.0.2-bee76a0~70~ubuntu16.04.1) date Fri 05 Apr 2019 01:04:55 PM PDT*
%MOMM*%
%LPD*%
G01*
G04 APERTURE LIST*
G04 #@! TA.AperFunction,ComponentPad*
%ADD10O,1.350000X1.350000*%
G04 #@! TD*
G04 #@! TA.AperFunction,ComponentPad*
%ADD11R,1.350000X1.350000*%
G04 #@! TD*
G04 #@! TA.AperFunction,ComponentPad*
%ADD12O,1.700000X1.700000*%
G04 #@! TD*
G04 #@! TA.AperFunction,ComponentPad*
%ADD13R,1.700000X1.700000*%
G04 #@! TD*
G04 #@! TA.AperFunction,ComponentPad*
%ADD14C,2.000000*%
G04 #@! TD*
G04 #@! TA.AperFunction,ComponentPad*
%ADD15R,2.000000X3.200000*%
G04 #@! TD*
G04 #@! TA.AperFunction,ComponentPad*
%ADD16R,2.000000X2.000000*%
G04 #@! TD*
G04 #@! TA.AperFunction,ComponentPad*
%ADD17C,1.900000*%
G04 #@! TD*
G04 #@! TA.AperFunction,ComponentPad*
%ADD18C,1.600000*%
G04 #@! TD*
G04 #@! TA.AperFunction,ComponentPad*
%ADD19R,1.600000X1.600000*%
G04 #@! TD*
G04 #@! TA.AperFunction,ComponentPad*
%ADD20C,1.524000*%
G04 #@! TD*
G04 #@! TA.AperFunction,ViaPad*
%ADD21C,0.800000*%
G04 #@! TD*
G04 #@! TA.AperFunction,Conductor*
%ADD22C,0.250000*%
G04 #@! TD*
G04 #@! TA.AperFunction,Conductor*
%ADD23C,0.254000*%
G04 #@! TD*
G04 APERTURE END LIST*
D10*
G04 #@! TO.P,J5,3*
G04 #@! TO.N,GNDA*
X126746000Y-67500000D03*
G04 #@! TO.P,J5,2*
G04 #@! TO.N,FRONT_L_OUT*
X126746000Y-65500000D03*
D11*
G04 #@! TO.P,J5,1*
G04 #@! TO.N,LEFT_IN*
X126746000Y-63500000D03*
G04 #@! TD*
D12*
G04 #@! TO.P,J4,2*
G04 #@! TO.N,GND*
X111506000Y-56388000D03*
D13*
G04 #@! TO.P,J4,1*
G04 #@! TO.N,+5V*
X108966000Y-56388000D03*
G04 #@! TD*
D12*
G04 #@! TO.P,J1,8*
G04 #@! TO.N,GNDA*
X154051000Y-57912000D03*
G04 #@! TO.P,J1,7*
G04 #@! TO.N,REAR_R_OUT*
X151511000Y-57912000D03*
G04 #@! TO.P,J1,6*
G04 #@! TO.N,GNDA*
X148971000Y-57912000D03*
G04 #@! TO.P,J1,5*
G04 #@! TO.N,FRONT_R_OUT*
X146431000Y-57912000D03*
G04 #@! TO.P,J1,4*
G04 #@! TO.N,GNDA*
X143891000Y-57912000D03*
G04 #@! TO.P,J1,3*
G04 #@! TO.N,REAR_L_OUT*
X141351000Y-57912000D03*
G04 #@! TO.P,J1,2*
G04 #@! TO.N,GNDA*
X138811000Y-57912000D03*
D13*
G04 #@! TO.P,J1,1*
G04 #@! TO.N,FRONT_L_OUT*
X136271000Y-57912000D03*
G04 #@! TD*
D12*
G04 #@! TO.P,J6,2*
G04 #@! TO.N,Net-(J6-Pad2)*
X82677000Y-66675000D03*
D13*
G04 #@! TO.P,J6,1*
G04 #@! TO.N,Net-(J6-Pad1)*
X82677000Y-69215000D03*
G04 #@! TD*
D14*
G04 #@! TO.P,SW1,S1*
G04 #@! TO.N,Net-(J3-Pad2)*
X150194000Y-99082000D03*
G04 #@! TO.P,SW1,S2*
G04 #@! TO.N,GND*
X155194000Y-99082000D03*
D15*
G04 #@! TO.P,SW1,MP*
G04 #@! TO.N,N/C*
X147094000Y-92082000D03*
X158294000Y-92082000D03*
D14*
G04 #@! TO.P,SW1,B*
G04 #@! TO.N,Net-(J3-Pad3)*
X150194000Y-84582000D03*
G04 #@! TO.P,SW1,C*
G04 #@! TO.N,GND*
X152694000Y-84582000D03*
D16*
G04 #@! TO.P,SW1,A*
G04 #@! TO.N,Net-(J3-Pad4)*
X155194000Y-84582000D03*
G04 #@! TD*
D17*
G04 #@! TO.P,U1,52*
G04 #@! TO.N,Net-(U1-Pad52)*
X95377000Y-62865000D03*
X95377000Y-66675000D03*
D18*
G04 #@! TO.P,U1,51*
G04 #@! TO.N,Net-(U1-Pad51)*
X97917000Y-71755000D03*
G04 #@! TO.P,U1,50*
G04 #@! TO.N,Net-(U1-Pad50)*
X97917000Y-74295000D03*
G04 #@! TO.P,U1,49*
G04 #@! TO.N,Net-(U1-Pad49)*
X97917000Y-76835000D03*
G04 #@! TO.P,U1,48*
G04 #@! TO.N,Net-(U1-Pad48)*
X97917000Y-79375000D03*
G04 #@! TO.P,U1,47*
G04 #@! TO.N,Net-(U1-Pad47)*
X97917000Y-81915000D03*
G04 #@! TO.P,U1,46*
G04 #@! TO.N,Net-(U1-Pad46)*
X97917000Y-84455000D03*
G04 #@! TO.P,U1,45*
G04 #@! TO.N,Net-(U1-Pad45)*
X97917000Y-86995000D03*
G04 #@! TO.P,U1,44*
G04 #@! TO.N,Net-(U1-Pad44)*
X95377000Y-86995000D03*
G04 #@! TO.P,U1,43*
G04 #@! TO.N,Net-(U1-Pad43)*
X95377000Y-84455000D03*
G04 #@! TO.P,U1,42*
G04 #@! TO.N,Net-(U1-Pad42)*
X95377000Y-81915000D03*
G04 #@! TO.P,U1,41*
G04 #@! TO.N,Net-(U1-Pad41)*
X95377000Y-79375000D03*
G04 #@! TO.P,U1,40*
G04 #@! TO.N,Net-(U1-Pad40)*
X95377000Y-76835000D03*
G04 #@! TO.P,U1,39*
G04 #@! TO.N,Net-(U1-Pad39)*
X95377000Y-74295000D03*
G04 #@! TO.P,U1,38*
G04 #@! TO.N,Net-(U1-Pad38)*
X95377000Y-71755000D03*
D19*
G04 #@! TO.P,U1,1*
G04 #@! TO.N,GND*
X87757000Y-56515000D03*
D18*
G04 #@! TO.P,U1,2*
G04 #@! TO.N,PUSH_SELECT_1*
X87757000Y-59055000D03*
G04 #@! TO.P,U1,3*
G04 #@! TO.N,ENCODER_A_1*
X87757000Y-61595000D03*
G04 #@! TO.P,U1,4*
G04 #@! TO.N,ENCODER_B_1*
X87757000Y-64135000D03*
G04 #@! TO.P,U1,5*
G04 #@! TO.N,Net-(J6-Pad2)*
X87757000Y-66675000D03*
G04 #@! TO.P,U1,6*
G04 #@! TO.N,Net-(J6-Pad1)*
X87757000Y-69215000D03*
G04 #@! TO.P,U1,7*
G04 #@! TO.N,Net-(U1-Pad7)*
X87757000Y-71755000D03*
G04 #@! TO.P,U1,8*
G04 #@! TO.N,Net-(U1-Pad8)*
X87757000Y-74295000D03*
G04 #@! TO.P,U1,9*
G04 #@! TO.N,PUSH_SELECT_3*
X87757000Y-76835000D03*
G04 #@! TO.P,U1,10*
G04 #@! TO.N,ENCODER_A_3*
X87757000Y-79375000D03*
G04 #@! TO.P,U1,11*
G04 #@! TO.N,ENCODER_B_3*
X87757000Y-81915000D03*
G04 #@! TO.P,U1,12*
G04 #@! TO.N,Net-(U1-Pad12)*
X87757000Y-84455000D03*
G04 #@! TO.P,U1,13*
G04 #@! TO.N,Net-(U1-Pad13)*
X87757000Y-86995000D03*
G04 #@! TO.P,U1,37*
G04 #@! TO.N,Net-(U1-Pad37)*
X100457000Y-69215000D03*
G04 #@! TO.P,U1,36*
G04 #@! TO.N,Net-(U1-Pad36)*
X100457000Y-66675000D03*
G04 #@! TO.P,U1,35*
G04 #@! TO.N,Net-(U1-Pad35)*
X100457000Y-64135000D03*
G04 #@! TO.P,U1,34*
G04 #@! TO.N,Net-(U1-Pad34)*
X100457000Y-59055000D03*
G04 #@! TO.P,U1,33*
G04 #@! TO.N,+5V*
X102997000Y-56515000D03*
G04 #@! TO.P,U1,32*
G04 #@! TO.N,Net-(U1-Pad32)*
X102997000Y-59055000D03*
G04 #@! TO.P,U1,31*
G04 #@! TO.N,+3V3*
X102997000Y-61595000D03*
G04 #@! TO.P,U1,30*
G04 #@! TO.N,PUSH_SELECT_2*
X102997000Y-64135000D03*
G04 #@! TO.P,U1,29*
G04 #@! TO.N,ENCODER_A_2*
X102997000Y-66675000D03*
G04 #@! TO.P,U1,28*
G04 #@! TO.N,ENCODER_B_2*
X102997000Y-69215000D03*
G04 #@! TO.P,U1,27*
G04 #@! TO.N,Net-(U1-Pad27)*
X102997000Y-71755000D03*
G04 #@! TO.P,U1,26*
G04 #@! TO.N,SCL*
X102997000Y-74295000D03*
G04 #@! TO.P,U1,25*
G04 #@! TO.N,SDA*
X102997000Y-76835000D03*
G04 #@! TO.P,U1,24*
G04 #@! TO.N,Net-(U1-Pad24)*
X102997000Y-79375000D03*
G04 #@! TO.P,U1,23*
G04 #@! TO.N,ENCODER_B_4*
X102997000Y-81915000D03*
G04 #@! TO.P,U1,22*
G04 #@! TO.N,ENCODER_A_4*
X102997000Y-84455000D03*
G04 #@! TO.P,U1,21*
G04 #@! TO.N,PUSH_SELECT_4*
X102997000Y-86995000D03*
G04 #@! TO.P,U1,14*
G04 #@! TO.N,Net-(U1-Pad14)*
X87757000Y-89535000D03*
G04 #@! TO.P,U1,15*
G04 #@! TO.N,Net-(U1-Pad15)*
X90297000Y-89535000D03*
G04 #@! TO.P,U1,16*
G04 #@! TO.N,+3V3*
X92837000Y-89535000D03*
G04 #@! TO.P,U1,20*
G04 #@! TO.N,Net-(U1-Pad20)*
X102997000Y-89535000D03*
G04 #@! TO.P,U1,19*
G04 #@! TO.N,Net-(U1-Pad19)*
X100457000Y-89535000D03*
G04 #@! TO.P,U1,18*
G04 #@! TO.N,Net-(U1-Pad18)*
X97917000Y-89535000D03*
G04 #@! TO.P,U1,17*
G04 #@! TO.N,GND*
X95377000Y-89535000D03*
G04 #@! TD*
D20*
G04 #@! TO.P,J7,4*
G04 #@! TO.N,Net-(J3-Pad4)*
X142113000Y-93757000D03*
G04 #@! TO.P,J7,3*
G04 #@! TO.N,Net-(J3-Pad3)*
X142113000Y-91757000D03*
G04 #@! TO.P,J7,2*
G04 #@! TO.N,Net-(J3-Pad2)*
X142113000Y-89757000D03*
G04 #@! TO.P,J7,1*
G04 #@! TO.N,GND*
X142113000Y-87757000D03*
G04 #@! TD*
G04 #@! TO.P,J3,4*
G04 #@! TO.N,Net-(J3-Pad4)*
X136271000Y-93757000D03*
G04 #@! TO.P,J3,3*
G04 #@! TO.N,Net-(J3-Pad3)*
X136271000Y-91757000D03*
G04 #@! TO.P,J3,2*
G04 #@! TO.N,Net-(J3-Pad2)*
X136271000Y-89757000D03*
G04 #@! TO.P,J3,1*
G04 #@! TO.N,GND*
X136271000Y-87757000D03*
G04 #@! TD*
D10*
G04 #@! TO.P,J8,3*
G04 #@! TO.N,GNDA*
X133604000Y-71596000D03*
G04 #@! TO.P,J8,2*
G04 #@! TO.N,REAR_L_OUT*
X133604000Y-69596000D03*
D11*
G04 #@! TO.P,J8,1*
G04 #@! TO.N,LEFT_IN*
X133604000Y-67596000D03*
G04 #@! TD*
G04 #@! TO.P,J9,1*
G04 #@! TO.N,RIGHT_IN*
X126746000Y-73946000D03*
D10*
G04 #@! TO.P,J9,2*
G04 #@! TO.N,FRONT_R_OUT*
X126746000Y-75946000D03*
G04 #@! TO.P,J9,3*
G04 #@! TO.N,GNDA*
X126746000Y-77946000D03*
G04 #@! TD*
G04 #@! TO.P,J10,3*
G04 #@! TO.N,GNDA*
X133731000Y-82772000D03*
G04 #@! TO.P,J10,2*
G04 #@! TO.N,REAR_R_OUT*
X133731000Y-80772000D03*
D11*
G04 #@! TO.P,J10,1*
G04 #@! TO.N,RIGHT_IN*
X133731000Y-78772000D03*
G04 #@! TD*
D21*
G04 #@! TO.N,GND*
X126746000Y-93091000D03*
X110744000Y-94742000D03*
X119761000Y-62865000D03*
X124079000Y-59182000D03*
X112649000Y-60579000D03*
X118110000Y-82169000D03*
X120142000Y-86233000D03*
G04 #@! TO.N,PUSH_SELECT_1*
X110236000Y-85217000D03*
G04 #@! TO.N,PUSH_SELECT_2*
X113284000Y-87249000D03*
G04 #@! TO.N,PUSH_SELECT_4*
X113284000Y-91567000D03*
X107696000Y-89423987D03*
G04 #@! TO.N,ENCODER_A_1*
X102997000Y-94234000D03*
G04 #@! TO.N,ENCODER_A_2*
X106172000Y-79248000D03*
X105537000Y-96139000D03*
G04 #@! TO.N,ENCODER_A_4*
X105664000Y-99949000D03*
G04 #@! TO.N,ENCODER_B_1*
X109347000Y-90678000D03*
X119253000Y-92202000D03*
G04 #@! TO.N,ENCODER_B_2*
X114681000Y-82550000D03*
X122047000Y-94107000D03*
G04 #@! TO.N,ENCODER_B_4*
X121666000Y-98171000D03*
X107696000Y-90805000D03*
G04 #@! TO.N,+3V3*
X92837000Y-96139000D03*
X117602000Y-99695000D03*
X120523000Y-98933000D03*
X131699000Y-97790000D03*
X131699000Y-91948000D03*
G04 #@! TO.N,GNDA*
X123063000Y-69596000D03*
X126238000Y-70358000D03*
X110109000Y-64389000D03*
X107569000Y-69215000D03*
G04 #@! TO.N,REAR_R_OUT*
X108839000Y-69977000D03*
G04 #@! TO.N,FRONT_R_OUT*
X111125000Y-65659000D03*
G04 #@! TO.N,REAR_L_OUT*
X128270000Y-70231000D03*
G04 #@! TO.N,FRONT_L_OUT*
X121412000Y-69977000D03*
G04 #@! TO.N,RIGHT_IN*
X111760000Y-64135000D03*
X109220004Y-68326000D03*
G04 #@! TO.N,LEFT_IN*
X121412000Y-68453000D03*
X127000000Y-69342000D03*
G04 #@! TO.N,Net-(J3-Pad2)*
X126365000Y-87503000D03*
G04 #@! TO.N,ENCODER_B_2*
X110236000Y-81661000D03*
G04 #@! TO.N,SDA*
X109347000Y-78105000D03*
X111633000Y-75819000D03*
G04 #@! TO.N,SCL*
X109347000Y-65659000D03*
X106807000Y-72009000D03*
G04 #@! TD*
D22*
G04 #@! TO.N,GND*
X155194000Y-99082000D02*
X155194000Y-90932000D01*
X152694000Y-88432000D02*
X152694000Y-84582000D01*
X155194000Y-90932000D02*
X152694000Y-88432000D01*
X152694000Y-84582000D02*
X152694000Y-86955000D01*
X142915000Y-86955000D02*
X142113000Y-87757000D01*
X152694000Y-86955000D02*
X142915000Y-86955000D01*
G04 #@! TO.N,Net-(J3-Pad2)*
X142113000Y-89757000D02*
X145034000Y-92678000D01*
X145034000Y-93922000D02*
X150194000Y-99082000D01*
X145034000Y-92678000D02*
X145034000Y-93922000D01*
G04 #@! TO.N,PUSH_SELECT_4*
X108261685Y-89423987D02*
X107696000Y-89423987D01*
X113284000Y-91567000D02*
X111140987Y-89423987D01*
X111140987Y-89423987D02*
X108261685Y-89423987D01*
G04 #@! TO.N,ENCODER_A_1*
X88556999Y-62394999D02*
X89953999Y-62394999D01*
X87757000Y-61595000D02*
X88556999Y-62394999D01*
X91116990Y-63557990D02*
X91116990Y-68764990D01*
X89953999Y-62394999D02*
X91116990Y-63557990D01*
X92525010Y-70173010D02*
X92777600Y-70173010D01*
X91116990Y-68764990D02*
X92525010Y-70173010D01*
X92777600Y-70173010D02*
X98367010Y-70173010D01*
X100641990Y-72447990D02*
X100641990Y-82607990D01*
X98367010Y-70173010D02*
X100641990Y-72447990D01*
X100641990Y-82607990D02*
X101219000Y-83185000D01*
X101219000Y-83185000D02*
X105410000Y-83185000D01*
X105410000Y-83185000D02*
X106426000Y-84201000D01*
X106426000Y-90805000D02*
X102997000Y-94234000D01*
X106426000Y-84201000D02*
X106426000Y-90805000D01*
G04 #@! TO.N,ENCODER_A_2*
X106876009Y-79952009D02*
X106876009Y-94799991D01*
X106876009Y-94799991D02*
X105537000Y-96139000D01*
X106172000Y-79248000D02*
X106876009Y-79952009D01*
G04 #@! TO.N,ENCODER_A_4*
X104128370Y-84455000D02*
X105664000Y-85990630D01*
X102997000Y-84455000D02*
X104128370Y-84455000D01*
X105664000Y-85990630D02*
X105664000Y-90297000D01*
X102271999Y-96556999D02*
X105664000Y-99949000D01*
X102271999Y-93689001D02*
X102271999Y-96556999D01*
X105664000Y-90297000D02*
X102271999Y-93689001D01*
G04 #@! TO.N,ENCODER_B_1*
X109746999Y-91077999D02*
X110127999Y-91077999D01*
X109347000Y-90678000D02*
X109746999Y-91077999D01*
X110127999Y-91077999D02*
X112141000Y-93091000D01*
X118364000Y-93091000D02*
X119253000Y-92202000D01*
X112141000Y-93091000D02*
X118364000Y-93091000D01*
G04 #@! TO.N,ENCODER_B_4*
X108095999Y-91204999D02*
X107696000Y-90805000D01*
X108349997Y-91204999D02*
X108095999Y-91204999D01*
X115315998Y-98171000D02*
X108349997Y-91204999D01*
X121666000Y-98171000D02*
X115315998Y-98171000D01*
G04 #@! TO.N,+3V3*
X92837000Y-89535000D02*
X92837000Y-96139000D01*
X119761000Y-99695000D02*
X120523000Y-98933000D01*
X117602000Y-99695000D02*
X119761000Y-99695000D01*
X131699000Y-97790000D02*
X131699000Y-91948000D01*
G04 #@! TO.N,Net-(U1-Pad52)*
X95377000Y-62865000D02*
X95377000Y-66675000D01*
G04 #@! TO.N,GNDA*
X125159000Y-67500000D02*
X126746000Y-67500000D01*
X123063000Y-69596000D02*
X125159000Y-67500000D01*
X128041685Y-71596000D02*
X133604000Y-71596000D01*
X126803685Y-70358000D02*
X128041685Y-71596000D01*
X126238000Y-70358000D02*
X126803685Y-70358000D01*
X123984000Y-75184000D02*
X126746000Y-77946000D01*
X110109000Y-64389000D02*
X110363000Y-64643000D01*
X110363000Y-64643000D02*
X110363000Y-70995820D01*
X110363000Y-70995820D02*
X114551180Y-75184000D01*
X114551180Y-75184000D02*
X123984000Y-75184000D01*
X133056001Y-82097001D02*
X133731000Y-82772000D01*
X119306591Y-82097001D02*
X133056001Y-82097001D01*
X107569000Y-70359410D02*
X119306591Y-82097001D01*
X107569000Y-69215000D02*
X107569000Y-70359410D01*
G04 #@! TO.N,REAR_R_OUT*
X151511000Y-62992000D02*
X151511000Y-57912000D01*
X133731000Y-80772000D02*
X151511000Y-62992000D01*
X109169993Y-70873678D02*
X109169993Y-71323993D01*
X108839000Y-70542685D02*
X109169993Y-70873678D01*
X108839000Y-69977000D02*
X108839000Y-70542685D01*
X118618000Y-80772000D02*
X133731000Y-80772000D01*
X109169993Y-71323993D02*
X118618000Y-80772000D01*
G04 #@! TO.N,FRONT_R_OUT*
X127420999Y-75271001D02*
X133897999Y-75271001D01*
X126746000Y-75946000D02*
X127420999Y-75271001D01*
X146431000Y-62738000D02*
X146431000Y-57912000D01*
X133897999Y-75271001D02*
X146431000Y-62738000D01*
X111125000Y-71121410D02*
X114679590Y-74676000D01*
X111125000Y-65659000D02*
X111125000Y-71121410D01*
X125476000Y-74676000D02*
X126746000Y-75946000D01*
X114679590Y-74676000D02*
X125476000Y-74676000D01*
G04 #@! TO.N,REAR_L_OUT*
X141351000Y-59114081D02*
X141351000Y-57912000D01*
X141351000Y-62803594D02*
X141351000Y-59114081D01*
X134558594Y-69596000D02*
X141351000Y-62803594D01*
X133604000Y-69596000D02*
X134558594Y-69596000D01*
X132014406Y-70231000D02*
X128270000Y-70231000D01*
X133604000Y-69596000D02*
X132649406Y-69596000D01*
X132649406Y-69596000D02*
X132014406Y-70231000D01*
G04 #@! TO.N,FRONT_L_OUT*
X129783000Y-65500000D02*
X136271000Y-59012000D01*
X136271000Y-59012000D02*
X136271000Y-57912000D01*
X126746000Y-65500000D02*
X129783000Y-65500000D01*
X125889000Y-65500000D02*
X126746000Y-65500000D01*
X121412000Y-69977000D02*
X125889000Y-65500000D01*
G04 #@! TO.N,RIGHT_IN*
X111760000Y-65220998D02*
X111887000Y-65347998D01*
X111760000Y-64135000D02*
X111760000Y-65220998D01*
X111887000Y-65347998D02*
X111887000Y-71247000D01*
X114586000Y-73946000D02*
X126746000Y-73946000D01*
X111887000Y-71247000D02*
X114586000Y-73946000D01*
X109620003Y-70889233D02*
X118486770Y-79756000D01*
X109620003Y-68725999D02*
X109620003Y-70889233D01*
X109220004Y-68326000D02*
X109620003Y-68725999D01*
X132806000Y-78772000D02*
X133731000Y-78772000D01*
X131822000Y-79756000D02*
X132806000Y-78772000D01*
X118486770Y-79756000D02*
X131822000Y-79756000D01*
G04 #@! TO.N,LEFT_IN*
X126365000Y-63500000D02*
X126746000Y-63500000D01*
X121412000Y-68453000D02*
X126365000Y-63500000D01*
X131858000Y-69342000D02*
X133604000Y-67596000D01*
X127000000Y-69342000D02*
X131858000Y-69342000D01*
G04 #@! TO.N,Net-(J3-Pad2)*
X128619000Y-89757000D02*
X136271000Y-89757000D01*
X126365000Y-87503000D02*
X128619000Y-89757000D01*
G04 #@! TO.N,PUSH_SELECT_1*
X109220000Y-84201000D02*
X110236000Y-85217000D01*
X92964000Y-69723000D02*
X98679000Y-69723000D01*
X91567000Y-68326000D02*
X92964000Y-69723000D01*
X87757000Y-59055000D02*
X91567000Y-62865000D01*
X106299000Y-78105000D02*
X109220000Y-81026000D01*
X91567000Y-62865000D02*
X91567000Y-68326000D01*
X98679000Y-69723000D02*
X101092000Y-72136000D01*
X101092000Y-72136000D02*
X101092000Y-77343000D01*
X101092000Y-77343000D02*
X101854000Y-78105000D01*
X109220000Y-81026000D02*
X109220000Y-84201000D01*
X101854000Y-78105000D02*
X106299000Y-78105000D01*
G04 #@! TO.N,PUSH_SELECT_2*
X105791000Y-65913000D02*
X105791000Y-75819000D01*
X113284000Y-83312000D02*
X113284000Y-87249000D01*
X104812999Y-64934999D02*
X105791000Y-65913000D01*
X102997000Y-64135000D02*
X103796999Y-64934999D01*
X105791000Y-75819000D02*
X113284000Y-83312000D01*
X103796999Y-64934999D02*
X104812999Y-64934999D01*
G04 #@! TO.N,ENCODER_B_2*
X102997000Y-69215000D02*
X102997000Y-69469000D01*
X122047000Y-86487000D02*
X122047000Y-94107000D01*
X114681000Y-82550000D02*
X115246685Y-82550000D01*
X115246685Y-82550000D02*
X116897685Y-84201000D01*
X119761000Y-84201000D02*
X122047000Y-86487000D01*
X116897685Y-84201000D02*
X119761000Y-84201000D01*
X110236000Y-80968315D02*
X110236000Y-81095315D01*
X104902000Y-71120000D02*
X104902000Y-75634315D01*
X104902000Y-75634315D02*
X110236000Y-80968315D01*
X102997000Y-69215000D02*
X104902000Y-71120000D01*
X110236000Y-81095315D02*
X110236000Y-81661000D01*
G04 #@! TO.N,SDA*
X109347000Y-78105000D02*
X111633000Y-75819000D01*
G04 #@! TO.N,SCL*
X108947001Y-66058999D02*
X107550001Y-66058999D01*
X109347000Y-65659000D02*
X108947001Y-66058999D01*
X106807000Y-66802000D02*
X106807000Y-72009000D01*
X107550001Y-66058999D02*
X106807000Y-66802000D01*
G04 #@! TD*
D23*
G04 #@! TO.N,GND*
G36*
X107658191Y-55080191D02*
X107517843Y-55290235D01*
X107468560Y-55538000D01*
X107468560Y-57238000D01*
X107517843Y-57485765D01*
X107658191Y-57695809D01*
X107868235Y-57836157D01*
X108116000Y-57885440D01*
X109816000Y-57885440D01*
X110063765Y-57836157D01*
X110273809Y-57695809D01*
X110414157Y-57485765D01*
X110434739Y-57382292D01*
X110739076Y-57659645D01*
X111149110Y-57829476D01*
X111379000Y-57708155D01*
X111379000Y-56515000D01*
X111633000Y-56515000D01*
X111633000Y-57708155D01*
X111862890Y-57829476D01*
X112272924Y-57659645D01*
X112701183Y-57269358D01*
X112947486Y-56744892D01*
X112826819Y-56515000D01*
X111633000Y-56515000D01*
X111379000Y-56515000D01*
X111359000Y-56515000D01*
X111359000Y-56261000D01*
X111379000Y-56261000D01*
X111379000Y-56241000D01*
X111633000Y-56241000D01*
X111633000Y-56261000D01*
X112826819Y-56261000D01*
X112947486Y-56031108D01*
X112701183Y-55506642D01*
X112272924Y-55116355D01*
X111905083Y-54964000D01*
X120421277Y-54964000D01*
X119921201Y-55171138D01*
X119433138Y-55659201D01*
X119169000Y-56296887D01*
X119169000Y-56987113D01*
X119433138Y-57624799D01*
X119921201Y-58112862D01*
X120558887Y-58377000D01*
X121249113Y-58377000D01*
X121886799Y-58112862D01*
X122374862Y-57624799D01*
X122639000Y-56987113D01*
X122639000Y-56296887D01*
X122374862Y-55659201D01*
X121886799Y-55171138D01*
X121386723Y-54964000D01*
X124587000Y-54964000D01*
X124587000Y-64203198D01*
X121372199Y-67418000D01*
X121206126Y-67418000D01*
X120825720Y-67575569D01*
X120534569Y-67866720D01*
X120377000Y-68247126D01*
X120377000Y-68658874D01*
X120534569Y-69039280D01*
X120710289Y-69215000D01*
X120534569Y-69390720D01*
X120377000Y-69771126D01*
X120377000Y-70182874D01*
X120534569Y-70563280D01*
X120825720Y-70854431D01*
X121206126Y-71012000D01*
X121617874Y-71012000D01*
X121998280Y-70854431D01*
X122289431Y-70563280D01*
X122370603Y-70367314D01*
X122476720Y-70473431D01*
X122857126Y-70631000D01*
X123268874Y-70631000D01*
X123649280Y-70473431D01*
X123940431Y-70182280D01*
X124098000Y-69801874D01*
X124098000Y-69635801D01*
X124587000Y-69146801D01*
X124587000Y-73186000D01*
X114900803Y-73186000D01*
X112647000Y-70932199D01*
X112647000Y-65422844D01*
X112661888Y-65347997D01*
X112647000Y-65273150D01*
X112647000Y-65273146D01*
X112602904Y-65051461D01*
X112520000Y-64927387D01*
X112520000Y-64838711D01*
X112637431Y-64721280D01*
X112795000Y-64340874D01*
X112795000Y-63929126D01*
X112637431Y-63548720D01*
X112346280Y-63257569D01*
X111965874Y-63100000D01*
X111554126Y-63100000D01*
X111173720Y-63257569D01*
X110882569Y-63548720D01*
X110838595Y-63654884D01*
X110695280Y-63511569D01*
X110314874Y-63354000D01*
X109903126Y-63354000D01*
X109522720Y-63511569D01*
X109231569Y-63802720D01*
X109074000Y-64183126D01*
X109074000Y-64594874D01*
X109094128Y-64643467D01*
X108760720Y-64781569D01*
X108469569Y-65072720D01*
X108375841Y-65298999D01*
X107624847Y-65298999D01*
X107550000Y-65284111D01*
X107475153Y-65298999D01*
X107475149Y-65298999D01*
X107253464Y-65343095D01*
X107002072Y-65511070D01*
X106959672Y-65574526D01*
X106552154Y-65982045D01*
X106565888Y-65912999D01*
X106551000Y-65838152D01*
X106551000Y-65838148D01*
X106506904Y-65616463D01*
X106338929Y-65365071D01*
X106275473Y-65322671D01*
X105403330Y-64450529D01*
X105360928Y-64387070D01*
X105109536Y-64219095D01*
X104887851Y-64174999D01*
X104887846Y-64174999D01*
X104812999Y-64160111D01*
X104738152Y-64174999D01*
X104432000Y-64174999D01*
X104432000Y-63849561D01*
X104213534Y-63322138D01*
X103809862Y-62918466D01*
X103680784Y-62865000D01*
X103809862Y-62811534D01*
X104213534Y-62407862D01*
X104432000Y-61880439D01*
X104432000Y-61309561D01*
X104213534Y-60782138D01*
X103809862Y-60378466D01*
X103680784Y-60325000D01*
X103809862Y-60271534D01*
X104213534Y-59867862D01*
X104432000Y-59340439D01*
X104432000Y-58769561D01*
X104213534Y-58242138D01*
X103809862Y-57838466D01*
X103680784Y-57785000D01*
X103809862Y-57731534D01*
X104213534Y-57327862D01*
X104432000Y-56800439D01*
X104432000Y-56229561D01*
X104213534Y-55702138D01*
X103809862Y-55298466D01*
X103282439Y-55080000D01*
X102862462Y-55080000D01*
X102860333Y-55069399D01*
X102832803Y-55028197D01*
X102791601Y-55000667D01*
X102743000Y-54991000D01*
X87884000Y-54991000D01*
X87835832Y-55000489D01*
X87794529Y-55027867D01*
X87766847Y-55068967D01*
X87757001Y-55117531D01*
X87751302Y-56662000D01*
X87630000Y-56662000D01*
X87630000Y-56642000D01*
X86480750Y-56642000D01*
X86322000Y-56800750D01*
X86322000Y-57441309D01*
X86418673Y-57674698D01*
X86597301Y-57853327D01*
X86830690Y-57950000D01*
X86832604Y-57950000D01*
X86540466Y-58242138D01*
X86322000Y-58769561D01*
X86322000Y-59340439D01*
X86540466Y-59867862D01*
X86944138Y-60271534D01*
X87073216Y-60325000D01*
X86944138Y-60378466D01*
X86540466Y-60782138D01*
X86322000Y-61309561D01*
X86322000Y-61880439D01*
X86540466Y-62407862D01*
X86944138Y-62811534D01*
X87073216Y-62865000D01*
X86944138Y-62918466D01*
X86540466Y-63322138D01*
X86322000Y-63849561D01*
X86322000Y-64420439D01*
X86540466Y-64947862D01*
X86944138Y-65351534D01*
X87073216Y-65405000D01*
X86944138Y-65458466D01*
X86540466Y-65862138D01*
X86322000Y-66389561D01*
X86322000Y-66960439D01*
X86540466Y-67487862D01*
X86944138Y-67891534D01*
X87073216Y-67945000D01*
X86944138Y-67998466D01*
X86540466Y-68402138D01*
X86322000Y-68929561D01*
X86322000Y-69500439D01*
X86540466Y-70027862D01*
X86944138Y-70431534D01*
X87073216Y-70485000D01*
X86944138Y-70538466D01*
X86540466Y-70942138D01*
X86322000Y-71469561D01*
X86322000Y-72040439D01*
X86540466Y-72567862D01*
X86944138Y-72971534D01*
X87073216Y-73025000D01*
X86944138Y-73078466D01*
X86540466Y-73482138D01*
X86322000Y-74009561D01*
X86322000Y-74580439D01*
X86540466Y-75107862D01*
X86944138Y-75511534D01*
X87073216Y-75565000D01*
X86944138Y-75618466D01*
X86540466Y-76022138D01*
X86322000Y-76549561D01*
X86322000Y-77120439D01*
X86540466Y-77647862D01*
X86944138Y-78051534D01*
X87073216Y-78105000D01*
X86944138Y-78158466D01*
X86540466Y-78562138D01*
X86322000Y-79089561D01*
X86322000Y-79660439D01*
X86540466Y-80187862D01*
X86944138Y-80591534D01*
X87073216Y-80645000D01*
X86944138Y-80698466D01*
X86540466Y-81102138D01*
X86322000Y-81629561D01*
X86322000Y-82200439D01*
X86540466Y-82727862D01*
X86944138Y-83131534D01*
X87073216Y-83185000D01*
X86944138Y-83238466D01*
X86540466Y-83642138D01*
X86322000Y-84169561D01*
X86322000Y-84740439D01*
X86540466Y-85267862D01*
X86944138Y-85671534D01*
X87073216Y-85725000D01*
X86944138Y-85778466D01*
X86540466Y-86182138D01*
X86322000Y-86709561D01*
X86322000Y-87280439D01*
X86540466Y-87807862D01*
X86944138Y-88211534D01*
X87073216Y-88265000D01*
X86944138Y-88318466D01*
X86540466Y-88722138D01*
X86322000Y-89249561D01*
X86322000Y-89820439D01*
X86540466Y-90347862D01*
X86944138Y-90751534D01*
X87471561Y-90970000D01*
X88042439Y-90970000D01*
X88569862Y-90751534D01*
X88973534Y-90347862D01*
X89027000Y-90218784D01*
X89080466Y-90347862D01*
X89484138Y-90751534D01*
X90011561Y-90970000D01*
X90582439Y-90970000D01*
X91109862Y-90751534D01*
X91513534Y-90347862D01*
X91567000Y-90218784D01*
X91620466Y-90347862D01*
X92024138Y-90751534D01*
X92077000Y-90773430D01*
X92077001Y-95435288D01*
X91959569Y-95552720D01*
X91802000Y-95933126D01*
X91802000Y-96344874D01*
X91959569Y-96725280D01*
X92250720Y-97016431D01*
X92631126Y-97174000D01*
X93042874Y-97174000D01*
X93423280Y-97016431D01*
X93714431Y-96725280D01*
X93872000Y-96344874D01*
X93872000Y-95933126D01*
X93714431Y-95552720D01*
X93597000Y-95435289D01*
X93597000Y-90773430D01*
X93649862Y-90751534D01*
X93858651Y-90542745D01*
X94548861Y-90542745D01*
X94622995Y-90788864D01*
X95160223Y-90981965D01*
X95730454Y-90954778D01*
X96131005Y-90788864D01*
X96205139Y-90542745D01*
X95377000Y-89714605D01*
X94548861Y-90542745D01*
X93858651Y-90542745D01*
X94053534Y-90347862D01*
X94100525Y-90234417D01*
X94123136Y-90289005D01*
X94369255Y-90363139D01*
X95070395Y-89662000D01*
X95683605Y-89662000D01*
X96384745Y-90363139D01*
X96630864Y-90289005D01*
X96651874Y-90230552D01*
X96700466Y-90347862D01*
X97104138Y-90751534D01*
X97631561Y-90970000D01*
X98202439Y-90970000D01*
X98729862Y-90751534D01*
X99133534Y-90347862D01*
X99187000Y-90218784D01*
X99240466Y-90347862D01*
X99644138Y-90751534D01*
X100171561Y-90970000D01*
X100742439Y-90970000D01*
X101269862Y-90751534D01*
X101673534Y-90347862D01*
X101727000Y-90218784D01*
X101780466Y-90347862D01*
X102184138Y-90751534D01*
X102711561Y-90970000D01*
X103282439Y-90970000D01*
X103809862Y-90751534D01*
X104213534Y-90347862D01*
X104432000Y-89820439D01*
X104432000Y-89249561D01*
X104213534Y-88722138D01*
X103809862Y-88318466D01*
X103680784Y-88265000D01*
X103809862Y-88211534D01*
X104213534Y-87807862D01*
X104432000Y-87280439D01*
X104432000Y-86709561D01*
X104213534Y-86182138D01*
X103809862Y-85778466D01*
X103680784Y-85725000D01*
X103809862Y-85671534D01*
X104039982Y-85441414D01*
X104904000Y-86305432D01*
X104904001Y-89982197D01*
X101787529Y-93098670D01*
X101724070Y-93141072D01*
X101556095Y-93392465D01*
X101511999Y-93614150D01*
X101511999Y-93614154D01*
X101497111Y-93689001D01*
X101511999Y-93763848D01*
X101512000Y-96482147D01*
X101497111Y-96556999D01*
X101512000Y-96631851D01*
X101556096Y-96853536D01*
X101724071Y-97104928D01*
X101787527Y-97147328D01*
X104629000Y-99988802D01*
X104629000Y-100154874D01*
X104786569Y-100535280D01*
X105077720Y-100826431D01*
X105458126Y-100984000D01*
X105869874Y-100984000D01*
X106250280Y-100826431D01*
X106541431Y-100535280D01*
X106699000Y-100154874D01*
X106699000Y-99743126D01*
X106541431Y-99362720D01*
X106250280Y-99071569D01*
X105869874Y-98914000D01*
X105703802Y-98914000D01*
X103031999Y-96242198D01*
X103031999Y-95269000D01*
X103202874Y-95269000D01*
X103583280Y-95111431D01*
X103874431Y-94820280D01*
X104032000Y-94439874D01*
X104032000Y-94273801D01*
X106116010Y-92189793D01*
X106116010Y-94485188D01*
X105497199Y-95104000D01*
X105331126Y-95104000D01*
X104950720Y-95261569D01*
X104659569Y-95552720D01*
X104502000Y-95933126D01*
X104502000Y-96344874D01*
X104659569Y-96725280D01*
X104950720Y-97016431D01*
X105331126Y-97174000D01*
X105742874Y-97174000D01*
X106123280Y-97016431D01*
X106414431Y-96725280D01*
X106572000Y-96344874D01*
X106572000Y-96178801D01*
X107360482Y-95390320D01*
X107423938Y-95347920D01*
X107481636Y-95261569D01*
X107591913Y-95096529D01*
X107609346Y-95008888D01*
X107636009Y-94874843D01*
X107636009Y-94874839D01*
X107650897Y-94799991D01*
X107636009Y-94725143D01*
X107636009Y-91840000D01*
X107678382Y-91840000D01*
X107799462Y-91920903D01*
X108021147Y-91964999D01*
X108021151Y-91964999D01*
X108038683Y-91968486D01*
X114725669Y-98655473D01*
X114768069Y-98718929D01*
X115019461Y-98886904D01*
X115241146Y-98931000D01*
X115241150Y-98931000D01*
X115315997Y-98945888D01*
X115390844Y-98931000D01*
X116902289Y-98931000D01*
X116724569Y-99108720D01*
X116567000Y-99489126D01*
X116567000Y-99900874D01*
X116724569Y-100281280D01*
X117015720Y-100572431D01*
X117396126Y-100730000D01*
X117807874Y-100730000D01*
X118188280Y-100572431D01*
X118305711Y-100455000D01*
X119686153Y-100455000D01*
X119761000Y-100469888D01*
X119835847Y-100455000D01*
X119835852Y-100455000D01*
X120057537Y-100410904D01*
X120308929Y-100242929D01*
X120351331Y-100179470D01*
X120562801Y-99968000D01*
X120728874Y-99968000D01*
X121109280Y-99810431D01*
X121400431Y-99519280D01*
X121530196Y-99206000D01*
X121871874Y-99206000D01*
X122252280Y-99048431D01*
X122543431Y-98757280D01*
X122701000Y-98376874D01*
X122701000Y-97965126D01*
X122543431Y-97584720D01*
X122252280Y-97293569D01*
X121871874Y-97136000D01*
X121460126Y-97136000D01*
X121079720Y-97293569D01*
X120962289Y-97411000D01*
X115630800Y-97411000D01*
X112071953Y-93852154D01*
X112140999Y-93865888D01*
X112215846Y-93851000D01*
X118289153Y-93851000D01*
X118364000Y-93865888D01*
X118438847Y-93851000D01*
X118438852Y-93851000D01*
X118660537Y-93806904D01*
X118911929Y-93638929D01*
X118954331Y-93575470D01*
X119292801Y-93237000D01*
X119458874Y-93237000D01*
X119839280Y-93079431D01*
X120130431Y-92788280D01*
X120288000Y-92407874D01*
X120288000Y-91996126D01*
X120130431Y-91615720D01*
X119839280Y-91324569D01*
X119458874Y-91167000D01*
X119047126Y-91167000D01*
X118666720Y-91324569D01*
X118375569Y-91615720D01*
X118218000Y-91996126D01*
X118218000Y-92162199D01*
X118049199Y-92331000D01*
X113983711Y-92331000D01*
X114161431Y-92153280D01*
X114319000Y-91772874D01*
X114319000Y-91361126D01*
X114161431Y-90980720D01*
X113870280Y-90689569D01*
X113489874Y-90532000D01*
X113323802Y-90532000D01*
X111731318Y-88939517D01*
X111688916Y-88876058D01*
X111437524Y-88708083D01*
X111215839Y-88663987D01*
X111215834Y-88663987D01*
X111140987Y-88649099D01*
X111066140Y-88663987D01*
X108399711Y-88663987D01*
X108282280Y-88546556D01*
X107901874Y-88388987D01*
X107636009Y-88388987D01*
X107636009Y-80516811D01*
X108460000Y-81340802D01*
X108460001Y-84126148D01*
X108445112Y-84201000D01*
X108460001Y-84275852D01*
X108504097Y-84497537D01*
X108672072Y-84748929D01*
X108735528Y-84791329D01*
X109201000Y-85256802D01*
X109201000Y-85422874D01*
X109358569Y-85803280D01*
X109649720Y-86094431D01*
X110030126Y-86252000D01*
X110441874Y-86252000D01*
X110822280Y-86094431D01*
X111113431Y-85803280D01*
X111271000Y-85422874D01*
X111271000Y-85011126D01*
X111113431Y-84630720D01*
X110822280Y-84339569D01*
X110441874Y-84182000D01*
X110275802Y-84182000D01*
X109980000Y-83886199D01*
X109980000Y-82675237D01*
X110030126Y-82696000D01*
X110441874Y-82696000D01*
X110822280Y-82538431D01*
X111113431Y-82247280D01*
X111122525Y-82225326D01*
X112524000Y-83626802D01*
X112524001Y-86545288D01*
X112406569Y-86662720D01*
X112249000Y-87043126D01*
X112249000Y-87454874D01*
X112406569Y-87835280D01*
X112697720Y-88126431D01*
X113078126Y-88284000D01*
X113489874Y-88284000D01*
X113870280Y-88126431D01*
X114161431Y-87835280D01*
X114319000Y-87454874D01*
X114319000Y-87043126D01*
X114161431Y-86662720D01*
X114044000Y-86545289D01*
X114044000Y-83386846D01*
X114045682Y-83378393D01*
X114094720Y-83427431D01*
X114475126Y-83585000D01*
X114886874Y-83585000D01*
X115113155Y-83491271D01*
X116307355Y-84685472D01*
X116349756Y-84748929D01*
X116601148Y-84916904D01*
X116822833Y-84961000D01*
X116822837Y-84961000D01*
X116897685Y-84975888D01*
X116972533Y-84961000D01*
X119446199Y-84961000D01*
X121287000Y-86801802D01*
X121287001Y-93403288D01*
X121169569Y-93520720D01*
X121012000Y-93901126D01*
X121012000Y-94312874D01*
X121169569Y-94693280D01*
X121460720Y-94984431D01*
X121841126Y-95142000D01*
X122252874Y-95142000D01*
X122633280Y-94984431D01*
X122924431Y-94693280D01*
X123082000Y-94312874D01*
X123082000Y-93901126D01*
X122924431Y-93520720D01*
X122807000Y-93403289D01*
X122807000Y-91742126D01*
X130664000Y-91742126D01*
X130664000Y-92153874D01*
X130821569Y-92534280D01*
X130939001Y-92651712D01*
X130939000Y-97086289D01*
X130821569Y-97203720D01*
X130664000Y-97584126D01*
X130664000Y-97995874D01*
X130821569Y-98376280D01*
X131112720Y-98667431D01*
X131493126Y-98825000D01*
X131904874Y-98825000D01*
X132285280Y-98667431D01*
X132576431Y-98376280D01*
X132734000Y-97995874D01*
X132734000Y-97584126D01*
X132576431Y-97203720D01*
X132459000Y-97086289D01*
X132459000Y-92651711D01*
X132576431Y-92534280D01*
X132734000Y-92153874D01*
X132734000Y-91742126D01*
X132576431Y-91361720D01*
X132285280Y-91070569D01*
X131904874Y-90913000D01*
X131493126Y-90913000D01*
X131112720Y-91070569D01*
X130821569Y-91361720D01*
X130664000Y-91742126D01*
X122807000Y-91742126D01*
X122807000Y-86561846D01*
X122821888Y-86486999D01*
X122807000Y-86412152D01*
X122807000Y-86412148D01*
X122762904Y-86190463D01*
X122594929Y-85939071D01*
X122531473Y-85896671D01*
X120351331Y-83716530D01*
X120308929Y-83653071D01*
X120057537Y-83485096D01*
X119835852Y-83441000D01*
X119835847Y-83441000D01*
X119761000Y-83426112D01*
X119686153Y-83441000D01*
X117212487Y-83441000D01*
X115837016Y-82065530D01*
X115794614Y-82002071D01*
X115543222Y-81834096D01*
X115400397Y-81805686D01*
X115267280Y-81672569D01*
X114886874Y-81515000D01*
X114475126Y-81515000D01*
X114094720Y-81672569D01*
X113803569Y-81963720D01*
X113646000Y-82344126D01*
X113646000Y-82599198D01*
X109981256Y-78934455D01*
X110224431Y-78691280D01*
X110382000Y-78310874D01*
X110382000Y-78144801D01*
X111672802Y-76854000D01*
X111838874Y-76854000D01*
X112219280Y-76696431D01*
X112510431Y-76405280D01*
X112519111Y-76384323D01*
X118716264Y-82581477D01*
X118758662Y-82644930D01*
X118822115Y-82687328D01*
X118822117Y-82687330D01*
X118882778Y-82727862D01*
X119010054Y-82812905D01*
X119231739Y-82857001D01*
X119231743Y-82857001D01*
X119306590Y-82871889D01*
X119381437Y-82857001D01*
X124587000Y-82857001D01*
X124587000Y-85471000D01*
X124596667Y-85519601D01*
X124624197Y-85560803D01*
X124665399Y-85588333D01*
X124714000Y-85598000D01*
X136779000Y-85598000D01*
X136779000Y-86454993D01*
X136478698Y-86347856D01*
X135923632Y-86375638D01*
X135539857Y-86534603D01*
X135470392Y-86776787D01*
X136271000Y-87577395D01*
X136285143Y-87563253D01*
X136464748Y-87742858D01*
X136450605Y-87757000D01*
X136464748Y-87771143D01*
X136285143Y-87950748D01*
X136271000Y-87936605D01*
X135744711Y-88462894D01*
X135479663Y-88572680D01*
X135086680Y-88965663D01*
X135073700Y-88997000D01*
X128933803Y-88997000D01*
X127486104Y-87549302D01*
X134861856Y-87549302D01*
X134889638Y-88104368D01*
X135048603Y-88488143D01*
X135290787Y-88557608D01*
X136091395Y-87757000D01*
X135290787Y-86956392D01*
X135048603Y-87025857D01*
X134861856Y-87549302D01*
X127486104Y-87549302D01*
X127400000Y-87463199D01*
X127400000Y-87297126D01*
X127242431Y-86916720D01*
X126951280Y-86625569D01*
X126570874Y-86468000D01*
X126159126Y-86468000D01*
X125778720Y-86625569D01*
X125487569Y-86916720D01*
X125330000Y-87297126D01*
X125330000Y-87708874D01*
X125487569Y-88089280D01*
X125778720Y-88380431D01*
X126159126Y-88538000D01*
X126325199Y-88538000D01*
X128028673Y-90241476D01*
X128071071Y-90304929D01*
X128134524Y-90347327D01*
X128134526Y-90347329D01*
X128258419Y-90430111D01*
X128322463Y-90472904D01*
X128544148Y-90517000D01*
X128544152Y-90517000D01*
X128618999Y-90531888D01*
X128693846Y-90517000D01*
X135073700Y-90517000D01*
X135086680Y-90548337D01*
X135295343Y-90757000D01*
X135086680Y-90965663D01*
X134874000Y-91479119D01*
X134874000Y-92034881D01*
X135086680Y-92548337D01*
X135295343Y-92757000D01*
X135086680Y-92965663D01*
X134874000Y-93479119D01*
X134874000Y-94034881D01*
X135086680Y-94548337D01*
X135479663Y-94941320D01*
X135993119Y-95154000D01*
X136548881Y-95154000D01*
X136779000Y-95058682D01*
X136779000Y-98384339D01*
X136364799Y-97970138D01*
X135727113Y-97706000D01*
X135036887Y-97706000D01*
X134399201Y-97970138D01*
X133911138Y-98458201D01*
X133647000Y-99095887D01*
X133647000Y-99786113D01*
X133911138Y-100423799D01*
X134399201Y-100911862D01*
X134899277Y-101119000D01*
X82016723Y-101119000D01*
X82516799Y-100911862D01*
X83004862Y-100423799D01*
X83269000Y-99786113D01*
X83269000Y-99095887D01*
X83004862Y-98458201D01*
X82516799Y-97970138D01*
X81879113Y-97706000D01*
X81188887Y-97706000D01*
X80551201Y-97970138D01*
X80118908Y-98402431D01*
X79947871Y-66675000D01*
X81162908Y-66675000D01*
X81278161Y-67254418D01*
X81606375Y-67745625D01*
X81624619Y-67757816D01*
X81579235Y-67766843D01*
X81369191Y-67907191D01*
X81228843Y-68117235D01*
X81179560Y-68365000D01*
X81179560Y-70065000D01*
X81228843Y-70312765D01*
X81369191Y-70522809D01*
X81579235Y-70663157D01*
X81827000Y-70712440D01*
X83527000Y-70712440D01*
X83774765Y-70663157D01*
X83984809Y-70522809D01*
X84125157Y-70312765D01*
X84174440Y-70065000D01*
X84174440Y-68365000D01*
X84125157Y-68117235D01*
X83984809Y-67907191D01*
X83774765Y-67766843D01*
X83729381Y-67757816D01*
X83747625Y-67745625D01*
X84075839Y-67254418D01*
X84191092Y-66675000D01*
X84075839Y-66095582D01*
X83747625Y-65604375D01*
X83256418Y-65276161D01*
X82823256Y-65190000D01*
X82530744Y-65190000D01*
X82097582Y-65276161D01*
X81606375Y-65604375D01*
X81278161Y-66095582D01*
X81162908Y-66675000D01*
X79947871Y-66675000D01*
X79896919Y-57223510D01*
X80063138Y-57624799D01*
X80551201Y-58112862D01*
X81188887Y-58377000D01*
X81879113Y-58377000D01*
X82516799Y-58112862D01*
X83004862Y-57624799D01*
X83269000Y-56987113D01*
X83269000Y-56296887D01*
X83004862Y-55659201D01*
X82934352Y-55588691D01*
X86322000Y-55588691D01*
X86322000Y-56229250D01*
X86480750Y-56388000D01*
X87630000Y-56388000D01*
X87630000Y-55238750D01*
X87471250Y-55080000D01*
X86830690Y-55080000D01*
X86597301Y-55176673D01*
X86418673Y-55355302D01*
X86322000Y-55588691D01*
X82934352Y-55588691D01*
X82516799Y-55171138D01*
X82016723Y-54964000D01*
X107832082Y-54964000D01*
X107658191Y-55080191D01*
X107658191Y-55080191D01*
G37*
X107658191Y-55080191D02*
X107517843Y-55290235D01*
X107468560Y-55538000D01*
X107468560Y-57238000D01*
X107517843Y-57485765D01*
X107658191Y-57695809D01*
X107868235Y-57836157D01*
X108116000Y-57885440D01*
X109816000Y-57885440D01*
X110063765Y-57836157D01*
X110273809Y-57695809D01*
X110414157Y-57485765D01*
X110434739Y-57382292D01*
X110739076Y-57659645D01*
X111149110Y-57829476D01*
X111379000Y-57708155D01*
X111379000Y-56515000D01*
X111633000Y-56515000D01*
X111633000Y-57708155D01*
X111862890Y-57829476D01*
X112272924Y-57659645D01*
X112701183Y-57269358D01*
X112947486Y-56744892D01*
X112826819Y-56515000D01*
X111633000Y-56515000D01*
X111379000Y-56515000D01*
X111359000Y-56515000D01*
X111359000Y-56261000D01*
X111379000Y-56261000D01*
X111379000Y-56241000D01*
X111633000Y-56241000D01*
X111633000Y-56261000D01*
X112826819Y-56261000D01*
X112947486Y-56031108D01*
X112701183Y-55506642D01*
X112272924Y-55116355D01*
X111905083Y-54964000D01*
X120421277Y-54964000D01*
X119921201Y-55171138D01*
X119433138Y-55659201D01*
X119169000Y-56296887D01*
X119169000Y-56987113D01*
X119433138Y-57624799D01*
X119921201Y-58112862D01*
X120558887Y-58377000D01*
X121249113Y-58377000D01*
X121886799Y-58112862D01*
X122374862Y-57624799D01*
X122639000Y-56987113D01*
X122639000Y-56296887D01*
X122374862Y-55659201D01*
X121886799Y-55171138D01*
X121386723Y-54964000D01*
X124587000Y-54964000D01*
X124587000Y-64203198D01*
X121372199Y-67418000D01*
X121206126Y-67418000D01*
X120825720Y-67575569D01*
X120534569Y-67866720D01*
X120377000Y-68247126D01*
X120377000Y-68658874D01*
X120534569Y-69039280D01*
X120710289Y-69215000D01*
X120534569Y-69390720D01*
X120377000Y-69771126D01*
X120377000Y-70182874D01*
X120534569Y-70563280D01*
X120825720Y-70854431D01*
X121206126Y-71012000D01*
X121617874Y-71012000D01*
X121998280Y-70854431D01*
X122289431Y-70563280D01*
X122370603Y-70367314D01*
X122476720Y-70473431D01*
X122857126Y-70631000D01*
X123268874Y-70631000D01*
X123649280Y-70473431D01*
X123940431Y-70182280D01*
X124098000Y-69801874D01*
X124098000Y-69635801D01*
X124587000Y-69146801D01*
X124587000Y-73186000D01*
X114900803Y-73186000D01*
X112647000Y-70932199D01*
X112647000Y-65422844D01*
X112661888Y-65347997D01*
X112647000Y-65273150D01*
X112647000Y-65273146D01*
X112602904Y-65051461D01*
X112520000Y-64927387D01*
X112520000Y-64838711D01*
X112637431Y-64721280D01*
X112795000Y-64340874D01*
X112795000Y-63929126D01*
X112637431Y-63548720D01*
X112346280Y-63257569D01*
X111965874Y-63100000D01*
X111554126Y-63100000D01*
X111173720Y-63257569D01*
X110882569Y-63548720D01*
X110838595Y-63654884D01*
X110695280Y-63511569D01*
X110314874Y-63354000D01*
X109903126Y-63354000D01*
X109522720Y-63511569D01*
X109231569Y-63802720D01*
X109074000Y-64183126D01*
X109074000Y-64594874D01*
X109094128Y-64643467D01*
X108760720Y-64781569D01*
X108469569Y-65072720D01*
X108375841Y-65298999D01*
X107624847Y-65298999D01*
X107550000Y-65284111D01*
X107475153Y-65298999D01*
X107475149Y-65298999D01*
X107253464Y-65343095D01*
X107002072Y-65511070D01*
X106959672Y-65574526D01*
X106552154Y-65982045D01*
X106565888Y-65912999D01*
X106551000Y-65838152D01*
X106551000Y-65838148D01*
X106506904Y-65616463D01*
X106338929Y-65365071D01*
X106275473Y-65322671D01*
X105403330Y-64450529D01*
X105360928Y-64387070D01*
X105109536Y-64219095D01*
X104887851Y-64174999D01*
X104887846Y-64174999D01*
X104812999Y-64160111D01*
X104738152Y-64174999D01*
X104432000Y-64174999D01*
X104432000Y-63849561D01*
X104213534Y-63322138D01*
X103809862Y-62918466D01*
X103680784Y-62865000D01*
X103809862Y-62811534D01*
X104213534Y-62407862D01*
X104432000Y-61880439D01*
X104432000Y-61309561D01*
X104213534Y-60782138D01*
X103809862Y-60378466D01*
X103680784Y-60325000D01*
X103809862Y-60271534D01*
X104213534Y-59867862D01*
X104432000Y-59340439D01*
X104432000Y-58769561D01*
X104213534Y-58242138D01*
X103809862Y-57838466D01*
X103680784Y-57785000D01*
X103809862Y-57731534D01*
X104213534Y-57327862D01*
X104432000Y-56800439D01*
X104432000Y-56229561D01*
X104213534Y-55702138D01*
X103809862Y-55298466D01*
X103282439Y-55080000D01*
X102862462Y-55080000D01*
X102860333Y-55069399D01*
X102832803Y-55028197D01*
X102791601Y-55000667D01*
X102743000Y-54991000D01*
X87884000Y-54991000D01*
X87835832Y-55000489D01*
X87794529Y-55027867D01*
X87766847Y-55068967D01*
X87757001Y-55117531D01*
X87751302Y-56662000D01*
X87630000Y-56662000D01*
X87630000Y-56642000D01*
X86480750Y-56642000D01*
X86322000Y-56800750D01*
X86322000Y-57441309D01*
X86418673Y-57674698D01*
X86597301Y-57853327D01*
X86830690Y-57950000D01*
X86832604Y-57950000D01*
X86540466Y-58242138D01*
X86322000Y-58769561D01*
X86322000Y-59340439D01*
X86540466Y-59867862D01*
X86944138Y-60271534D01*
X87073216Y-60325000D01*
X86944138Y-60378466D01*
X86540466Y-60782138D01*
X86322000Y-61309561D01*
X86322000Y-61880439D01*
X86540466Y-62407862D01*
X86944138Y-62811534D01*
X87073216Y-62865000D01*
X86944138Y-62918466D01*
X86540466Y-63322138D01*
X86322000Y-63849561D01*
X86322000Y-64420439D01*
X86540466Y-64947862D01*
X86944138Y-65351534D01*
X87073216Y-65405000D01*
X86944138Y-65458466D01*
X86540466Y-65862138D01*
X86322000Y-66389561D01*
X86322000Y-66960439D01*
X86540466Y-67487862D01*
X86944138Y-67891534D01*
X87073216Y-67945000D01*
X86944138Y-67998466D01*
X86540466Y-68402138D01*
X86322000Y-68929561D01*
X86322000Y-69500439D01*
X86540466Y-70027862D01*
X86944138Y-70431534D01*
X87073216Y-70485000D01*
X86944138Y-70538466D01*
X86540466Y-70942138D01*
X86322000Y-71469561D01*
X86322000Y-72040439D01*
X86540466Y-72567862D01*
X86944138Y-72971534D01*
X87073216Y-73025000D01*
X86944138Y-73078466D01*
X86540466Y-73482138D01*
X86322000Y-74009561D01*
X86322000Y-74580439D01*
X86540466Y-75107862D01*
X86944138Y-75511534D01*
X87073216Y-75565000D01*
X86944138Y-75618466D01*
X86540466Y-76022138D01*
X86322000Y-76549561D01*
X86322000Y-77120439D01*
X86540466Y-77647862D01*
X86944138Y-78051534D01*
X87073216Y-78105000D01*
X86944138Y-78158466D01*
X86540466Y-78562138D01*
X86322000Y-79089561D01*
X86322000Y-79660439D01*
X86540466Y-80187862D01*
X86944138Y-80591534D01*
X87073216Y-80645000D01*
X86944138Y-80698466D01*
X86540466Y-81102138D01*
X86322000Y-81629561D01*
X86322000Y-82200439D01*
X86540466Y-82727862D01*
X86944138Y-83131534D01*
X87073216Y-83185000D01*
X86944138Y-83238466D01*
X86540466Y-83642138D01*
X86322000Y-84169561D01*
X86322000Y-84740439D01*
X86540466Y-85267862D01*
X86944138Y-85671534D01*
X87073216Y-85725000D01*
X86944138Y-85778466D01*
X86540466Y-86182138D01*
X86322000Y-86709561D01*
X86322000Y-87280439D01*
X86540466Y-87807862D01*
X86944138Y-88211534D01*
X87073216Y-88265000D01*
X86944138Y-88318466D01*
X86540466Y-88722138D01*
X86322000Y-89249561D01*
X86322000Y-89820439D01*
X86540466Y-90347862D01*
X86944138Y-90751534D01*
X87471561Y-90970000D01*
X88042439Y-90970000D01*
X88569862Y-90751534D01*
X88973534Y-90347862D01*
X89027000Y-90218784D01*
X89080466Y-90347862D01*
X89484138Y-90751534D01*
X90011561Y-90970000D01*
X90582439Y-90970000D01*
X91109862Y-90751534D01*
X91513534Y-90347862D01*
X91567000Y-90218784D01*
X91620466Y-90347862D01*
X92024138Y-90751534D01*
X92077000Y-90773430D01*
X92077001Y-95435288D01*
X91959569Y-95552720D01*
X91802000Y-95933126D01*
X91802000Y-96344874D01*
X91959569Y-96725280D01*
X92250720Y-97016431D01*
X92631126Y-97174000D01*
X93042874Y-97174000D01*
X93423280Y-97016431D01*
X93714431Y-96725280D01*
X93872000Y-96344874D01*
X93872000Y-95933126D01*
X93714431Y-95552720D01*
X93597000Y-95435289D01*
X93597000Y-90773430D01*
X93649862Y-90751534D01*
X93858651Y-90542745D01*
X94548861Y-90542745D01*
X94622995Y-90788864D01*
X95160223Y-90981965D01*
X95730454Y-90954778D01*
X96131005Y-90788864D01*
X96205139Y-90542745D01*
X95377000Y-89714605D01*
X94548861Y-90542745D01*
X93858651Y-90542745D01*
X94053534Y-90347862D01*
X94100525Y-90234417D01*
X94123136Y-90289005D01*
X94369255Y-90363139D01*
X95070395Y-89662000D01*
X95683605Y-89662000D01*
X96384745Y-90363139D01*
X96630864Y-90289005D01*
X96651874Y-90230552D01*
X96700466Y-90347862D01*
X97104138Y-90751534D01*
X97631561Y-90970000D01*
X98202439Y-90970000D01*
X98729862Y-90751534D01*
X99133534Y-90347862D01*
X99187000Y-90218784D01*
X99240466Y-90347862D01*
X99644138Y-90751534D01*
X100171561Y-90970000D01*
X100742439Y-90970000D01*
X101269862Y-90751534D01*
X101673534Y-90347862D01*
X101727000Y-90218784D01*
X101780466Y-90347862D01*
X102184138Y-90751534D01*
X102711561Y-90970000D01*
X103282439Y-90970000D01*
X103809862Y-90751534D01*
X104213534Y-90347862D01*
X104432000Y-89820439D01*
X104432000Y-89249561D01*
X104213534Y-88722138D01*
X103809862Y-88318466D01*
X103680784Y-88265000D01*
X103809862Y-88211534D01*
X104213534Y-87807862D01*
X104432000Y-87280439D01*
X104432000Y-86709561D01*
X104213534Y-86182138D01*
X103809862Y-85778466D01*
X103680784Y-85725000D01*
X103809862Y-85671534D01*
X104039982Y-85441414D01*
X104904000Y-86305432D01*
X104904001Y-89982197D01*
X101787529Y-93098670D01*
X101724070Y-93141072D01*
X101556095Y-93392465D01*
X101511999Y-93614150D01*
X101511999Y-93614154D01*
X101497111Y-93689001D01*
X101511999Y-93763848D01*
X101512000Y-96482147D01*
X101497111Y-96556999D01*
X101512000Y-96631851D01*
X101556096Y-96853536D01*
X101724071Y-97104928D01*
X101787527Y-97147328D01*
X104629000Y-99988802D01*
X104629000Y-100154874D01*
X104786569Y-100535280D01*
X105077720Y-100826431D01*
X105458126Y-100984000D01*
X105869874Y-100984000D01*
X106250280Y-100826431D01*
X106541431Y-100535280D01*
X106699000Y-100154874D01*
X106699000Y-99743126D01*
X106541431Y-99362720D01*
X106250280Y-99071569D01*
X105869874Y-98914000D01*
X105703802Y-98914000D01*
X103031999Y-96242198D01*
X103031999Y-95269000D01*
X103202874Y-95269000D01*
X103583280Y-95111431D01*
X103874431Y-94820280D01*
X104032000Y-94439874D01*
X104032000Y-94273801D01*
X106116010Y-92189793D01*
X106116010Y-94485188D01*
X105497199Y-95104000D01*
X105331126Y-95104000D01*
X104950720Y-95261569D01*
X104659569Y-95552720D01*
X104502000Y-95933126D01*
X104502000Y-96344874D01*
X104659569Y-96725280D01*
X104950720Y-97016431D01*
X105331126Y-97174000D01*
X105742874Y-97174000D01*
X106123280Y-97016431D01*
X106414431Y-96725280D01*
X106572000Y-96344874D01*
X106572000Y-96178801D01*
X107360482Y-95390320D01*
X107423938Y-95347920D01*
X107481636Y-95261569D01*
X107591913Y-95096529D01*
X107609346Y-95008888D01*
X107636009Y-94874843D01*
X107636009Y-94874839D01*
X107650897Y-94799991D01*
X107636009Y-94725143D01*
X107636009Y-91840000D01*
X107678382Y-91840000D01*
X107799462Y-91920903D01*
X108021147Y-91964999D01*
X108021151Y-91964999D01*
X108038683Y-91968486D01*
X114725669Y-98655473D01*
X114768069Y-98718929D01*
X115019461Y-98886904D01*
X115241146Y-98931000D01*
X115241150Y-98931000D01*
X115315997Y-98945888D01*
X115390844Y-98931000D01*
X116902289Y-98931000D01*
X116724569Y-99108720D01*
X116567000Y-99489126D01*
X116567000Y-99900874D01*
X116724569Y-100281280D01*
X117015720Y-100572431D01*
X117396126Y-100730000D01*
X117807874Y-100730000D01*
X118188280Y-100572431D01*
X118305711Y-100455000D01*
X119686153Y-100455000D01*
X119761000Y-100469888D01*
X119835847Y-100455000D01*
X119835852Y-100455000D01*
X120057537Y-100410904D01*
X120308929Y-100242929D01*
X120351331Y-100179470D01*
X120562801Y-99968000D01*
X120728874Y-99968000D01*
X121109280Y-99810431D01*
X121400431Y-99519280D01*
X121530196Y-99206000D01*
X121871874Y-99206000D01*
X122252280Y-99048431D01*
X122543431Y-98757280D01*
X122701000Y-98376874D01*
X122701000Y-97965126D01*
X122543431Y-97584720D01*
X122252280Y-97293569D01*
X121871874Y-97136000D01*
X121460126Y-97136000D01*
X121079720Y-97293569D01*
X120962289Y-97411000D01*
X115630800Y-97411000D01*
X112071953Y-93852154D01*
X112140999Y-93865888D01*
X112215846Y-93851000D01*
X118289153Y-93851000D01*
X118364000Y-93865888D01*
X118438847Y-93851000D01*
X118438852Y-93851000D01*
X118660537Y-93806904D01*
X118911929Y-93638929D01*
X118954331Y-93575470D01*
X119292801Y-93237000D01*
X119458874Y-93237000D01*
X119839280Y-93079431D01*
X120130431Y-92788280D01*
X120288000Y-92407874D01*
X120288000Y-91996126D01*
X120130431Y-91615720D01*
X119839280Y-91324569D01*
X119458874Y-91167000D01*
X119047126Y-91167000D01*
X118666720Y-91324569D01*
X118375569Y-91615720D01*
X118218000Y-91996126D01*
X118218000Y-92162199D01*
X118049199Y-92331000D01*
X113983711Y-92331000D01*
X114161431Y-92153280D01*
X114319000Y-91772874D01*
X114319000Y-91361126D01*
X114161431Y-90980720D01*
X113870280Y-90689569D01*
X113489874Y-90532000D01*
X113323802Y-90532000D01*
X111731318Y-88939517D01*
X111688916Y-88876058D01*
X111437524Y-88708083D01*
X111215839Y-88663987D01*
X111215834Y-88663987D01*
X111140987Y-88649099D01*
X111066140Y-88663987D01*
X108399711Y-88663987D01*
X108282280Y-88546556D01*
X107901874Y-88388987D01*
X107636009Y-88388987D01*
X107636009Y-80516811D01*
X108460000Y-81340802D01*
X108460001Y-84126148D01*
X108445112Y-84201000D01*
X108460001Y-84275852D01*
X108504097Y-84497537D01*
X108672072Y-84748929D01*
X108735528Y-84791329D01*
X109201000Y-85256802D01*
X109201000Y-85422874D01*
X109358569Y-85803280D01*
X109649720Y-86094431D01*
X110030126Y-86252000D01*
X110441874Y-86252000D01*
X110822280Y-86094431D01*
X111113431Y-85803280D01*
X111271000Y-85422874D01*
X111271000Y-85011126D01*
X111113431Y-84630720D01*
X110822280Y-84339569D01*
X110441874Y-84182000D01*
X110275802Y-84182000D01*
X109980000Y-83886199D01*
X109980000Y-82675237D01*
X110030126Y-82696000D01*
X110441874Y-82696000D01*
X110822280Y-82538431D01*
X111113431Y-82247280D01*
X111122525Y-82225326D01*
X112524000Y-83626802D01*
X112524001Y-86545288D01*
X112406569Y-86662720D01*
X112249000Y-87043126D01*
X112249000Y-87454874D01*
X112406569Y-87835280D01*
X112697720Y-88126431D01*
X113078126Y-88284000D01*
X113489874Y-88284000D01*
X113870280Y-88126431D01*
X114161431Y-87835280D01*
X114319000Y-87454874D01*
X114319000Y-87043126D01*
X114161431Y-86662720D01*
X114044000Y-86545289D01*
X114044000Y-83386846D01*
X114045682Y-83378393D01*
X114094720Y-83427431D01*
X114475126Y-83585000D01*
X114886874Y-83585000D01*
X115113155Y-83491271D01*
X116307355Y-84685472D01*
X116349756Y-84748929D01*
X116601148Y-84916904D01*
X116822833Y-84961000D01*
X116822837Y-84961000D01*
X116897685Y-84975888D01*
X116972533Y-84961000D01*
X119446199Y-84961000D01*
X121287000Y-86801802D01*
X121287001Y-93403288D01*
X121169569Y-93520720D01*
X121012000Y-93901126D01*
X121012000Y-94312874D01*
X121169569Y-94693280D01*
X121460720Y-94984431D01*
X121841126Y-95142000D01*
X122252874Y-95142000D01*
X122633280Y-94984431D01*
X122924431Y-94693280D01*
X123082000Y-94312874D01*
X123082000Y-93901126D01*
X122924431Y-93520720D01*
X122807000Y-93403289D01*
X122807000Y-91742126D01*
X130664000Y-91742126D01*
X130664000Y-92153874D01*
X130821569Y-92534280D01*
X130939001Y-92651712D01*
X130939000Y-97086289D01*
X130821569Y-97203720D01*
X130664000Y-97584126D01*
X130664000Y-97995874D01*
X130821569Y-98376280D01*
X131112720Y-98667431D01*
X131493126Y-98825000D01*
X131904874Y-98825000D01*
X132285280Y-98667431D01*
X132576431Y-98376280D01*
X132734000Y-97995874D01*
X132734000Y-97584126D01*
X132576431Y-97203720D01*
X132459000Y-97086289D01*
X132459000Y-92651711D01*
X132576431Y-92534280D01*
X132734000Y-92153874D01*
X132734000Y-91742126D01*
X132576431Y-91361720D01*
X132285280Y-91070569D01*
X131904874Y-90913000D01*
X131493126Y-90913000D01*
X131112720Y-91070569D01*
X130821569Y-91361720D01*
X130664000Y-91742126D01*
X122807000Y-91742126D01*
X122807000Y-86561846D01*
X122821888Y-86486999D01*
X122807000Y-86412152D01*
X122807000Y-86412148D01*
X122762904Y-86190463D01*
X122594929Y-85939071D01*
X122531473Y-85896671D01*
X120351331Y-83716530D01*
X120308929Y-83653071D01*
X120057537Y-83485096D01*
X119835852Y-83441000D01*
X119835847Y-83441000D01*
X119761000Y-83426112D01*
X119686153Y-83441000D01*
X117212487Y-83441000D01*
X115837016Y-82065530D01*
X115794614Y-82002071D01*
X115543222Y-81834096D01*
X115400397Y-81805686D01*
X115267280Y-81672569D01*
X114886874Y-81515000D01*
X114475126Y-81515000D01*
X114094720Y-81672569D01*
X113803569Y-81963720D01*
X113646000Y-82344126D01*
X113646000Y-82599198D01*
X109981256Y-78934455D01*
X110224431Y-78691280D01*
X110382000Y-78310874D01*
X110382000Y-78144801D01*
X111672802Y-76854000D01*
X111838874Y-76854000D01*
X112219280Y-76696431D01*
X112510431Y-76405280D01*
X112519111Y-76384323D01*
X118716264Y-82581477D01*
X118758662Y-82644930D01*
X118822115Y-82687328D01*
X118822117Y-82687330D01*
X118882778Y-82727862D01*
X119010054Y-82812905D01*
X119231739Y-82857001D01*
X119231743Y-82857001D01*
X119306590Y-82871889D01*
X119381437Y-82857001D01*
X124587000Y-82857001D01*
X124587000Y-85471000D01*
X124596667Y-85519601D01*
X124624197Y-85560803D01*
X124665399Y-85588333D01*
X124714000Y-85598000D01*
X136779000Y-85598000D01*
X136779000Y-86454993D01*
X136478698Y-86347856D01*
X135923632Y-86375638D01*
X135539857Y-86534603D01*
X135470392Y-86776787D01*
X136271000Y-87577395D01*
X136285143Y-87563253D01*
X136464748Y-87742858D01*
X136450605Y-87757000D01*
X136464748Y-87771143D01*
X136285143Y-87950748D01*
X136271000Y-87936605D01*
X135744711Y-88462894D01*
X135479663Y-88572680D01*
X135086680Y-88965663D01*
X135073700Y-88997000D01*
X128933803Y-88997000D01*
X127486104Y-87549302D01*
X134861856Y-87549302D01*
X134889638Y-88104368D01*
X135048603Y-88488143D01*
X135290787Y-88557608D01*
X136091395Y-87757000D01*
X135290787Y-86956392D01*
X135048603Y-87025857D01*
X134861856Y-87549302D01*
X127486104Y-87549302D01*
X127400000Y-87463199D01*
X127400000Y-87297126D01*
X127242431Y-86916720D01*
X126951280Y-86625569D01*
X126570874Y-86468000D01*
X126159126Y-86468000D01*
X125778720Y-86625569D01*
X125487569Y-86916720D01*
X125330000Y-87297126D01*
X125330000Y-87708874D01*
X125487569Y-88089280D01*
X125778720Y-88380431D01*
X126159126Y-88538000D01*
X126325199Y-88538000D01*
X128028673Y-90241476D01*
X128071071Y-90304929D01*
X128134524Y-90347327D01*
X128134526Y-90347329D01*
X128258419Y-90430111D01*
X128322463Y-90472904D01*
X128544148Y-90517000D01*
X128544152Y-90517000D01*
X128618999Y-90531888D01*
X128693846Y-90517000D01*
X135073700Y-90517000D01*
X135086680Y-90548337D01*
X135295343Y-90757000D01*
X135086680Y-90965663D01*
X134874000Y-91479119D01*
X134874000Y-92034881D01*
X135086680Y-92548337D01*
X135295343Y-92757000D01*
X135086680Y-92965663D01*
X134874000Y-93479119D01*
X134874000Y-94034881D01*
X135086680Y-94548337D01*
X135479663Y-94941320D01*
X135993119Y-95154000D01*
X136548881Y-95154000D01*
X136779000Y-95058682D01*
X136779000Y-98384339D01*
X136364799Y-97970138D01*
X135727113Y-97706000D01*
X135036887Y-97706000D01*
X134399201Y-97970138D01*
X133911138Y-98458201D01*
X133647000Y-99095887D01*
X133647000Y-99786113D01*
X133911138Y-100423799D01*
X134399201Y-100911862D01*
X134899277Y-101119000D01*
X82016723Y-101119000D01*
X82516799Y-100911862D01*
X83004862Y-100423799D01*
X83269000Y-99786113D01*
X83269000Y-99095887D01*
X83004862Y-98458201D01*
X82516799Y-97970138D01*
X81879113Y-97706000D01*
X81188887Y-97706000D01*
X80551201Y-97970138D01*
X80118908Y-98402431D01*
X79947871Y-66675000D01*
X81162908Y-66675000D01*
X81278161Y-67254418D01*
X81606375Y-67745625D01*
X81624619Y-67757816D01*
X81579235Y-67766843D01*
X81369191Y-67907191D01*
X81228843Y-68117235D01*
X81179560Y-68365000D01*
X81179560Y-70065000D01*
X81228843Y-70312765D01*
X81369191Y-70522809D01*
X81579235Y-70663157D01*
X81827000Y-70712440D01*
X83527000Y-70712440D01*
X83774765Y-70663157D01*
X83984809Y-70522809D01*
X84125157Y-70312765D01*
X84174440Y-70065000D01*
X84174440Y-68365000D01*
X84125157Y-68117235D01*
X83984809Y-67907191D01*
X83774765Y-67766843D01*
X83729381Y-67757816D01*
X83747625Y-67745625D01*
X84075839Y-67254418D01*
X84191092Y-66675000D01*
X84075839Y-66095582D01*
X83747625Y-65604375D01*
X83256418Y-65276161D01*
X82823256Y-65190000D01*
X82530744Y-65190000D01*
X82097582Y-65276161D01*
X81606375Y-65604375D01*
X81278161Y-66095582D01*
X81162908Y-66675000D01*
X79947871Y-66675000D01*
X79896919Y-57223510D01*
X80063138Y-57624799D01*
X80551201Y-58112862D01*
X81188887Y-58377000D01*
X81879113Y-58377000D01*
X82516799Y-58112862D01*
X83004862Y-57624799D01*
X83269000Y-56987113D01*
X83269000Y-56296887D01*
X83004862Y-55659201D01*
X82934352Y-55588691D01*
X86322000Y-55588691D01*
X86322000Y-56229250D01*
X86480750Y-56388000D01*
X87630000Y-56388000D01*
X87630000Y-55238750D01*
X87471250Y-55080000D01*
X86830690Y-55080000D01*
X86597301Y-55176673D01*
X86418673Y-55355302D01*
X86322000Y-55588691D01*
X82934352Y-55588691D01*
X82516799Y-55171138D01*
X82016723Y-54964000D01*
X107832082Y-54964000D01*
X107658191Y-55080191D01*
G04 #@! TD*
M02*
