M48
INCH,TZ
T1C0.0157
T2C0.0197
T3C0.0300
T4C0.0315
T5C0.0394
T6C0.0433
T7C0.0591
%
G90
G05
T1
X36550Y-37850
X40550Y-37100
X41550Y-37850
X41600Y-39350
X41800Y-31200
X42050Y-28350
X42350Y-27250
X42400Y-35206
X42400Y-35750
X42850Y-27550
X43000Y-26900
X43050Y-25850
X43050Y-30750
X43050Y-35700
X43350Y-25350
X43400Y-32150
X43400Y-33550
X43600Y-37300
X43750Y-25850
X43950Y-29850
X44000Y-25250
X44350Y-23850
X44600Y-34350
X44600Y-36050
X45150Y-32500
X46300Y-39250
X46500Y-32350
X46950Y-36300
X47150Y-24750
X47300Y-33950
X47450Y-38950
X47800Y-26950
X47800Y-27550
X47900Y-38650
X48050Y-37050
X48450Y-27400
X49700Y-27700
X49750Y-34450
X49900Y-36650
X50000Y-27300
X50500Y-27650
X51850Y-36200
X51850Y-38500
T2
X37550Y-24750
X37550Y-26250
T3
X55950Y-34550
X55950Y-35337
X55950Y-36125
X55950Y-36912
X53650Y-34550
X53650Y-35337
X53650Y-36125
X53650Y-36912
T4
X49350Y-23500
X49900Y-25000
X49900Y-25787
X49900Y-26575
X52650Y-31013
X52650Y-31800
X52650Y-32587
X52600Y-26613
X52600Y-27400
X52600Y-28187
X61750Y-25200
X56550Y-29700
X56550Y-26800
X49900Y-29113
X49900Y-29900
X49900Y-30687
T5
X53650Y-22800
X54650Y-22800
X55650Y-22800
X56650Y-22800
X57650Y-22800
X58650Y-22800
X59650Y-22800
X60650Y-22800
X42900Y-22200
X43900Y-22200
X59131Y-33300
X59131Y-39009
X60116Y-33300
X61100Y-33300
X61100Y-39009
X32550Y-26250
X32550Y-27250
T6
X34550Y-22250
X34550Y-23250
X34550Y-24250
X34550Y-25250
X34550Y-26250
X34550Y-27250
X34550Y-28250
X34550Y-29250
X34550Y-30250
X34550Y-31250
X34550Y-32250
X34550Y-33250
X34550Y-34250
X34550Y-35250
X35550Y-35250
X36550Y-35250
X37550Y-28250
X37550Y-29250
X37550Y-30250
X37550Y-31250
X37550Y-32250
X37550Y-33250
X37550Y-34250
X37550Y-35250
X38550Y-28250
X38550Y-29250
X38550Y-30250
X38550Y-31250
X38550Y-32250
X38550Y-33250
X38550Y-34250
X38550Y-35250
X39550Y-23250
X39550Y-25250
X39550Y-26250
X39550Y-27250
X39550Y-35250
X40550Y-22250
X40550Y-23250
X40550Y-24250
X40550Y-25250
X40550Y-26250
X40550Y-27250
X40550Y-28250
X40550Y-29250
X40550Y-30250
X40550Y-31250
X40550Y-32250
X40550Y-33250
X40550Y-34250
X40550Y-35250
T7
X57911Y-35997G85X57911Y-36509
G05
X62320Y-35997G85X62320Y-36509
G05
T0
M30
