G04 #@! TF.GenerationSoftware,KiCad,Pcbnew,5.0.2-bee76a0~70~ubuntu16.04.1*
G04 #@! TF.CreationDate,2019-04-05T13:04:55-07:00*
G04 #@! TF.ProjectId,volume_control_board,766f6c75-6d65-45f6-936f-6e74726f6c5f,rev?*
G04 #@! TF.SameCoordinates,Original*
G04 #@! TF.FileFunction,Legend,Top*
G04 #@! TF.FilePolarity,Positive*
%FSLAX46Y46*%
G04 Gerber Fmt 4.6, Leading zero omitted, Abs format (unit mm)*
G04 Created by KiCad (PCBNEW 5.0.2-bee76a0~70~ubuntu16.04.1) date Fri 05 Apr 2019 01:04:55 PM PDT*
%MOMM*%
%LPD*%
G01*
G04 APERTURE LIST*
%ADD10C,0.300000*%
%ADD11C,0.120000*%
%ADD12C,0.150000*%
G04 APERTURE END LIST*
D10*
X135540857Y-78999000D02*
X136112285Y-78999000D01*
X135426571Y-79341857D02*
X135826571Y-78141857D01*
X136226571Y-79341857D01*
X137255142Y-79341857D02*
X136569428Y-79341857D01*
X136912285Y-79341857D02*
X136912285Y-78141857D01*
X136798000Y-78313285D01*
X136683714Y-78427571D01*
X136569428Y-78484714D01*
X135312285Y-80241857D02*
X135598000Y-81441857D01*
X135826571Y-80584714D01*
X136055142Y-81441857D01*
X136340857Y-80241857D01*
X137426571Y-81441857D02*
X136740857Y-81441857D01*
X137083714Y-81441857D02*
X137083714Y-80241857D01*
X136969428Y-80413285D01*
X136855142Y-80527571D01*
X136740857Y-80584714D01*
X135912285Y-82913285D02*
X136083714Y-82970428D01*
X136140857Y-83027571D01*
X136198000Y-83141857D01*
X136198000Y-83313285D01*
X136140857Y-83427571D01*
X136083714Y-83484714D01*
X135969428Y-83541857D01*
X135512285Y-83541857D01*
X135512285Y-82341857D01*
X135912285Y-82341857D01*
X136026571Y-82399000D01*
X136083714Y-82456142D01*
X136140857Y-82570428D01*
X136140857Y-82684714D01*
X136083714Y-82799000D01*
X136026571Y-82856142D01*
X135912285Y-82913285D01*
X135512285Y-82913285D01*
X137340857Y-83541857D02*
X136655142Y-83541857D01*
X136998000Y-83541857D02*
X136998000Y-82341857D01*
X136883714Y-82513285D01*
X136769428Y-82627571D01*
X136655142Y-82684714D01*
X135794857Y-67823000D02*
X136366285Y-67823000D01*
X135680571Y-68165857D02*
X136080571Y-66965857D01*
X136480571Y-68165857D01*
X136823428Y-67080142D02*
X136880571Y-67023000D01*
X136994857Y-66965857D01*
X137280571Y-66965857D01*
X137394857Y-67023000D01*
X137452000Y-67080142D01*
X137509142Y-67194428D01*
X137509142Y-67308714D01*
X137452000Y-67480142D01*
X136766285Y-68165857D01*
X137509142Y-68165857D01*
X135566285Y-69065857D02*
X135852000Y-70265857D01*
X136080571Y-69408714D01*
X136309142Y-70265857D01*
X136594857Y-69065857D01*
X136994857Y-69180142D02*
X137052000Y-69123000D01*
X137166285Y-69065857D01*
X137452000Y-69065857D01*
X137566285Y-69123000D01*
X137623428Y-69180142D01*
X137680571Y-69294428D01*
X137680571Y-69408714D01*
X137623428Y-69580142D01*
X136937714Y-70265857D01*
X137680571Y-70265857D01*
X136166285Y-71737285D02*
X136337714Y-71794428D01*
X136394857Y-71851571D01*
X136452000Y-71965857D01*
X136452000Y-72137285D01*
X136394857Y-72251571D01*
X136337714Y-72308714D01*
X136223428Y-72365857D01*
X135766285Y-72365857D01*
X135766285Y-71165857D01*
X136166285Y-71165857D01*
X136280571Y-71223000D01*
X136337714Y-71280142D01*
X136394857Y-71394428D01*
X136394857Y-71508714D01*
X136337714Y-71623000D01*
X136280571Y-71680142D01*
X136166285Y-71737285D01*
X135766285Y-71737285D01*
X136909142Y-71280142D02*
X136966285Y-71223000D01*
X137080571Y-71165857D01*
X137366285Y-71165857D01*
X137480571Y-71223000D01*
X137537714Y-71280142D01*
X137594857Y-71394428D01*
X137594857Y-71508714D01*
X137537714Y-71680142D01*
X136852000Y-72365857D01*
X137594857Y-72365857D01*
X128682857Y-74173000D02*
X129254285Y-74173000D01*
X128568571Y-74515857D02*
X128968571Y-73315857D01*
X129368571Y-74515857D01*
X129997142Y-73315857D02*
X130111428Y-73315857D01*
X130225714Y-73373000D01*
X130282857Y-73430142D01*
X130340000Y-73544428D01*
X130397142Y-73773000D01*
X130397142Y-74058714D01*
X130340000Y-74287285D01*
X130282857Y-74401571D01*
X130225714Y-74458714D01*
X130111428Y-74515857D01*
X129997142Y-74515857D01*
X129882857Y-74458714D01*
X129825714Y-74401571D01*
X129768571Y-74287285D01*
X129711428Y-74058714D01*
X129711428Y-73773000D01*
X129768571Y-73544428D01*
X129825714Y-73430142D01*
X129882857Y-73373000D01*
X129997142Y-73315857D01*
X128454285Y-75415857D02*
X128740000Y-76615857D01*
X128968571Y-75758714D01*
X129197142Y-76615857D01*
X129482857Y-75415857D01*
X130168571Y-75415857D02*
X130282857Y-75415857D01*
X130397142Y-75473000D01*
X130454285Y-75530142D01*
X130511428Y-75644428D01*
X130568571Y-75873000D01*
X130568571Y-76158714D01*
X130511428Y-76387285D01*
X130454285Y-76501571D01*
X130397142Y-76558714D01*
X130282857Y-76615857D01*
X130168571Y-76615857D01*
X130054285Y-76558714D01*
X129997142Y-76501571D01*
X129940000Y-76387285D01*
X129882857Y-76158714D01*
X129882857Y-75873000D01*
X129940000Y-75644428D01*
X129997142Y-75530142D01*
X130054285Y-75473000D01*
X130168571Y-75415857D01*
X129054285Y-78087285D02*
X129225714Y-78144428D01*
X129282857Y-78201571D01*
X129340000Y-78315857D01*
X129340000Y-78487285D01*
X129282857Y-78601571D01*
X129225714Y-78658714D01*
X129111428Y-78715857D01*
X128654285Y-78715857D01*
X128654285Y-77515857D01*
X129054285Y-77515857D01*
X129168571Y-77573000D01*
X129225714Y-77630142D01*
X129282857Y-77744428D01*
X129282857Y-77858714D01*
X129225714Y-77973000D01*
X129168571Y-78030142D01*
X129054285Y-78087285D01*
X128654285Y-78087285D01*
X130082857Y-77515857D02*
X130197142Y-77515857D01*
X130311428Y-77573000D01*
X130368571Y-77630142D01*
X130425714Y-77744428D01*
X130482857Y-77973000D01*
X130482857Y-78258714D01*
X130425714Y-78487285D01*
X130368571Y-78601571D01*
X130311428Y-78658714D01*
X130197142Y-78715857D01*
X130082857Y-78715857D01*
X129968571Y-78658714D01*
X129911428Y-78601571D01*
X129854285Y-78487285D01*
X129797142Y-78258714D01*
X129797142Y-77973000D01*
X129854285Y-77744428D01*
X129911428Y-77630142D01*
X129968571Y-77573000D01*
X130082857Y-77515857D01*
X128809857Y-63886000D02*
X129381285Y-63886000D01*
X128695571Y-64228857D02*
X129095571Y-63028857D01*
X129495571Y-64228857D01*
X129781285Y-63028857D02*
X130524142Y-63028857D01*
X130124142Y-63486000D01*
X130295571Y-63486000D01*
X130409857Y-63543142D01*
X130467000Y-63600285D01*
X130524142Y-63714571D01*
X130524142Y-64000285D01*
X130467000Y-64114571D01*
X130409857Y-64171714D01*
X130295571Y-64228857D01*
X129952714Y-64228857D01*
X129838428Y-64171714D01*
X129781285Y-64114571D01*
X128581285Y-65128857D02*
X128867000Y-66328857D01*
X129095571Y-65471714D01*
X129324142Y-66328857D01*
X129609857Y-65128857D01*
X129952714Y-65128857D02*
X130695571Y-65128857D01*
X130295571Y-65586000D01*
X130467000Y-65586000D01*
X130581285Y-65643142D01*
X130638428Y-65700285D01*
X130695571Y-65814571D01*
X130695571Y-66100285D01*
X130638428Y-66214571D01*
X130581285Y-66271714D01*
X130467000Y-66328857D01*
X130124142Y-66328857D01*
X130009857Y-66271714D01*
X129952714Y-66214571D01*
X129181285Y-67800285D02*
X129352714Y-67857428D01*
X129409857Y-67914571D01*
X129467000Y-68028857D01*
X129467000Y-68200285D01*
X129409857Y-68314571D01*
X129352714Y-68371714D01*
X129238428Y-68428857D01*
X128781285Y-68428857D01*
X128781285Y-67228857D01*
X129181285Y-67228857D01*
X129295571Y-67286000D01*
X129352714Y-67343142D01*
X129409857Y-67457428D01*
X129409857Y-67571714D01*
X129352714Y-67686000D01*
X129295571Y-67743142D01*
X129181285Y-67800285D01*
X128781285Y-67800285D01*
X129867000Y-67228857D02*
X130609857Y-67228857D01*
X130209857Y-67686000D01*
X130381285Y-67686000D01*
X130495571Y-67743142D01*
X130552714Y-67800285D01*
X130609857Y-67914571D01*
X130609857Y-68200285D01*
X130552714Y-68314571D01*
X130495571Y-68371714D01*
X130381285Y-68428857D01*
X130038428Y-68428857D01*
X129924142Y-68371714D01*
X129867000Y-68314571D01*
X136484000Y-62003714D02*
X136419714Y-62075142D01*
X136226857Y-62146571D01*
X136098285Y-62146571D01*
X135905428Y-62075142D01*
X135776857Y-61932285D01*
X135712571Y-61789428D01*
X135648285Y-61503714D01*
X135648285Y-61289428D01*
X135712571Y-61003714D01*
X135776857Y-60860857D01*
X135905428Y-60718000D01*
X136098285Y-60646571D01*
X136226857Y-60646571D01*
X136419714Y-60718000D01*
X136484000Y-60789428D01*
X137062571Y-62146571D02*
X137062571Y-60646571D01*
X137062571Y-61360857D02*
X137834000Y-61360857D01*
X137834000Y-62146571D02*
X137834000Y-60646571D01*
X139184000Y-62146571D02*
X138412571Y-62146571D01*
X138798285Y-62146571D02*
X138798285Y-60646571D01*
X138669714Y-60860857D01*
X138541142Y-61003714D01*
X138412571Y-61075142D01*
X141562571Y-62003714D02*
X141498285Y-62075142D01*
X141305428Y-62146571D01*
X141176857Y-62146571D01*
X140984000Y-62075142D01*
X140855428Y-61932285D01*
X140791142Y-61789428D01*
X140726857Y-61503714D01*
X140726857Y-61289428D01*
X140791142Y-61003714D01*
X140855428Y-60860857D01*
X140984000Y-60718000D01*
X141176857Y-60646571D01*
X141305428Y-60646571D01*
X141498285Y-60718000D01*
X141562571Y-60789428D01*
X142141142Y-62146571D02*
X142141142Y-60646571D01*
X142141142Y-61360857D02*
X142912571Y-61360857D01*
X142912571Y-62146571D02*
X142912571Y-60646571D01*
X143491142Y-60789428D02*
X143555428Y-60718000D01*
X143684000Y-60646571D01*
X144005428Y-60646571D01*
X144134000Y-60718000D01*
X144198285Y-60789428D01*
X144262571Y-60932285D01*
X144262571Y-61075142D01*
X144198285Y-61289428D01*
X143426857Y-62146571D01*
X144262571Y-62146571D01*
X146641142Y-62003714D02*
X146576857Y-62075142D01*
X146384000Y-62146571D01*
X146255428Y-62146571D01*
X146062571Y-62075142D01*
X145934000Y-61932285D01*
X145869714Y-61789428D01*
X145805428Y-61503714D01*
X145805428Y-61289428D01*
X145869714Y-61003714D01*
X145934000Y-60860857D01*
X146062571Y-60718000D01*
X146255428Y-60646571D01*
X146384000Y-60646571D01*
X146576857Y-60718000D01*
X146641142Y-60789428D01*
X147219714Y-62146571D02*
X147219714Y-60646571D01*
X147219714Y-61360857D02*
X147991142Y-61360857D01*
X147991142Y-62146571D02*
X147991142Y-60646571D01*
X148505428Y-60646571D02*
X149341142Y-60646571D01*
X148891142Y-61218000D01*
X149084000Y-61218000D01*
X149212571Y-61289428D01*
X149276857Y-61360857D01*
X149341142Y-61503714D01*
X149341142Y-61860857D01*
X149276857Y-62003714D01*
X149212571Y-62075142D01*
X149084000Y-62146571D01*
X148698285Y-62146571D01*
X148569714Y-62075142D01*
X148505428Y-62003714D01*
X151719714Y-62003714D02*
X151655428Y-62075142D01*
X151462571Y-62146571D01*
X151334000Y-62146571D01*
X151141142Y-62075142D01*
X151012571Y-61932285D01*
X150948285Y-61789428D01*
X150884000Y-61503714D01*
X150884000Y-61289428D01*
X150948285Y-61003714D01*
X151012571Y-60860857D01*
X151141142Y-60718000D01*
X151334000Y-60646571D01*
X151462571Y-60646571D01*
X151655428Y-60718000D01*
X151719714Y-60789428D01*
X152298285Y-62146571D02*
X152298285Y-60646571D01*
X152298285Y-61360857D02*
X153069714Y-61360857D01*
X153069714Y-62146571D02*
X153069714Y-60646571D01*
X154291142Y-61146571D02*
X154291142Y-62146571D01*
X153969714Y-60575142D02*
X153648285Y-61646571D01*
X154484000Y-61646571D01*
X109315285Y-85442000D02*
X109886714Y-85442000D01*
X109201000Y-85784857D02*
X109601000Y-84584857D01*
X110001000Y-85784857D01*
X109686714Y-87256285D02*
X109858142Y-87313428D01*
X109915285Y-87370571D01*
X109972428Y-87484857D01*
X109972428Y-87656285D01*
X109915285Y-87770571D01*
X109858142Y-87827714D01*
X109743857Y-87884857D01*
X109286714Y-87884857D01*
X109286714Y-86684857D01*
X109686714Y-86684857D01*
X109801000Y-86742000D01*
X109858142Y-86799142D01*
X109915285Y-86913428D01*
X109915285Y-87027714D01*
X109858142Y-87142000D01*
X109801000Y-87199142D01*
X109686714Y-87256285D01*
X109286714Y-87256285D01*
X109972428Y-89870571D02*
X109915285Y-89927714D01*
X109743857Y-89984857D01*
X109629571Y-89984857D01*
X109458142Y-89927714D01*
X109343857Y-89813428D01*
X109286714Y-89699142D01*
X109229571Y-89470571D01*
X109229571Y-89299142D01*
X109286714Y-89070571D01*
X109343857Y-88956285D01*
X109458142Y-88842000D01*
X109629571Y-88784857D01*
X109743857Y-88784857D01*
X109915285Y-88842000D01*
X109972428Y-88899142D01*
X109286714Y-92084857D02*
X109286714Y-90884857D01*
X109572428Y-90884857D01*
X109743857Y-90942000D01*
X109858142Y-91056285D01*
X109915285Y-91170571D01*
X109972428Y-91399142D01*
X109972428Y-91570571D01*
X109915285Y-91799142D01*
X109858142Y-91913428D01*
X109743857Y-92027714D01*
X109572428Y-92084857D01*
X109286714Y-92084857D01*
X102203285Y-94078000D02*
X102774714Y-94078000D01*
X102089000Y-94420857D02*
X102489000Y-93220857D01*
X102889000Y-94420857D01*
X102574714Y-95892285D02*
X102746142Y-95949428D01*
X102803285Y-96006571D01*
X102860428Y-96120857D01*
X102860428Y-96292285D01*
X102803285Y-96406571D01*
X102746142Y-96463714D01*
X102631857Y-96520857D01*
X102174714Y-96520857D01*
X102174714Y-95320857D01*
X102574714Y-95320857D01*
X102689000Y-95378000D01*
X102746142Y-95435142D01*
X102803285Y-95549428D01*
X102803285Y-95663714D01*
X102746142Y-95778000D01*
X102689000Y-95835142D01*
X102574714Y-95892285D01*
X102174714Y-95892285D01*
X102860428Y-98506571D02*
X102803285Y-98563714D01*
X102631857Y-98620857D01*
X102517571Y-98620857D01*
X102346142Y-98563714D01*
X102231857Y-98449428D01*
X102174714Y-98335142D01*
X102117571Y-98106571D01*
X102117571Y-97935142D01*
X102174714Y-97706571D01*
X102231857Y-97592285D01*
X102346142Y-97478000D01*
X102517571Y-97420857D01*
X102631857Y-97420857D01*
X102803285Y-97478000D01*
X102860428Y-97535142D01*
X102174714Y-100720857D02*
X102174714Y-99520857D01*
X102460428Y-99520857D01*
X102631857Y-99578000D01*
X102746142Y-99692285D01*
X102803285Y-99806571D01*
X102860428Y-100035142D01*
X102860428Y-100206571D01*
X102803285Y-100435142D01*
X102746142Y-100549428D01*
X102631857Y-100663714D01*
X102460428Y-100720857D01*
X102174714Y-100720857D01*
X118459285Y-92300000D02*
X119030714Y-92300000D01*
X118345000Y-92642857D02*
X118745000Y-91442857D01*
X119145000Y-92642857D01*
X118830714Y-94114285D02*
X119002142Y-94171428D01*
X119059285Y-94228571D01*
X119116428Y-94342857D01*
X119116428Y-94514285D01*
X119059285Y-94628571D01*
X119002142Y-94685714D01*
X118887857Y-94742857D01*
X118430714Y-94742857D01*
X118430714Y-93542857D01*
X118830714Y-93542857D01*
X118945000Y-93600000D01*
X119002142Y-93657142D01*
X119059285Y-93771428D01*
X119059285Y-93885714D01*
X119002142Y-94000000D01*
X118945000Y-94057142D01*
X118830714Y-94114285D01*
X118430714Y-94114285D01*
X119116428Y-96728571D02*
X119059285Y-96785714D01*
X118887857Y-96842857D01*
X118773571Y-96842857D01*
X118602142Y-96785714D01*
X118487857Y-96671428D01*
X118430714Y-96557142D01*
X118373571Y-96328571D01*
X118373571Y-96157142D01*
X118430714Y-95928571D01*
X118487857Y-95814285D01*
X118602142Y-95700000D01*
X118773571Y-95642857D01*
X118887857Y-95642857D01*
X119059285Y-95700000D01*
X119116428Y-95757142D01*
X118430714Y-98942857D02*
X118430714Y-97742857D01*
X118716428Y-97742857D01*
X118887857Y-97800000D01*
X119002142Y-97914285D01*
X119059285Y-98028571D01*
X119116428Y-98257142D01*
X119116428Y-98428571D01*
X119059285Y-98657142D01*
X119002142Y-98771428D01*
X118887857Y-98885714D01*
X118716428Y-98942857D01*
X118430714Y-98942857D01*
D11*
G04 #@! TO.C,J5*
X125686000Y-62440000D02*
X126746000Y-62440000D01*
X125686000Y-63500000D02*
X125686000Y-62440000D01*
X127806000Y-64500000D02*
X125686000Y-64500000D01*
X127806000Y-68560000D02*
X127806000Y-64500000D01*
X125686000Y-68560000D02*
X127806000Y-68560000D01*
X125686000Y-64500000D02*
X125686000Y-68560000D01*
G04 #@! TO.C,J4*
X107636000Y-57718000D02*
X107636000Y-56388000D01*
X108966000Y-57718000D02*
X107636000Y-57718000D01*
X110236000Y-55058000D02*
X110236000Y-57718000D01*
X112836000Y-55058000D02*
X110236000Y-55058000D01*
X112836000Y-57718000D02*
X112836000Y-55058000D01*
X110236000Y-57718000D02*
X112836000Y-57718000D01*
G04 #@! TO.C,J2*
X159459000Y-68655000D02*
X160659000Y-68655000D01*
X160659000Y-68655000D02*
X160659000Y-69155000D01*
X160659000Y-69155000D02*
X163159000Y-69155000D01*
X163159000Y-69155000D02*
X163159000Y-74355000D01*
X163159000Y-74355000D02*
X160659000Y-74355000D01*
X160659000Y-74355000D02*
X160659000Y-74855000D01*
X160659000Y-74855000D02*
X157459000Y-74855000D01*
X154859000Y-74855000D02*
X145959000Y-74855000D01*
X145959000Y-74855000D02*
X145959000Y-68655000D01*
X145959000Y-68655000D02*
X147159000Y-68655000D01*
X150359000Y-68655000D02*
X156859000Y-68655000D01*
X159459000Y-68655000D02*
X159459000Y-66655000D01*
X156859000Y-68655000D02*
X156859000Y-66655000D01*
G04 #@! TO.C,C1*
X110148000Y-61095000D02*
X110148000Y-62095000D01*
X111848000Y-62095000D02*
X111848000Y-61095000D01*
G04 #@! TO.C,C2*
X110656000Y-96766000D02*
X110656000Y-97766000D01*
X112356000Y-97766000D02*
X112356000Y-96766000D01*
G04 #@! TO.C,C3*
X128485000Y-96242000D02*
X128485000Y-95242000D01*
X126785000Y-95242000D02*
X126785000Y-96242000D01*
G04 #@! TO.C,C4*
X120992000Y-89035000D02*
X120992000Y-88035000D01*
X119292000Y-88035000D02*
X119292000Y-89035000D01*
G04 #@! TO.C,C5*
X130405000Y-58332000D02*
X129405000Y-58332000D01*
X129405000Y-60032000D02*
X130405000Y-60032000D01*
G04 #@! TO.C,J1*
X134941000Y-59242000D02*
X134941000Y-57912000D01*
X136271000Y-59242000D02*
X134941000Y-59242000D01*
X137541000Y-56582000D02*
X137541000Y-59242000D01*
X155381000Y-56582000D02*
X137541000Y-56582000D01*
X155381000Y-59242000D02*
X155381000Y-56582000D01*
X137541000Y-59242000D02*
X155381000Y-59242000D01*
G04 #@! TO.C,J6*
X84007000Y-70545000D02*
X82677000Y-70545000D01*
X84007000Y-69215000D02*
X84007000Y-70545000D01*
X81347000Y-67945000D02*
X84007000Y-67945000D01*
X81347000Y-65345000D02*
X81347000Y-67945000D01*
X84007000Y-65345000D02*
X81347000Y-65345000D01*
X84007000Y-67945000D02*
X84007000Y-65345000D01*
G04 #@! TO.C,JP1*
X113080000Y-84217000D02*
G75*
G02X113780000Y-84917000I0J-700000D01*
G01*
X113780000Y-85517000D02*
G75*
G02X113080000Y-86217000I-700000J0D01*
G01*
X111680000Y-86217000D02*
G75*
G02X110980000Y-85517000I0J700000D01*
G01*
X110980000Y-84917000D02*
G75*
G02X111680000Y-84217000I700000J0D01*
G01*
X110980000Y-85517000D02*
X110980000Y-84917000D01*
X113080000Y-86217000D02*
X111680000Y-86217000D01*
X113780000Y-84917000D02*
X113780000Y-85517000D01*
X111680000Y-84217000D02*
X113080000Y-84217000D01*
G04 #@! TO.C,JP2*
X116509000Y-86249000D02*
G75*
G02X117209000Y-86949000I0J-700000D01*
G01*
X117209000Y-87549000D02*
G75*
G02X116509000Y-88249000I-700000J0D01*
G01*
X115109000Y-88249000D02*
G75*
G02X114409000Y-87549000I0J700000D01*
G01*
X114409000Y-86949000D02*
G75*
G02X115109000Y-86249000I700000J0D01*
G01*
X114409000Y-87549000D02*
X114409000Y-86949000D01*
X116509000Y-88249000D02*
X115109000Y-88249000D01*
X117209000Y-86949000D02*
X117209000Y-87549000D01*
X115109000Y-86249000D02*
X116509000Y-86249000D01*
G04 #@! TO.C,JP3*
X111680000Y-88408000D02*
X113080000Y-88408000D01*
X113780000Y-89108000D02*
X113780000Y-89708000D01*
X113080000Y-90408000D02*
X111680000Y-90408000D01*
X110980000Y-89708000D02*
X110980000Y-89108000D01*
X110980000Y-89108000D02*
G75*
G02X111680000Y-88408000I700000J0D01*
G01*
X111680000Y-90408000D02*
G75*
G02X110980000Y-89708000I0J700000D01*
G01*
X113780000Y-89708000D02*
G75*
G02X113080000Y-90408000I-700000J0D01*
G01*
X113080000Y-88408000D02*
G75*
G02X113780000Y-89108000I0J-700000D01*
G01*
G04 #@! TO.C,JP4*
X116128000Y-90313000D02*
G75*
G02X116828000Y-91013000I0J-700000D01*
G01*
X116828000Y-91613000D02*
G75*
G02X116128000Y-92313000I-700000J0D01*
G01*
X114728000Y-92313000D02*
G75*
G02X114028000Y-91613000I0J700000D01*
G01*
X114028000Y-91013000D02*
G75*
G02X114728000Y-90313000I700000J0D01*
G01*
X114028000Y-91613000D02*
X114028000Y-91013000D01*
X116128000Y-92313000D02*
X114728000Y-92313000D01*
X116828000Y-91013000D02*
X116828000Y-91613000D01*
X114728000Y-90313000D02*
X116128000Y-90313000D01*
G04 #@! TO.C,JP5*
X104329000Y-93361000D02*
X105729000Y-93361000D01*
X106429000Y-94061000D02*
X106429000Y-94661000D01*
X105729000Y-95361000D02*
X104329000Y-95361000D01*
X103629000Y-94661000D02*
X103629000Y-94061000D01*
X103629000Y-94061000D02*
G75*
G02X104329000Y-93361000I700000J0D01*
G01*
X104329000Y-95361000D02*
G75*
G02X103629000Y-94661000I0J700000D01*
G01*
X106429000Y-94661000D02*
G75*
G02X105729000Y-95361000I-700000J0D01*
G01*
X105729000Y-93361000D02*
G75*
G02X106429000Y-94061000I0J-700000D01*
G01*
G04 #@! TO.C,JP6*
X108411000Y-95139000D02*
G75*
G02X109111000Y-95839000I0J-700000D01*
G01*
X109111000Y-96439000D02*
G75*
G02X108411000Y-97139000I-700000J0D01*
G01*
X107011000Y-97139000D02*
G75*
G02X106311000Y-96439000I0J700000D01*
G01*
X106311000Y-95839000D02*
G75*
G02X107011000Y-95139000I700000J0D01*
G01*
X106311000Y-96439000D02*
X106311000Y-95839000D01*
X108411000Y-97139000D02*
X107011000Y-97139000D01*
X109111000Y-95839000D02*
X109111000Y-96439000D01*
X107011000Y-95139000D02*
X108411000Y-95139000D01*
G04 #@! TO.C,JP7*
X104314000Y-96790000D02*
X105714000Y-96790000D01*
X106414000Y-97490000D02*
X106414000Y-98090000D01*
X105714000Y-98790000D02*
X104314000Y-98790000D01*
X103614000Y-98090000D02*
X103614000Y-97490000D01*
X103614000Y-97490000D02*
G75*
G02X104314000Y-96790000I700000J0D01*
G01*
X104314000Y-98790000D02*
G75*
G02X103614000Y-98090000I0J700000D01*
G01*
X106414000Y-98090000D02*
G75*
G02X105714000Y-98790000I-700000J0D01*
G01*
X105714000Y-96790000D02*
G75*
G02X106414000Y-97490000I0J-700000D01*
G01*
G04 #@! TO.C,JP8*
X108381000Y-98441000D02*
G75*
G02X109081000Y-99141000I0J-700000D01*
G01*
X109081000Y-99741000D02*
G75*
G02X108381000Y-100441000I-700000J0D01*
G01*
X106981000Y-100441000D02*
G75*
G02X106281000Y-99741000I0J700000D01*
G01*
X106281000Y-99141000D02*
G75*
G02X106981000Y-98441000I700000J0D01*
G01*
X106281000Y-99741000D02*
X106281000Y-99141000D01*
X108381000Y-100441000D02*
X106981000Y-100441000D01*
X109081000Y-99141000D02*
X109081000Y-99741000D01*
X106981000Y-98441000D02*
X108381000Y-98441000D01*
G04 #@! TO.C,JP9*
X120570000Y-91202000D02*
X121970000Y-91202000D01*
X122670000Y-91902000D02*
X122670000Y-92502000D01*
X121970000Y-93202000D02*
X120570000Y-93202000D01*
X119870000Y-92502000D02*
X119870000Y-91902000D01*
X119870000Y-91902000D02*
G75*
G02X120570000Y-91202000I700000J0D01*
G01*
X120570000Y-93202000D02*
G75*
G02X119870000Y-92502000I0J700000D01*
G01*
X122670000Y-92502000D02*
G75*
G02X121970000Y-93202000I-700000J0D01*
G01*
X121970000Y-91202000D02*
G75*
G02X122670000Y-91902000I0J-700000D01*
G01*
G04 #@! TO.C,JP10*
X123364000Y-93107000D02*
X124764000Y-93107000D01*
X125464000Y-93807000D02*
X125464000Y-94407000D01*
X124764000Y-95107000D02*
X123364000Y-95107000D01*
X122664000Y-94407000D02*
X122664000Y-93807000D01*
X122664000Y-93807000D02*
G75*
G02X123364000Y-93107000I700000J0D01*
G01*
X123364000Y-95107000D02*
G75*
G02X122664000Y-94407000I0J700000D01*
G01*
X125464000Y-94407000D02*
G75*
G02X124764000Y-95107000I-700000J0D01*
G01*
X124764000Y-93107000D02*
G75*
G02X125464000Y-93807000I0J-700000D01*
G01*
G04 #@! TO.C,JP11*
X120585000Y-95012000D02*
X121985000Y-95012000D01*
X122685000Y-95712000D02*
X122685000Y-96312000D01*
X121985000Y-97012000D02*
X120585000Y-97012000D01*
X119885000Y-96312000D02*
X119885000Y-95712000D01*
X119885000Y-95712000D02*
G75*
G02X120585000Y-95012000I700000J0D01*
G01*
X120585000Y-97012000D02*
G75*
G02X119885000Y-96312000I0J700000D01*
G01*
X122685000Y-96312000D02*
G75*
G02X121985000Y-97012000I-700000J0D01*
G01*
X121985000Y-95012000D02*
G75*
G02X122685000Y-95712000I0J-700000D01*
G01*
G04 #@! TO.C,JP12*
X124764000Y-97044000D02*
G75*
G02X125464000Y-97744000I0J-700000D01*
G01*
X125464000Y-98344000D02*
G75*
G02X124764000Y-99044000I-700000J0D01*
G01*
X123364000Y-99044000D02*
G75*
G02X122664000Y-98344000I0J700000D01*
G01*
X122664000Y-97744000D02*
G75*
G02X123364000Y-97044000I700000J0D01*
G01*
X122664000Y-98344000D02*
X122664000Y-97744000D01*
X124764000Y-99044000D02*
X123364000Y-99044000D01*
X125464000Y-97744000D02*
X125464000Y-98344000D01*
X123364000Y-97044000D02*
X124764000Y-97044000D01*
G04 #@! TO.C,R1*
X108611000Y-77334000D02*
X107411000Y-77334000D01*
X107411000Y-75574000D02*
X108611000Y-75574000D01*
G04 #@! TO.C,R2*
X108611000Y-75302000D02*
X107411000Y-75302000D01*
X107411000Y-73542000D02*
X108611000Y-73542000D01*
G04 #@! TO.C,R3*
X113420000Y-80356000D02*
X113420000Y-79156000D01*
X115180000Y-79156000D02*
X115180000Y-80356000D01*
G04 #@! TO.C,R4*
X114418000Y-96616000D02*
X114418000Y-97816000D01*
X112658000Y-97816000D02*
X112658000Y-96616000D01*
G04 #@! TO.C,R5*
X130547000Y-95097000D02*
X130547000Y-96297000D01*
X128787000Y-96297000D02*
X128787000Y-95097000D01*
G04 #@! TO.C,R6*
X114690000Y-97816000D02*
X114690000Y-96616000D01*
X116450000Y-96616000D02*
X116450000Y-97816000D01*
G04 #@! TO.C,R7*
X132579000Y-95097000D02*
X132579000Y-96297000D01*
X130819000Y-96297000D02*
X130819000Y-95097000D01*
G04 #@! TO.C,R8*
X123580000Y-89053000D02*
X123580000Y-87853000D01*
X125340000Y-87853000D02*
X125340000Y-89053000D01*
G04 #@! TO.C,R9*
X123181000Y-87853000D02*
X123181000Y-89053000D01*
X121421000Y-89053000D02*
X121421000Y-87853000D01*
G04 #@! TO.C,R10*
X119117000Y-79156000D02*
X119117000Y-80356000D01*
X117357000Y-80356000D02*
X117357000Y-79156000D01*
G04 #@! TO.C,R11*
X115452000Y-80356000D02*
X115452000Y-79156000D01*
X117212000Y-79156000D02*
X117212000Y-80356000D01*
G04 #@! TO.C,R12*
X108086000Y-62195000D02*
X108086000Y-60995000D01*
X109846000Y-60995000D02*
X109846000Y-62195000D01*
G04 #@! TO.C,R13*
X107814000Y-60995000D02*
X107814000Y-62195000D01*
X106054000Y-62195000D02*
X106054000Y-60995000D01*
G04 #@! TO.C,SW1*
X152694000Y-91582000D02*
X152694000Y-92582000D01*
X153194000Y-92082000D02*
X152194000Y-92082000D01*
X149194000Y-98182000D02*
X146794000Y-98182000D01*
X153994000Y-98182000D02*
X151394000Y-98182000D01*
X158594000Y-98182000D02*
X156194000Y-98182000D01*
X156794000Y-84882000D02*
X156494000Y-84582000D01*
X156794000Y-84282000D02*
X156794000Y-84882000D01*
X156494000Y-84582000D02*
X156794000Y-84282000D01*
X158594000Y-85982000D02*
X146794000Y-85982000D01*
X158594000Y-90082000D02*
X158594000Y-85982000D01*
X146794000Y-90082000D02*
X146794000Y-85982000D01*
X146794000Y-98182000D02*
X146794000Y-94082000D01*
X158594000Y-94082000D02*
X158594000Y-98182000D01*
X155694000Y-92082000D02*
G75*
G03X155694000Y-92082000I-3000000J0D01*
G01*
D12*
G04 #@! TO.C,U1*
X86487000Y-55245000D02*
X104267000Y-55245000D01*
X86487000Y-90805000D02*
X86487000Y-55245000D01*
X104267000Y-90805000D02*
X86487000Y-90805000D01*
X104267000Y-55245000D02*
X104267000Y-90805000D01*
X90297000Y-81915000D02*
X90297000Y-73025000D01*
X100457000Y-81915000D02*
X100457000Y-73025000D01*
X100457000Y-73025000D02*
X90297000Y-73025000D01*
X90297000Y-81915000D02*
X100457000Y-81915000D01*
X97917000Y-85725000D02*
X97917000Y-88265000D01*
X92837000Y-85725000D02*
X97917000Y-85725000D01*
X92837000Y-88265000D02*
X92837000Y-85725000D01*
X97917000Y-88265000D02*
X92837000Y-88265000D01*
X92837000Y-61595000D02*
X90297000Y-61595000D01*
X92837000Y-64135000D02*
X92837000Y-61595000D01*
X90297000Y-64135000D02*
X92837000Y-64135000D01*
X90297000Y-61595000D02*
X90297000Y-64135000D01*
X91567000Y-60325000D02*
X91567000Y-55245000D01*
X99187000Y-60325000D02*
X99187000Y-55245000D01*
X91567000Y-60325000D02*
X99187000Y-60325000D01*
X92837000Y-66675000D02*
X90297000Y-66675000D01*
X92837000Y-70485000D02*
X92837000Y-66675000D01*
X90297000Y-70485000D02*
X92837000Y-70485000D01*
X90297000Y-66675000D02*
X90297000Y-70485000D01*
X99187000Y-53975000D02*
X99187000Y-55245000D01*
X91567000Y-53975000D02*
X99187000Y-53975000D01*
X91567000Y-55245000D02*
X91567000Y-53975000D01*
G04 #@! TO.C,U2*
X120336000Y-70506000D02*
X114361000Y-70506000D01*
X118811000Y-63606000D02*
X114361000Y-63606000D01*
D11*
G04 #@! TO.C,J7*
X138813000Y-93657000D02*
X138813000Y-96307000D01*
X138813000Y-85257000D02*
X138813000Y-87907000D01*
X138813000Y-96307000D02*
X144663000Y-96307000D01*
X138813000Y-89007000D02*
X138813000Y-92507000D01*
X138813000Y-85257000D02*
X144663000Y-85257000D01*
X144663000Y-85257000D02*
X144663000Y-96307000D01*
X138813000Y-88157000D02*
X138813000Y-88757000D01*
X138813000Y-92757000D02*
X138813000Y-93357000D01*
G04 #@! TO.C,J3*
X132971000Y-93657000D02*
X132971000Y-96307000D01*
X132971000Y-85257000D02*
X132971000Y-87907000D01*
X132971000Y-96307000D02*
X138821000Y-96307000D01*
X132971000Y-89007000D02*
X132971000Y-92507000D01*
X132971000Y-85257000D02*
X138821000Y-85257000D01*
X138821000Y-85257000D02*
X138821000Y-96307000D01*
X132971000Y-88157000D02*
X132971000Y-88757000D01*
X132971000Y-92757000D02*
X132971000Y-93357000D01*
G04 #@! TO.C,J8*
X132544000Y-66536000D02*
X133604000Y-66536000D01*
X132544000Y-67596000D02*
X132544000Y-66536000D01*
X134664000Y-68596000D02*
X132544000Y-68596000D01*
X134664000Y-72656000D02*
X134664000Y-68596000D01*
X132544000Y-72656000D02*
X134664000Y-72656000D01*
X132544000Y-68596000D02*
X132544000Y-72656000D01*
G04 #@! TO.C,J9*
X125686000Y-74946000D02*
X125686000Y-79006000D01*
X125686000Y-79006000D02*
X127806000Y-79006000D01*
X127806000Y-79006000D02*
X127806000Y-74946000D01*
X127806000Y-74946000D02*
X125686000Y-74946000D01*
X125686000Y-73946000D02*
X125686000Y-72886000D01*
X125686000Y-72886000D02*
X126746000Y-72886000D01*
G04 #@! TO.C,J10*
X132671000Y-77712000D02*
X133731000Y-77712000D01*
X132671000Y-78772000D02*
X132671000Y-77712000D01*
X134791000Y-79772000D02*
X132671000Y-79772000D01*
X134791000Y-83832000D02*
X134791000Y-79772000D01*
X132671000Y-83832000D02*
X134791000Y-83832000D01*
X132671000Y-79772000D02*
X132671000Y-83832000D01*
G04 #@! TO.C,J4*
D12*
X106088380Y-56721333D02*
X106802666Y-56721333D01*
X106945523Y-56768952D01*
X107040761Y-56864190D01*
X107088380Y-57007047D01*
X107088380Y-57102285D01*
X106421714Y-55816571D02*
X107088380Y-55816571D01*
X106040761Y-56054666D02*
X106755047Y-56292761D01*
X106755047Y-55673714D01*
X108847095Y-58253380D02*
X108370904Y-58253380D01*
X108323285Y-58729571D01*
X108370904Y-58681952D01*
X108466142Y-58634333D01*
X108704238Y-58634333D01*
X108799476Y-58681952D01*
X108847095Y-58729571D01*
X108894714Y-58824809D01*
X108894714Y-59062904D01*
X108847095Y-59158142D01*
X108799476Y-59205761D01*
X108704238Y-59253380D01*
X108466142Y-59253380D01*
X108370904Y-59205761D01*
X108323285Y-59158142D01*
X109180428Y-58253380D02*
X109513761Y-59253380D01*
X109847095Y-58253380D01*
X110942333Y-59253380D02*
X110942333Y-58586714D01*
X110942333Y-58253380D02*
X110894714Y-58301000D01*
X110942333Y-58348619D01*
X110989952Y-58301000D01*
X110942333Y-58253380D01*
X110942333Y-58348619D01*
X111418523Y-58586714D02*
X111418523Y-59253380D01*
X111418523Y-58681952D02*
X111466142Y-58634333D01*
X111561380Y-58586714D01*
X111704238Y-58586714D01*
X111799476Y-58634333D01*
X111847095Y-58729571D01*
X111847095Y-59253380D01*
G04 #@! TO.C,J2*
X152447666Y-71207380D02*
X152447666Y-71921666D01*
X152400047Y-72064523D01*
X152304809Y-72159761D01*
X152161952Y-72207380D01*
X152066714Y-72207380D01*
X152876238Y-71302619D02*
X152923857Y-71255000D01*
X153019095Y-71207380D01*
X153257190Y-71207380D01*
X153352428Y-71255000D01*
X153400047Y-71302619D01*
X153447666Y-71397857D01*
X153447666Y-71493095D01*
X153400047Y-71635952D01*
X152828619Y-72207380D01*
X153447666Y-72207380D01*
G04 #@! TO.C,C1*
X111355142Y-64301666D02*
X111402761Y-64349285D01*
X111450380Y-64492142D01*
X111450380Y-64587380D01*
X111402761Y-64730238D01*
X111307523Y-64825476D01*
X111212285Y-64873095D01*
X111021809Y-64920714D01*
X110878952Y-64920714D01*
X110688476Y-64873095D01*
X110593238Y-64825476D01*
X110498000Y-64730238D01*
X110450380Y-64587380D01*
X110450380Y-64492142D01*
X110498000Y-64349285D01*
X110545619Y-64301666D01*
X111450380Y-63349285D02*
X111450380Y-63920714D01*
X111450380Y-63635000D02*
X110450380Y-63635000D01*
X110593238Y-63730238D01*
X110688476Y-63825476D01*
X110736095Y-63920714D01*
G04 #@! TO.C,C2*
X111863142Y-94638666D02*
X111910761Y-94686285D01*
X111958380Y-94829142D01*
X111958380Y-94924380D01*
X111910761Y-95067238D01*
X111815523Y-95162476D01*
X111720285Y-95210095D01*
X111529809Y-95257714D01*
X111386952Y-95257714D01*
X111196476Y-95210095D01*
X111101238Y-95162476D01*
X111006000Y-95067238D01*
X110958380Y-94924380D01*
X110958380Y-94829142D01*
X111006000Y-94686285D01*
X111053619Y-94638666D01*
X111053619Y-94257714D02*
X111006000Y-94210095D01*
X110958380Y-94114857D01*
X110958380Y-93876761D01*
X111006000Y-93781523D01*
X111053619Y-93733904D01*
X111148857Y-93686285D01*
X111244095Y-93686285D01*
X111386952Y-93733904D01*
X111958380Y-94305333D01*
X111958380Y-93686285D01*
G04 #@! TO.C,C3*
X127992142Y-92876666D02*
X128039761Y-92924285D01*
X128087380Y-93067142D01*
X128087380Y-93162380D01*
X128039761Y-93305238D01*
X127944523Y-93400476D01*
X127849285Y-93448095D01*
X127658809Y-93495714D01*
X127515952Y-93495714D01*
X127325476Y-93448095D01*
X127230238Y-93400476D01*
X127135000Y-93305238D01*
X127087380Y-93162380D01*
X127087380Y-93067142D01*
X127135000Y-92924285D01*
X127182619Y-92876666D01*
X127087380Y-92543333D02*
X127087380Y-91924285D01*
X127468333Y-92257619D01*
X127468333Y-92114761D01*
X127515952Y-92019523D01*
X127563571Y-91971904D01*
X127658809Y-91924285D01*
X127896904Y-91924285D01*
X127992142Y-91971904D01*
X128039761Y-92019523D01*
X128087380Y-92114761D01*
X128087380Y-92400476D01*
X128039761Y-92495714D01*
X127992142Y-92543333D01*
G04 #@! TO.C,C4*
X120499142Y-85891666D02*
X120546761Y-85939285D01*
X120594380Y-86082142D01*
X120594380Y-86177380D01*
X120546761Y-86320238D01*
X120451523Y-86415476D01*
X120356285Y-86463095D01*
X120165809Y-86510714D01*
X120022952Y-86510714D01*
X119832476Y-86463095D01*
X119737238Y-86415476D01*
X119642000Y-86320238D01*
X119594380Y-86177380D01*
X119594380Y-86082142D01*
X119642000Y-85939285D01*
X119689619Y-85891666D01*
X119927714Y-85034523D02*
X120594380Y-85034523D01*
X119546761Y-85272619D02*
X120261047Y-85510714D01*
X120261047Y-84891666D01*
G04 #@! TO.C,C5*
X126960333Y-59412142D02*
X126912714Y-59459761D01*
X126769857Y-59507380D01*
X126674619Y-59507380D01*
X126531761Y-59459761D01*
X126436523Y-59364523D01*
X126388904Y-59269285D01*
X126341285Y-59078809D01*
X126341285Y-58935952D01*
X126388904Y-58745476D01*
X126436523Y-58650238D01*
X126531761Y-58555000D01*
X126674619Y-58507380D01*
X126769857Y-58507380D01*
X126912714Y-58555000D01*
X126960333Y-58602619D01*
X127865095Y-58507380D02*
X127388904Y-58507380D01*
X127341285Y-58983571D01*
X127388904Y-58935952D01*
X127484142Y-58888333D01*
X127722238Y-58888333D01*
X127817476Y-58935952D01*
X127865095Y-58983571D01*
X127912714Y-59078809D01*
X127912714Y-59316904D01*
X127865095Y-59412142D01*
X127817476Y-59459761D01*
X127722238Y-59507380D01*
X127484142Y-59507380D01*
X127388904Y-59459761D01*
X127341285Y-59412142D01*
G04 #@! TO.C,J6*
X81351380Y-71326000D02*
X80875190Y-71659333D01*
X81351380Y-71897428D02*
X80351380Y-71897428D01*
X80351380Y-71516476D01*
X80399000Y-71421238D01*
X80446619Y-71373619D01*
X80541857Y-71326000D01*
X80684714Y-71326000D01*
X80779952Y-71373619D01*
X80827571Y-71421238D01*
X80875190Y-71516476D01*
X80875190Y-71897428D01*
X80351380Y-70992666D02*
X81351380Y-70326000D01*
X80351380Y-70326000D02*
X81351380Y-70992666D01*
X80351380Y-70087904D02*
X80351380Y-69516476D01*
X81351380Y-69802190D02*
X80351380Y-69802190D01*
X80351380Y-69278380D02*
X81351380Y-68611714D01*
X80351380Y-68611714D02*
X81351380Y-69278380D01*
X80303761Y-67516476D02*
X81589476Y-68373619D01*
X81256142Y-66611714D02*
X81303761Y-66659333D01*
X81351380Y-66802190D01*
X81351380Y-66897428D01*
X81303761Y-67040285D01*
X81208523Y-67135523D01*
X81113285Y-67183142D01*
X80922809Y-67230761D01*
X80779952Y-67230761D01*
X80589476Y-67183142D01*
X80494238Y-67135523D01*
X80399000Y-67040285D01*
X80351380Y-66897428D01*
X80351380Y-66802190D01*
X80399000Y-66659333D01*
X80446619Y-66611714D01*
X81065666Y-66230761D02*
X81065666Y-65754571D01*
X81351380Y-66326000D02*
X80351380Y-65992666D01*
X81351380Y-65659333D01*
X81351380Y-65326000D02*
X80351380Y-65326000D01*
X81351380Y-64754571D01*
X80351380Y-64754571D01*
G04 #@! TO.C,R1*
X105497333Y-76779380D02*
X105164000Y-76303190D01*
X104925904Y-76779380D02*
X104925904Y-75779380D01*
X105306857Y-75779380D01*
X105402095Y-75827000D01*
X105449714Y-75874619D01*
X105497333Y-75969857D01*
X105497333Y-76112714D01*
X105449714Y-76207952D01*
X105402095Y-76255571D01*
X105306857Y-76303190D01*
X104925904Y-76303190D01*
X106449714Y-76779380D02*
X105878285Y-76779380D01*
X106164000Y-76779380D02*
X106164000Y-75779380D01*
X106068761Y-75922238D01*
X105973523Y-76017476D01*
X105878285Y-76065095D01*
G04 #@! TO.C,R2*
X105497333Y-74874380D02*
X105164000Y-74398190D01*
X104925904Y-74874380D02*
X104925904Y-73874380D01*
X105306857Y-73874380D01*
X105402095Y-73922000D01*
X105449714Y-73969619D01*
X105497333Y-74064857D01*
X105497333Y-74207714D01*
X105449714Y-74302952D01*
X105402095Y-74350571D01*
X105306857Y-74398190D01*
X104925904Y-74398190D01*
X105878285Y-73969619D02*
X105925904Y-73922000D01*
X106021142Y-73874380D01*
X106259238Y-73874380D01*
X106354476Y-73922000D01*
X106402095Y-73969619D01*
X106449714Y-74064857D01*
X106449714Y-74160095D01*
X106402095Y-74302952D01*
X105830666Y-74874380D01*
X106449714Y-74874380D01*
G04 #@! TO.C,R3*
X114752380Y-77255666D02*
X114276190Y-77589000D01*
X114752380Y-77827095D02*
X113752380Y-77827095D01*
X113752380Y-77446142D01*
X113800000Y-77350904D01*
X113847619Y-77303285D01*
X113942857Y-77255666D01*
X114085714Y-77255666D01*
X114180952Y-77303285D01*
X114228571Y-77350904D01*
X114276190Y-77446142D01*
X114276190Y-77827095D01*
X113752380Y-76922333D02*
X113752380Y-76303285D01*
X114133333Y-76636619D01*
X114133333Y-76493761D01*
X114180952Y-76398523D01*
X114228571Y-76350904D01*
X114323809Y-76303285D01*
X114561904Y-76303285D01*
X114657142Y-76350904D01*
X114704761Y-76398523D01*
X114752380Y-76493761D01*
X114752380Y-76779476D01*
X114704761Y-76874714D01*
X114657142Y-76922333D01*
G04 #@! TO.C,R4*
X114051380Y-94842666D02*
X113575190Y-95176000D01*
X114051380Y-95414095D02*
X113051380Y-95414095D01*
X113051380Y-95033142D01*
X113099000Y-94937904D01*
X113146619Y-94890285D01*
X113241857Y-94842666D01*
X113384714Y-94842666D01*
X113479952Y-94890285D01*
X113527571Y-94937904D01*
X113575190Y-95033142D01*
X113575190Y-95414095D01*
X113384714Y-93985523D02*
X114051380Y-93985523D01*
X113003761Y-94223619D02*
X113718047Y-94461714D01*
X113718047Y-93842666D01*
G04 #@! TO.C,R5*
X130119380Y-93384666D02*
X129643190Y-93718000D01*
X130119380Y-93956095D02*
X129119380Y-93956095D01*
X129119380Y-93575142D01*
X129167000Y-93479904D01*
X129214619Y-93432285D01*
X129309857Y-93384666D01*
X129452714Y-93384666D01*
X129547952Y-93432285D01*
X129595571Y-93479904D01*
X129643190Y-93575142D01*
X129643190Y-93956095D01*
X129119380Y-92479904D02*
X129119380Y-92956095D01*
X129595571Y-93003714D01*
X129547952Y-92956095D01*
X129500333Y-92860857D01*
X129500333Y-92622761D01*
X129547952Y-92527523D01*
X129595571Y-92479904D01*
X129690809Y-92432285D01*
X129928904Y-92432285D01*
X130024142Y-92479904D01*
X130071761Y-92527523D01*
X130119380Y-92622761D01*
X130119380Y-92860857D01*
X130071761Y-92956095D01*
X130024142Y-93003714D01*
G04 #@! TO.C,R6*
X116022380Y-94908666D02*
X115546190Y-95242000D01*
X116022380Y-95480095D02*
X115022380Y-95480095D01*
X115022380Y-95099142D01*
X115070000Y-95003904D01*
X115117619Y-94956285D01*
X115212857Y-94908666D01*
X115355714Y-94908666D01*
X115450952Y-94956285D01*
X115498571Y-95003904D01*
X115546190Y-95099142D01*
X115546190Y-95480095D01*
X115022380Y-94051523D02*
X115022380Y-94242000D01*
X115070000Y-94337238D01*
X115117619Y-94384857D01*
X115260476Y-94480095D01*
X115450952Y-94527714D01*
X115831904Y-94527714D01*
X115927142Y-94480095D01*
X115974761Y-94432476D01*
X116022380Y-94337238D01*
X116022380Y-94146761D01*
X115974761Y-94051523D01*
X115927142Y-94003904D01*
X115831904Y-93956285D01*
X115593809Y-93956285D01*
X115498571Y-94003904D01*
X115450952Y-94051523D01*
X115403333Y-94146761D01*
X115403333Y-94337238D01*
X115450952Y-94432476D01*
X115498571Y-94480095D01*
X115593809Y-94527714D01*
G04 #@! TO.C,R7*
X132151380Y-93323666D02*
X131675190Y-93657000D01*
X132151380Y-93895095D02*
X131151380Y-93895095D01*
X131151380Y-93514142D01*
X131199000Y-93418904D01*
X131246619Y-93371285D01*
X131341857Y-93323666D01*
X131484714Y-93323666D01*
X131579952Y-93371285D01*
X131627571Y-93418904D01*
X131675190Y-93514142D01*
X131675190Y-93895095D01*
X131151380Y-92990333D02*
X131151380Y-92323666D01*
X132151380Y-92752238D01*
G04 #@! TO.C,R8*
X124912380Y-85825666D02*
X124436190Y-86159000D01*
X124912380Y-86397095D02*
X123912380Y-86397095D01*
X123912380Y-86016142D01*
X123960000Y-85920904D01*
X124007619Y-85873285D01*
X124102857Y-85825666D01*
X124245714Y-85825666D01*
X124340952Y-85873285D01*
X124388571Y-85920904D01*
X124436190Y-86016142D01*
X124436190Y-86397095D01*
X124340952Y-85254238D02*
X124293333Y-85349476D01*
X124245714Y-85397095D01*
X124150476Y-85444714D01*
X124102857Y-85444714D01*
X124007619Y-85397095D01*
X123960000Y-85349476D01*
X123912380Y-85254238D01*
X123912380Y-85063761D01*
X123960000Y-84968523D01*
X124007619Y-84920904D01*
X124102857Y-84873285D01*
X124150476Y-84873285D01*
X124245714Y-84920904D01*
X124293333Y-84968523D01*
X124340952Y-85063761D01*
X124340952Y-85254238D01*
X124388571Y-85349476D01*
X124436190Y-85397095D01*
X124531428Y-85444714D01*
X124721904Y-85444714D01*
X124817142Y-85397095D01*
X124864761Y-85349476D01*
X124912380Y-85254238D01*
X124912380Y-85063761D01*
X124864761Y-84968523D01*
X124817142Y-84920904D01*
X124721904Y-84873285D01*
X124531428Y-84873285D01*
X124436190Y-84920904D01*
X124388571Y-84968523D01*
X124340952Y-85063761D01*
G04 #@! TO.C,R9*
X122753380Y-86079666D02*
X122277190Y-86413000D01*
X122753380Y-86651095D02*
X121753380Y-86651095D01*
X121753380Y-86270142D01*
X121801000Y-86174904D01*
X121848619Y-86127285D01*
X121943857Y-86079666D01*
X122086714Y-86079666D01*
X122181952Y-86127285D01*
X122229571Y-86174904D01*
X122277190Y-86270142D01*
X122277190Y-86651095D01*
X122753380Y-85603476D02*
X122753380Y-85413000D01*
X122705761Y-85317761D01*
X122658142Y-85270142D01*
X122515285Y-85174904D01*
X122324809Y-85127285D01*
X121943857Y-85127285D01*
X121848619Y-85174904D01*
X121801000Y-85222523D01*
X121753380Y-85317761D01*
X121753380Y-85508238D01*
X121801000Y-85603476D01*
X121848619Y-85651095D01*
X121943857Y-85698714D01*
X122181952Y-85698714D01*
X122277190Y-85651095D01*
X122324809Y-85603476D01*
X122372428Y-85508238D01*
X122372428Y-85317761D01*
X122324809Y-85222523D01*
X122277190Y-85174904D01*
X122181952Y-85127285D01*
G04 #@! TO.C,R10*
X118816380Y-77411857D02*
X118340190Y-77745190D01*
X118816380Y-77983285D02*
X117816380Y-77983285D01*
X117816380Y-77602333D01*
X117864000Y-77507095D01*
X117911619Y-77459476D01*
X118006857Y-77411857D01*
X118149714Y-77411857D01*
X118244952Y-77459476D01*
X118292571Y-77507095D01*
X118340190Y-77602333D01*
X118340190Y-77983285D01*
X118816380Y-76459476D02*
X118816380Y-77030904D01*
X118816380Y-76745190D02*
X117816380Y-76745190D01*
X117959238Y-76840428D01*
X118054476Y-76935666D01*
X118102095Y-77030904D01*
X117816380Y-75840428D02*
X117816380Y-75745190D01*
X117864000Y-75649952D01*
X117911619Y-75602333D01*
X118006857Y-75554714D01*
X118197333Y-75507095D01*
X118435428Y-75507095D01*
X118625904Y-75554714D01*
X118721142Y-75602333D01*
X118768761Y-75649952D01*
X118816380Y-75745190D01*
X118816380Y-75840428D01*
X118768761Y-75935666D01*
X118721142Y-75983285D01*
X118625904Y-76030904D01*
X118435428Y-76078523D01*
X118197333Y-76078523D01*
X118006857Y-76030904D01*
X117911619Y-75983285D01*
X117864000Y-75935666D01*
X117816380Y-75840428D01*
G04 #@! TO.C,R11*
X116784380Y-77411857D02*
X116308190Y-77745190D01*
X116784380Y-77983285D02*
X115784380Y-77983285D01*
X115784380Y-77602333D01*
X115832000Y-77507095D01*
X115879619Y-77459476D01*
X115974857Y-77411857D01*
X116117714Y-77411857D01*
X116212952Y-77459476D01*
X116260571Y-77507095D01*
X116308190Y-77602333D01*
X116308190Y-77983285D01*
X116784380Y-76459476D02*
X116784380Y-77030904D01*
X116784380Y-76745190D02*
X115784380Y-76745190D01*
X115927238Y-76840428D01*
X116022476Y-76935666D01*
X116070095Y-77030904D01*
X116784380Y-75507095D02*
X116784380Y-76078523D01*
X116784380Y-75792809D02*
X115784380Y-75792809D01*
X115927238Y-75888047D01*
X116022476Y-75983285D01*
X116070095Y-76078523D01*
G04 #@! TO.C,R12*
X109418380Y-65158857D02*
X108942190Y-65492190D01*
X109418380Y-65730285D02*
X108418380Y-65730285D01*
X108418380Y-65349333D01*
X108466000Y-65254095D01*
X108513619Y-65206476D01*
X108608857Y-65158857D01*
X108751714Y-65158857D01*
X108846952Y-65206476D01*
X108894571Y-65254095D01*
X108942190Y-65349333D01*
X108942190Y-65730285D01*
X109418380Y-64206476D02*
X109418380Y-64777904D01*
X109418380Y-64492190D02*
X108418380Y-64492190D01*
X108561238Y-64587428D01*
X108656476Y-64682666D01*
X108704095Y-64777904D01*
X108513619Y-63825523D02*
X108466000Y-63777904D01*
X108418380Y-63682666D01*
X108418380Y-63444571D01*
X108466000Y-63349333D01*
X108513619Y-63301714D01*
X108608857Y-63254095D01*
X108704095Y-63254095D01*
X108846952Y-63301714D01*
X109418380Y-63873142D01*
X109418380Y-63254095D01*
G04 #@! TO.C,R13*
X107386380Y-65285857D02*
X106910190Y-65619190D01*
X107386380Y-65857285D02*
X106386380Y-65857285D01*
X106386380Y-65476333D01*
X106434000Y-65381095D01*
X106481619Y-65333476D01*
X106576857Y-65285857D01*
X106719714Y-65285857D01*
X106814952Y-65333476D01*
X106862571Y-65381095D01*
X106910190Y-65476333D01*
X106910190Y-65857285D01*
X107386380Y-64333476D02*
X107386380Y-64904904D01*
X107386380Y-64619190D02*
X106386380Y-64619190D01*
X106529238Y-64714428D01*
X106624476Y-64809666D01*
X106672095Y-64904904D01*
X106386380Y-64000142D02*
X106386380Y-63381095D01*
X106767333Y-63714428D01*
X106767333Y-63571571D01*
X106814952Y-63476333D01*
X106862571Y-63428714D01*
X106957809Y-63381095D01*
X107195904Y-63381095D01*
X107291142Y-63428714D01*
X107338761Y-63476333D01*
X107386380Y-63571571D01*
X107386380Y-63857285D01*
X107338761Y-63952523D01*
X107291142Y-64000142D01*
G04 #@! TO.C,SW1*
X155130666Y-88288761D02*
X155273523Y-88336380D01*
X155511619Y-88336380D01*
X155606857Y-88288761D01*
X155654476Y-88241142D01*
X155702095Y-88145904D01*
X155702095Y-88050666D01*
X155654476Y-87955428D01*
X155606857Y-87907809D01*
X155511619Y-87860190D01*
X155321142Y-87812571D01*
X155225904Y-87764952D01*
X155178285Y-87717333D01*
X155130666Y-87622095D01*
X155130666Y-87526857D01*
X155178285Y-87431619D01*
X155225904Y-87384000D01*
X155321142Y-87336380D01*
X155559238Y-87336380D01*
X155702095Y-87384000D01*
X156035428Y-87336380D02*
X156273523Y-88336380D01*
X156464000Y-87622095D01*
X156654476Y-88336380D01*
X156892571Y-87336380D01*
X157797333Y-88336380D02*
X157225904Y-88336380D01*
X157511619Y-88336380D02*
X157511619Y-87336380D01*
X157416380Y-87479238D01*
X157321142Y-87574476D01*
X157225904Y-87622095D01*
G04 #@! TO.C,U1*
X95631095Y-68667380D02*
X95631095Y-69476904D01*
X95678714Y-69572142D01*
X95726333Y-69619761D01*
X95821571Y-69667380D01*
X96012047Y-69667380D01*
X96107285Y-69619761D01*
X96154904Y-69572142D01*
X96202523Y-69476904D01*
X96202523Y-68667380D01*
X97202523Y-69667380D02*
X96631095Y-69667380D01*
X96916809Y-69667380D02*
X96916809Y-68667380D01*
X96821571Y-68810238D01*
X96726333Y-68905476D01*
X96631095Y-68953095D01*
X96440809Y-66127380D02*
X97012238Y-66127380D01*
X96726523Y-67127380D02*
X96726523Y-66127380D01*
X97250333Y-66127380D02*
X97869380Y-66127380D01*
X97536047Y-66508333D01*
X97678904Y-66508333D01*
X97774142Y-66555952D01*
X97821761Y-66603571D01*
X97869380Y-66698809D01*
X97869380Y-66936904D01*
X97821761Y-67032142D01*
X97774142Y-67079761D01*
X97678904Y-67127380D01*
X97393190Y-67127380D01*
X97297952Y-67079761D01*
X97250333Y-67032142D01*
X98297952Y-67032142D02*
X98345571Y-67079761D01*
X98297952Y-67127380D01*
X98250333Y-67079761D01*
X98297952Y-67032142D01*
X98297952Y-67127380D01*
X99297952Y-67127380D02*
X98726523Y-67127380D01*
X99012238Y-67127380D02*
X99012238Y-66127380D01*
X98917000Y-66270238D01*
X98821761Y-66365476D01*
X98726523Y-66413095D01*
X96440809Y-62317380D02*
X97012238Y-62317380D01*
X96726523Y-63317380D02*
X96726523Y-62317380D01*
X97250333Y-62317380D02*
X97869380Y-62317380D01*
X97536047Y-62698333D01*
X97678904Y-62698333D01*
X97774142Y-62745952D01*
X97821761Y-62793571D01*
X97869380Y-62888809D01*
X97869380Y-63126904D01*
X97821761Y-63222142D01*
X97774142Y-63269761D01*
X97678904Y-63317380D01*
X97393190Y-63317380D01*
X97297952Y-63269761D01*
X97250333Y-63222142D01*
X98297952Y-63222142D02*
X98345571Y-63269761D01*
X98297952Y-63317380D01*
X98250333Y-63269761D01*
X98297952Y-63222142D01*
X98297952Y-63317380D01*
X98726523Y-62412619D02*
X98774142Y-62365000D01*
X98869380Y-62317380D01*
X99107476Y-62317380D01*
X99202714Y-62365000D01*
X99250333Y-62412619D01*
X99297952Y-62507857D01*
X99297952Y-62603095D01*
X99250333Y-62745952D01*
X98678904Y-63317380D01*
X99297952Y-63317380D01*
G04 #@! TO.C,U2*
X120777095Y-69556380D02*
X120777095Y-70365904D01*
X120824714Y-70461142D01*
X120872333Y-70508761D01*
X120967571Y-70556380D01*
X121158047Y-70556380D01*
X121253285Y-70508761D01*
X121300904Y-70461142D01*
X121348523Y-70365904D01*
X121348523Y-69556380D01*
X121777095Y-69651619D02*
X121824714Y-69604000D01*
X121919952Y-69556380D01*
X122158047Y-69556380D01*
X122253285Y-69604000D01*
X122300904Y-69651619D01*
X122348523Y-69746857D01*
X122348523Y-69842095D01*
X122300904Y-69984952D01*
X121729476Y-70556380D01*
X122348523Y-70556380D01*
X115736666Y-69317857D02*
X115736666Y-68841666D01*
X116022380Y-69413095D02*
X115022380Y-69079761D01*
X116022380Y-68746428D01*
X116022380Y-68413095D02*
X115022380Y-68413095D01*
X115022380Y-68175000D01*
X115070000Y-68032142D01*
X115165238Y-67936904D01*
X115260476Y-67889285D01*
X115450952Y-67841666D01*
X115593809Y-67841666D01*
X115784285Y-67889285D01*
X115879523Y-67936904D01*
X115974761Y-68032142D01*
X116022380Y-68175000D01*
X116022380Y-68413095D01*
X115022380Y-66936904D02*
X115022380Y-67413095D01*
X115498571Y-67460714D01*
X115450952Y-67413095D01*
X115403333Y-67317857D01*
X115403333Y-67079761D01*
X115450952Y-66984523D01*
X115498571Y-66936904D01*
X115593809Y-66889285D01*
X115831904Y-66889285D01*
X115927142Y-66936904D01*
X115974761Y-66984523D01*
X116022380Y-67079761D01*
X116022380Y-67317857D01*
X115974761Y-67413095D01*
X115927142Y-67460714D01*
X115117619Y-66508333D02*
X115070000Y-66460714D01*
X115022380Y-66365476D01*
X115022380Y-66127380D01*
X115070000Y-66032142D01*
X115117619Y-65984523D01*
X115212857Y-65936904D01*
X115308095Y-65936904D01*
X115450952Y-65984523D01*
X116022380Y-66555952D01*
X116022380Y-65936904D01*
X115022380Y-65032142D02*
X115022380Y-65508333D01*
X115498571Y-65555952D01*
X115450952Y-65508333D01*
X115403333Y-65413095D01*
X115403333Y-65175000D01*
X115450952Y-65079761D01*
X115498571Y-65032142D01*
X115593809Y-64984523D01*
X115831904Y-64984523D01*
X115927142Y-65032142D01*
X115974761Y-65079761D01*
X116022380Y-65175000D01*
X116022380Y-65413095D01*
X115974761Y-65508333D01*
X115927142Y-65555952D01*
X115355714Y-64127380D02*
X116022380Y-64127380D01*
X114974761Y-64365476D02*
X115689047Y-64603571D01*
X115689047Y-63984523D01*
G04 #@! TO.C,J7*
D11*
X140766571Y-88510571D02*
X139909428Y-88510571D01*
X140338000Y-88510571D02*
X140338000Y-87010571D01*
X140195142Y-87224857D01*
X140052285Y-87367714D01*
X139909428Y-87439142D01*
G04 #@! TO.C,J3*
X134924571Y-88510571D02*
X134067428Y-88510571D01*
X134496000Y-88510571D02*
X134496000Y-87010571D01*
X134353142Y-87224857D01*
X134210285Y-87367714D01*
X134067428Y-87439142D01*
G04 #@! TD*
M02*
